<mxfile>
    <diagram id="-qZKxrqswJbfvIQauQJj" name="Page-1">
        <mxGraphModel dx="627" dy="411" grid="1" gridSize="10" guides="1" tooltips="1" connect="1" arrows="1" fold="1" page="1" pageScale="1" pageWidth="827" pageHeight="1169" math="0" shadow="0">
            <root>
                <mxCell id="0"/>
                <mxCell id="1" parent="0"/>
                <mxCell id="6" value="" style="ellipse;whiteSpace=wrap;html=1;" vertex="1" parent="1">
                    <mxGeometry x="225.5" y="240" width="43" height="30" as="geometry"/>
                </mxCell>
                <mxCell id="10" value="" style="shape=image;verticalLabelPosition=bottom;labelBackgroundColor=#ffffff;verticalAlign=top;aspect=fixed;imageAspect=0;image=data:image/png,iVBORw0KGgoAAAANSUhEUgAABaEAAAPdCAYAAACTDqTTAAAAAXNSR0IArs4c6QAAAARnQU1BAACxjwv8YQUAAAAJcEhZcwAACxMAAAsTAQCanBgAAAACYktHRAD/h4/MvwAAACF0RVh0Q3JlYXRpb24gVGltZQAyMDIxOjA1OjI5IDIwOjQ1OjQ3CFKbJAAAnoJJREFUeF7s3Qe4JGWZ/28Zcs5IEATBgCKC2TVHMOec4xrXuObsijmtumZWV1xzdsWsGDErCioSRHLOeYb///vMzPk5jO8Mc0J3VXfd93V9rnPOrKtwprur+umq913ragAMzaK0QVp3AVqn8WcrtnaaOdbU19l+P/N1df/3K9LidPnyryu2pn+2qj+vP7skXZwuWuHrZen/SwAAAMBVmHkDD0B36rV4w7TJ8q8bLf86n1b337FeYn5qAL3iUHquX89P5zaqATgAAABMBUNogNmp1831Uw2Mq01X8f3q/m+t770es6IaUNcw+pzlX+eSQTYAAAC9YOgBDEkNjzdPWyz/elXfb5Zag+NaggL67ux0+hp2RqplRwAAAGDBGUIDk6LWFq6h8JoOkFf+vr7WEBpouyC1BtQrdlo6KZ2SliQAAAC4SobQwDjVILkGwlulLVfoqn6u6kpkoB9qM8gaRJ+4vBNW+H7FarANAADAwBlCA7NVrxt1RfLKw+I1GSzXABoYjvNSDaNXNaSu6urqGmoDAAAwpQyhYZjqub9xWtWwuPX9zM+1rMWiBLAQagPFGkb/LR2Tjl2puuLakBoAAGCCGULDZNswrWpYvKqfZ763uR4wCWrDxBpQrzycnhlYn5MAAADoMUNo6N56aeVB8Zr+bKM9YOhqCN0aTs90aQIAAKBDhtCwMOqq4lqmYuVh8ZoMkjdKACy8WsajrqL+c/rLSl9rLer/LwEAADBihtDwDysOkmdTDZI3TQBMjnNTazh9dHL1NAAAwAIyhGbazAySV77ieE0ySAagrp6uJT1WHE7PfH96cvU0AADALBlC00frprlckVwZJAMwKrX+dA2jD0+HpT8s74wEAADAKhhCMyo1SG4NidekTRIATIpT0opD6fr+T+mSBAAAMHiG0KzOmg6SW0tfbJwAYKiWpL+mmaH0zIC6NkqsJT8AAAAGwxB6+q2XVh4Qr2kGyQCwsC5If0wzQ+mZzkwAAABTyRB6MqyfWkPiNWmjBAD024npt+nXK3RSAgAAmHiG0OOzQWoNiVeutSGfQTIADE+tNf2btOJguobV/18CAACYGIbQa65+VxumlQfEV9XMULmG0AAA83FaWnkwfXwymAYAAHpriEPoWiO5NtLbOm2TVh4ar6oaJtf/LwBAn5yRVh5MH5cMpgEAgF6Y5CF0/bPXxnk1TF6xGiyv7s82TQAA0+ysNDOY/nk6NJ2cAAAAxq4vQ+hFqa40XnlgPFPrz6rasA8AgKv291TD6JlqI8RLEgAAwEiNcgi9TtouXT1tv5qv9Z+p5S5qEA0AwHhclmoQveJg2jIeAADAgpvtEHrtVFclzwyQVzdcriuVJ3m5DwCAoTk1rTiU/lW6IAEAAMzZzJC4rlreIe2yvPq+NVjeNrliGQBgGK5If0grDqaPTPXnAAAAa6SG0HXb5U6prnIGAIDVOSfVZoc/Sz9ONZi+MAEAADTVENq6fwAAzNXi9Jv0o+X9JJ2RAAAAljKEBgBgof0pzQylq7rzDgAAGChDaAAARu34VMPoWr6jvh6RrCsNAAADYQgNMH2WpMuXV7fJj/r7qv4363jSVbWvQW2yW617FV8X8j+zXtoobZw2TMCaOSvVsh0/Wl4t53FZAgAAppAhNMDCuyDVJl0zX2e6OF2y0tfZ/FkNaGaGv61h8MxXr+vdWJRqID0zlF6x+fzZzJ/XwBumVb3G1WaHM0Pp2vSwXkMBAIApYAgNsGx4e3Y6Z3nnrvR9DUJWHCyv6vuZQbNbzBmFugJ7Zki9WdpihTa/ip9ncrU2k6I+UPtp+mb6Vqorpb22AgDAhDKEBqZBXS284uB4dbX+c/X/77WQIdggbZ22Wc3Xlf9s0wRdOzN9O9VAujoxAQAAE8IQGuiDunp45cHwTFc1XK7/ew2RgdFYP22btk9XX/51Vd/XFdowDoenmYH0D9NFCQAA6ClDaGAh1RCgrlarDafq60yr+rmWwKgh8qUJmHy13MfMQHqHtGO6xvJ2WuF7y4KwkOoY8t30pfSVdGoCAAB6xBAaaKm1OGcGxSsPkFt/NvOzK5KBq1LnHrU+9cqD6Znvd0m7plr/GmarzmtrLekvphpKH50AAICOGULD9KsrjVsD49X9fF7y2gB0pc5Pak3qGkbvtvzrTDM/1/rWcFX+mGYG0r9Njm0AANABQ2iYHLVu8qqGxqv6uZa7qKuaAaZJnb9sl2YG09dKeyzv2qmWAoGV/T3VMLqG0j9Ojo8AADAmhtAwfq2lLlYcHK/q+xpCA3DVNkm7pxUH0zPf17IfUMfXr6bPpdrc8LIEAACMiCE0zF09d+pK49bQeHV/dn7yvAPoxsaprpy+Ttpzha6XbJg4THUsr6ujP52+l1whDQAAC8wQGpapNZDXZIC84ve11vKSBMDkW5Suma6fZgbTM99vnhiG09PnUw2kf5Qc5wEAYAEYQjNtZtZNXnFYvLpBcn2tLk8AsLI6V6o1pmsYfYN0w7R32ittlJheJ6fPphpIH5quSAAAwBwYQtNXNRRekwHyin9WWTcZgHGoK6drWY8aSK9YrUXN9Dk+1TC6+nVy/gwAALNgCM2o1VVDtdbiVQ2QV/6zC5PHJgCTpjZFrKukZ4bS+yyv1qJmOhydZgbSf0jOVwAA4CoYQjMbtQbyysPiqxoq1/+P21cBGLK1U22EeJN04+Vf902bJibbEemg9L/puPoDAADgnxlCD1NdZTybQXJ9rauZ7RYPAAujlvPYI604mK6vNkGcXD9MNZD+XKrzJgAAYDlD6Ml2UaohcavVDZUvTQBAv9R5Wa0pfbN0y+XVFdPrJibHZelrqQbSX0/OuwAAGDxD6H64IM0Mj1ccFl9VlyQAYHptkGpN6ZmhdHXNxGQ4J30m1UD6J8kSZQAADJIh9MKq9Y9bw+KZWsPlul2zrpgBAFgT26dbpJmhdF05bePD/vtb+kSqgfSf6w8AAGAoDKHb6srk01MNjc9IKw+OV67+c3WlizWTAYBxWyfV1dK3Sbdd3raJ/vp1qmH0p9Ip9QcAADDNhjCErsFwDZKrGiyv+LX1fQ2ULXMBAEyqOr+7TpoZSNdw+lqJ/qnlOb6daiD9hVT7fQAAwNSZxCF0XXG8qgFy6/taIsPV3gDAkO2UVrxS+oapzgPpj/NSXRn93+nnyfkrAABTow9D6FrO4uRUtyLW8Hh1g+W6SvnyBADA3G2dbp/utLw9E/3xp1TD6I8ny3UAADDxRjWErlsLT001XF6xOole+edLEwAA3dkh3THNDKV3S3RvSfq/VAPp+upiDAAAJtJsh9A1MF5xiDwzSF75z+qq5TppBgBg8tQQemYofee0faJbp6W6MroG0ofXHwAAwKSYGUJfnI5PJ6XWUHmmWo/Z+nQAAMNR54u1XMfd0n6plvHYMNGdX6QaRtca0nV+DgAAvbdNqjcXAABwVTZId01vTX9IdYGCuqkuJDko1dXqixIAAPSS4TMAAPOxY5q5SrqG07XpIeN3XKqroz+W/lZ/AAAAAAAwbdZON0svTz9NtVl16wpejbbvpEcky6YAAAAAAFOtln17dPp0Oje1BqYaXbVe9PvSzZM7IAEAAACAqbZuumN6W/pLag1NNbr+mJ6XtksAAAAAAFPvOum56bvp8tQanGrhq9/1F9O90zoJAAAAAGDqbZ4ekj6Zzk+t4akWvlPSm9OeCQAAAABgEDZI90n/k2pN49bwVAvfz9KT02YJAAAAAGAQ1kv7pw+lM1JreKqF7aJUHwDcIS1KAAAAAACDUOsX3ym9N52cWgNULWzHpFekXRIAAAAAwGCsnW6T3pH+nloDVC1cV6RvpYel9RMAAAAAwGCslW6e3pSOTq0hqhau09Nb0rUTAAAAAMCg1EB6n/S69KfUGqJq4fpuekiqtbsBAAAAAAbn+qnWNP59ag1RtTCdmt6Ydk8AAAAAAIO0R3pxOiy1BqlamGrt6AemdRMAAAAAwCDdKL01nZxag1TNv/rdvj7tmgAAAAAABmmdtF86KF2YWsNUza8r0sHpfql+3wAAAAAAg7Rpekz6dqrBaWugqvl1Ynpt2iUBAAAAAAzWNdIL0x9Sa5iq+bUkfS3dO7k6GgAAAAAYrLXSPunt6ZTUGqhqfh2fXpVq8A8AAAAAMFh1xe7+6RPpotQaqGru1dXRX073SGsnAAAAAIDBqvWjH5u+m6wfvfAdl16RdkwAAAAAAINWy0i8KP0xtQaqmnuL0xdTXYG+KAEAAAAADFatH71vekc6LbWGqpp7x6aXpu0TAAAAAMCgrZcelL6dWgNVzb3L0+fSXZOrowEAAACAwds9vSGdmlpDVc29o1IthbJdAgAAAAAYtLo6+oHpm6k1UNXcuyx9Ot0p1bIoAAAAAACDdq10QDoltYaqmntHphekbRIAAAAAwKCtmx6QvpGuSK2hqubWpel/0+2Tq6MBAAAAgMHbLf1HOjm1hqqae39Kz01bJQAAAACAQauro++XDk6ujl7YLkofTvsmAAAAAIDB2zW9Lp2UWkNVzb2fpEek2jASAAAAAGDQ1kn3Tf+XXB29sNXmkDXov0YCAAAAABi8a6bXphNTa6iqubU4fS7dMdnIEAAAAAAYvLo6+gHpB6k1VNXcOzw9PW2aAAAAAAAGb590YLoktYaqmlvnpfekPRMAAAAAwOBtm16ebGS48H033T/VFegAAAAAAIO2Xnp4OjS1Bqqae39PL0vbJQAAAACAwbtF+kS6PLWGqppbl6aD0q2SjQwBAAAAgMHbMb0unZZaQ1XNvV+nJ6QNEwAAAADAoG2QHpd+m1oDVc29M9Nb0rUSAAAAAMCg1RISt0ufT0tSa6iquXVF+lq6e1qUAAAAAAAGbdf05nR2ag1VNfeOSs9LWyYAAAAAgEHbOD01HZFaA1XNvYvSh9O+CQAAAABg0GqpjrumWlKiNVDV/PpJenhaLwEAAAAADNq103+mC1NroKq5d0p6XbpGAgAAAAAYtK3Ty9NpqTVQ1dxbnD6X7pjqKnQAAAAAgMHaMD0tHZ1aA1XNr8PT09OmCQAAAABgsNZOD0m/Sq1hqubXeendac8EAAAAADBYtXzEndI3UmuYqvn33XT/tE4CAAAAABisfdInUq1x3Bqman79Pb00bZcAAAAAAAZr1/Sf6aLUGqZqfl2aPpZunAAAAAAABmub9Mp0emoNUzX/fpgekGqNbgAAAACAQdooPSMdk1qDVM2/v6UXpC0SAAAAAMAg1cZ6D02/Sa1BqubfBem96boJAAAAAGCQ1kp3Sd9KrUGqFqavp7ul+n0DAAAAAAxSba73ybQktQapmn9HpKemjRMAAAAAwCDtlt6TLkqtQarm31npTWmXBAAAAAAwSNum16VzU2uQqvm3OH0m3TpZqgMAAAAAGKQt0itSXb3bGqRqYfpVelRaLwEAAAAADM6m6UXptNQaomphOjm9Mm2XAAAAAAAGpzbVe26qYWlriKqF6dL032mfBAAAAAAwOBukZ6TjU2uIqoXrB+l+ae0EAAAAADAo66enpGNTa4CqheuY9Ly0eQIAAAAAGJR10+PSkak1QNXCdUF6d7p2AgAAAAAYlFoy4hHp8NQaoGph+1q6a1orAQAAAAAMxqL0oPS71BqeamGroX8ti7JRAgAAAAAYjLpC9z7pl6k1PNXCdmZ6Y9o5AQAAAAAMRg2j908/Sa3hqRa2xenT6VbJUh0AAAAAwGDUQPRO6fupNTzVwveLVOt0r5cAAAAAAAbjNumbqTU41cJ3Unp52jYBAAAAAAzGLdJXU2twqoXvkvSRtHcCAAAAABiMG6cvpNbgVKPpe+m+ae0EAAAAADAIdYXuZ9IVqTU41cJ3dHpO2iwBAAAAAAzC9dMn0pLUGpxq4Ts3vSXtnAAAAAAABuG66WNpcWoNTrXwXZ4OSvsmAAAAAIBB2D19ONWAtDU41Wj6brpHWpQAAAAAAKberun96bLUGppqNB2enpg2SAAAAAAAU6/WLX5PuiS1hqYaTaekl6etEwAAAADA1NsxvSNdnFpDU42mi9J70x4JAAAAAGDqbZ/eki5MraGpRtMV6QvpXxIAAAAAwNTbNr0hnZ9aQ1ONrp+lB6a1EwAAAADAVKs1i1+bzk2tgalG19HpmWnjBAAAAAAw1bZIr0xnp9bAVKPrrPT6tEMCAAAAAJhqm6WXpDNSa2Cq0XVpOjDtlQAAAAAAptom6d/Taak1MNVoOzjdJa2VAAAAAACm1kbpuenk1BqWarT9Lj06rZcAAAAAAKbWhqk20TshtYalGm31e39hqrW7AQAAAACm1vrpqem41BqWarSdn96Rdk0AAAAAAFNr3fSYdERqDUs12hanT6WbJQAAAACAqbUo3TcdmlrDUo2+Q9K9U/1dAAAAAABMpbXSHdI3UmtQqtH35/SUVOt3AwAAAABMrX3Tp9OS1BqWarSdll6Vtk0AAAAAAFPr2umD6dLUGpZqtF2c3p+umwAAAAAAptaO6c3p/NQalmr0fTndLtWyKQAAAAAAU2nL9LJ0emoNSjX6fpkemtZJAAAAAABTaaP0zPS31BqUavTV7/45adMEAAAAADCV1k2PSn9MrUGpRt856Q3p6gkAAAAAYCotSvdOP02tQalG3yXpv9JuCQAAAABgKtWmebV53tdTa1Cq0bc4fSLdMAEAAAAATK190ifTktQalmr0fS3dJgEAAAAATK3d0/vTpak1KNXo+3G6Z6or1QEAAAAAptIO6Y3pvNQalGr0HZYekdZJAAAAAABTaYv0knRqag1KNfqOTU9PGyYAAAAAgKlUA9AahB6VWoNSjb76IKA+EKgPBgAAAAAAptLa6b7pkNQalGr0nZtqqZTtEwAAAADA1Lpp+kRanFrDUo22S1JtIlmbSQIAAAAATK2d05vSOak1LNVoW5I+mfZJAAAAAABTa5P0rHR0ag1LNfq+nm6X1koAAAAAAFOp1o2+f/pRag1KNfp+ku6dFiUAAAAAgKl181RLRVg3upv+mB6V1k0AAAAAAFNrl/SWdG5qDUs12v6Wnpk2SgAAAAAAU2vT9Ox0bGoNSzXaTksvS1smAAAAAICpVetGPzDV2sWtYalG23npzWnHBAAAAAAw1W6ZPp2WpNbAVKPr0vTBtEcCAAAAAJhqu6a3pbpKtzUw1eiqDwDqg4B9EwAAAADAVNssPTfVZnqtgalG2zfSHdJaCQAAAABgaq2THpwOTa1hqUbbz9J906IEAAAAADDVbpU+m6wbPf4OT49J6yYAAAAAgKm2W3pHsm70+Dsu/VvaKAEAAAAATLVaN/oZ6U+pNTDV6Do9vSJtmQAAAAAAplptnnfn9MVkqY7xdn56S9oxAQAAAABMvWumN6QzUmtoqtF0afpg2iMBAAAAAEy9DdJj069Sa2iq0VRXon8q7ZMAAAAAAKZeLdVxi/TxdFlqDU41mr6ebpfq7wAAAAAAYOpdPb0snZBaQ1ONpp+keyXDaAAAAABgENZJD0zfT62hqUbTYekRqX7/AAAAAACDsFd6X7owtQanWviOSU9LtW43AAAAAMAgbJGek/6aWoNTLXynpBelzRIAAAAAwCAsSvunr6UrUmt4qoXtnPT6tF0CAAAAABiM3dNb09mpNTzVwnZxenfaNQEAAAAADMZG6Unpd6k1PNXCtjj9T7pBAgAAAAAYjLXSbdKn0uWpNUDVwvaldMsEAAAAADAoO6ZXp5NTa3iqhe376W6pPggAAAAAABiM9dLD0o9Ta3iqhe1X6UFp7QQAAAAAMCj7pg+nC1NrgKqF6y/pCak+BAAAAAAAGJTN0zPSYak1QNXCdUJ6btokAQAAAAAMSq1ffKv00XRxag1RtTCdmV6VtkoAAAAAAIOzZXp2OiK1hqhamC5Ib0s7JQAAAACAwamro2+bDkqXpNYgVfPvslTrc18nAQAAAAAM0tbpeak22WsNUjX/rkifSbVpJAAAAADAINXV0XdIn0x1BW9rmKr5941Uv+f6fQMAAAAADNJ26YXpqNQapGr+/SzdJy1KAAAAAACDVAPSu6TPpstTa5iq+fXH9Pi0fgIAAAAAGKzt00vSsak1TNX8Ojm9LNUa3QAAAAAAg1VXR++XvpAWp9ZAVXPvwvSetEcCAAAAABi0HdMr0t9Ta6CquXdFqkH/rZNNDAEAAACAQVs73TN9JS1JraGq5t6h6cFpnQQAAAAAMGg7p1enE1JroKq5V+txPzttmgAAAAAABq2u2r1P+nqqpSVaQ1XNrXPSm9I1EgAAAADA4O2a/iOdnFpDVc2ty9PH0z4JAAAAAGDw1k0PSN9MraGq5t530z3SogQAAAAAMHjXSm9Iro5e2P6UnpGsGw0AAAAAEHV19H3TV9Li1Bqsavadm96Vrp0AAAAAAIgd04vTX1NrsKq5dXC6e7JUBwAAAABArJVun/4nXZRag1XNviPTs9PmCQAAAACA2CI9Lf0qtQarmn0XpPemPRMAAAAAAMvdKP1nOiu1hquafd9O90lrJwAAAAAAYoP08PSd1BqsavYdk56ftkwAAAAAACx3rfS6dEJqDVc1uy5MH0j7JgAAAAAAlqvlJO6ePpcuT60Bq2bXL9OT06YJAAAAAIDltku1tMQRqTVc1ew6P9XV0TdJAAAAAAAst1a6VfpIuiC1BqyaXb9O/5o2SwAAAAAALFdLSjwx/TS1hquaXTXU/1C6WaphPwAAAAAAy10/vS2dnloDVs2u36Wnp80TAAAAAADLrZcemA5OV6TWgFVr3oXpwHTL5OpoAAAAAIAV7JxekY5NrQGrZtcf0gvSDgkAAAAAgOUWpbukT6ZLU2vAqjVvSfp6eljaMAEAAAAAsNxW6Vnp96k1YNXsOid9MN06Wa4DAAAAAGC5GpjeNL0vnZtaA1bNrqPSK9OuCQAAAACA5TZKj0mHpNZwVbPvB+kJadMEAAAAAMBy105vSCel1nBVs+uidFC6a1o7AQAAAAAQ66S7p88kmxkuTCekt6SbJOtHAwAAAAAst3V6ZvpVag1XNfuOTK9N108AAAAAACy3d3p7Oi21hquafYell6bdEwAAAAAAsV66X/pSujy1hquafT9Pz007JQAAAAAA4urpeekPqTVY1ey7Ih2Snpa2TQAAAAAAg1eb7d00vTednVrDVc2+xekb6XFpiwQAAAAAMHgbpIekg9OS1BquavZdmr6cHpO2TAAAAAAAg1frG784/SW1BquaW7UWdw35n5S2SQAAAAAAg1bLdfxL+lA6L7UGq5pbtWTHd9PT0w4JAAAAAGDQNkqPSjU4bQ1VNfdqU8MfpeekXRIAAAAAwKDtml6Vjk2toarm1y/SC9PuCQAAAABgsBalO6SPpQtTa6Cq+fW79PK0ZwIAAAAAGKxN0xNTLSvRGqZq/h2RXpv2TrVeNwAAAADAIF07vT4dn1rDVM2/I9MB6cbJQBoAAAAAGKS1093SJ9MlqTVM1fw7Jr0l3SIZSAMAAAAAg7Rlelr6eWoNUrUw/T29I9061ZrdAAAAAACDc4NUV+6eklqDVC1MJ6V3p9unuiodAAAAAGBQ1k33Tp9Pl6XWIFUL06npfenOaZ0EAAAAADAo26Znp9+l1hBVC9cZ6cNp/7ReAgAAAAAYlH3Tu1INS1tDVC1cZ6ePpnul9RMAAAAAwGDUUPSB6WtpcWoNUbVwnZsOSvdLGyYAAAAAgMHYIf17+mNqDVC1sF2QPpUelDZOAAAAAACDsFa6SfrPZLmO8XRRqs0jH542TQAAAAAAg1Cb6t0/fSldnloDVC1sl6QvpoekjRIAAAAAwCBsm56dfpNaw1MtfOenWkP6nmndBAAAAAAwCDdMb02npNbwVAvfmekD6Q5pUQIAAAAAmHrrpLpK9zPp0tQanmrhOyG9Ld001RreAAAAAABTb8v01PSz1BqcajT9Nb027ZkAAAAAAAbhuumAdHxqDU41mn6XXpSumQAAAAAApt7a6S7p4+mi1BqcajT9OD0jbZcAAAAAAKbeZukJ6ZDUGppqNC1O30yPS5snAAAAAICpd6306nRMag1ONZouSV9ID04bJhg0u3oCADBE+6ZHpL3SOulv6Yfpy+m8BADTZlG6TXpsqsHoponxOD99KX0yfSddngAAAJhSm6SPptYVS9WF6R3p6gkAptVG6ZHp2+mK1DomajSdkd6XbpfqgwEAAACmyBbpl6n1hnDlzk3PTN4cAjDtdk4vSX9OrWOiRtff0wHpugkAAIAJV0tu1O2vrTeAq+u7yVXRAAxBLdl6y1RX6Z6dWsdFja6fp6enrRIAAAAT6EWp9YZvTToh3SIBwFBskGrd6K+lxal1fNRoujR9Pt0nrZsAAACYANulC1Lrjd6aVm8IH58AYGi2T89Ph6XWMVKj6/T0rnTjVFeqAwAA0FOvTq03dnPpWQkAhqiGoPumd6YajraOkxpdf0j/nnZIAAAA9Ei9YT4qtd7MzbUXJgAYsvXSfdMX0mWpdbzUaFqSDk4PTxsmAAAAOnat1HoDN99emdwWCwBXu9o26ZnpV6l1zNToOjd9KN02OS8BAADoyANT603bQnRA8oYPAP7hBunN6aTUOnZqdB2dXpXqA3gAAADGqDZSar1RW6jekQyiAeDK1kn7p0+lS1LrGKrR9cP0xLR5AgAAYMRen1pvzhaydyeDaABo2yI9Jf0ktY6jGl0Xp/9N+6W1EwAAHalNVXZL10vXTJsmYHq8IbXelC10L00AwOpdJ/1H+ntqHU81umqJlFoqpZZMAQBgTPZMX0mXppVP0GqDj9+lun3weelWaf0ETJ5XpJWf46PqMQkAuGqL0p3Sx9KFqXVc1ej6Raqr012AAwAwQnulGjS3TshWVQ2rD021/utD0zUS0H//mlrP6VF0ebprAgDW3CbpsekHqXV81ei6IH043SJZWgwAYAHVydXPU+skbLYdlg5It07WWIN+ultqPX9H1XlpnwQAzN4eqfZzODG1jrMaXfXe5t/SVgkAgHm6Q2qddM23M9JB6WFpywT0Q9210HrOjrJac7HWmAcA5qYu8LhH+ly6LLWOtxpNl6R6X1Pvm1wdDQAwR+9PrZOthWxxOiQ9I22XgO7Um6dTUuu5OsqOSK4kAoD52zY9N/0xtY65Gl1HphemqycAAGbhqNQ6wRpVNZA+ONWGZZslYPzqKqrW83PU/TBtkACA+asPlm+ePpBq+avWsVejqfa9+HzaP1mGEADgKtSmJ62TqnF1cfpsun8ymILxqd3fW8/JcfSZtCgBAAtno/ToZDPD8XdcemXaOQEA0HDT1DqR6qJz04HpjsmACkZrx9R6Ho6rVycAYDRsZthNS9L/pfuldRMAAMvVkhitE6iuqyVCXpJ2SMBo/Cy1nn/jqu6AAABGZ51kM8NuOjm9Ie2eAAAGr06MWidNfanWj/5yuneqk2hg4TwztZ534+r8dIMEAIyezQy767vp4cnygwDAYH0ptU6U+thJqW4rdDUBLIzaGLTrTYz+mrZMAMB41GaGt0gfS5em1vFZo+nM9I50/QQAMCh/Tq0TpL43czXBegmYu7el1nNsnB2c7CoPAOO3XXp5snb0+PteekBytycAMAgXpNZJ0aR0Snptqk3WgNm7ZqpNdFrPr3H2xgQAdKM20Xto+nFqHac1uo5PL031gQAAwFSqT91bJ0KT2OXp0+k2qW4xBNZcPXdaz6tx97AEAHRr33RguiS1jtcaTbU0yv+kmycAgKmyfmqdAE16v01PTBsl4KrVm53Wc2ncXZT2SQBA92ojw5ekulK3ddzW6PpFekyykSEAMBXqiuHLUuvEZxqqjT/enHZLwOr15fbbv6V60wsA9EPdPfmgdEhqHbs1uk5LtTH7zgkAYKL9NbVOeKapK9KX0x2TpTqg7f6p9fzpotqop9amBAD65UbpQ+ni1DqGazTV/h2fT97PAAAT6+OpdaIzrf0q1bqzdqGGK6s3ND9JredNF70zAQD9tHV6YToxtY7jGl2Hp6elTRIAwMR4YGqd3Ex7dcv/s5OTN/iHm6XW86WrHpwAgP6qPWaeko5JrWO5Rte56V3pugkAoPfqlvcayLZObIbQ2emAtEMCrna1j6XWc6WLzkvXSQBAv9Vdho9OR6TWMV2j7Zvp3mntBADQWw9IrZOZIXVp+kjaM8GQ7ZQuTK3nSRf9Pm2YAID+W5TqTsvfptZxXaPt2PTvqZZLAQDopfen1onMEPtqun2y6QdD9YrUem501YcTADA5ahj9iFRD0daxXaOtNo6sDSSvlwAAeqWW5fjf1DqJGWqHpnslw2iGpq48/ntqPS+66rEJAJgstWb0c9IZqXV81+j7SrpN8p4GAOiNumKh1kdunbwMubqdsG4rrN8PDMXDUuv50FUXpRsmAGDybJ7ekpak1nFeo+9nqZZhtG40ANAbT0gXpNbJy5A7PNVthbXxCky7ulrmkNR6LnTVn9OmCQCYTDdPNi/stiPTU5M9NwCAXrhmOji1TlyG3l/T41MtYQLTbPfUtw+kPpncTgoAk2uD9IZ0RWod6zWeTku1D4hNDAGAztWg51Hp1NQ6cRl6f0tPS3UiDdOqrpRpPf677OkJAJhs902XptaxXuPrwvTutFsCAOjUJull6dzUOnEZeiem2nBlowTTpj6M+lZqPfa7qt6w3jQBAJPtSal1rNf4q/W6P52cYwEAndsqvSldnFonLkOvbml7UbJmLdNm59S3D6GOTVsmAGBy1fJ2x6fWsV7d9b1092QJNACgU9unA9LZqXXSMvTOSq9MBmRMk8em1uO9y76cvDkCgMlWF3G0jvPqvj+kOgdcLwEAdKau+H1u+ntqnbQMvbpy9PVpmwSTroa9NfRtPda77AUJAJhcdbflRal1nFc/OiH9e9o8AQB0pm6je2T6XWqdtAy92uzjrWmHBJOs7oI4I7Ue5121ON02AQCT6/2pdZxXv6qLbN6YXGQDAHSqrpS8czo4tU5aht4lqXaervV1YVI9OLUe311Wm4NulwCAybRnah3j1c/OT3XHZ13FDgDQqb3SgenS1DpxGXKXpQ+mayWYRB9Krcd2l30nrZ0AgMn0s9Q6xqu/nZdek7ZIAACdqiUo6lPy2qyvdeIy5GoZgY+l6yWYJBum36bW47rLXpsAgMn0nNQ6vqv/nZNqY3ZrRgMAnds4PTMdk1onLkPuivSpdMMEk2L3VG84Wo/prqrn0v4JAJg8O6U6lreO8ZqM6sKjl6bawB4AoFN1u/wDk9vt2n0x3STBJLhfaj2Ou6w2TrTuOgBMph+m1vFdk1Wdj70obZIAADr3L+kLyRUP/9zXU/1+oO/eklqP4S6rD7nWSwDAZHlGah3bNZmdll6QNkoAAJ27dnpvuii1Tl6G3HfTHdNaCfpo3dTHq5bemQCAyXL1tCS1ju2a3E5JteZ37SsCANC5bdIr0qmpdfIy5H6c9kuG0fTRjqmPz9sHJwBgstRFGK3jepfV8hI/Sl9Z3g/Skemy1PrPq91J6VlpgwQA0Lk6KXlKOjq1Tl6G3C9Sralda2tDn9QV+327cum8dJ0EAEyOeh/QOq530ZfTLdKi1FJ3hF0/PTodmE5Orf8eXbkT0tOS5dMAgF5YJz0i/TG1Tl6GXA3oa828jRP0Re2G3nq8dtlhyTqEADA56u7Iy1PruD7OXp1mexdiDav3TS9LP0mWFll9f00PSO72BAB6oU7m7pvqKuDWycuQOzO9LtX6edC1eq5+NbUeq11WVyYBAJOjNuluHdPHVQ2QF2IwunV6ePrfZP+bVVdLndw8AQD0Qp0I3iV9L7VOXobcJemD6XoJurRl6uNSOk9IAMBkeExqHc/HVd2NudA2T7XUyKGp9b+pZcP6ayYAgN64VerjFZd9qDZLuV1yWxtd2SddnFqPz66qf54bJQCg/zZLdZFF65g+jnZJo7RXels6PbX+94dc/b2/MdXQHgCgN2qo9Kl0RWqdxAy5Wr7kIanW1oZx6/oKpla17qA3NAAwGT6fWsfzcTSu8+famK/WRP5asn70lasB/ZPTqjaFBADoxHXSR1IfNjHpW8emf0ubJBin96XWY7LL6g2tuwQAoP8elFrH8nHUxeBzp/SSVB+at/6ZhlotX3LjBADQK3Xr3H+mvi0F0IfOSq9POyQYh/XTz1Pr8dhlr0gAQL9tlM5PrWP5qKs9LrpSH5bfKdUH566OXlb9Ht6TtkgAAL1y9fSGdF5qncgMuUtTXTV+/QSjtnM6M7Uei112vwQA9NtBqXUcH3W1v0Uf1AU2ByRrRy/r1FRLvrmrDQDona1SXf17QWqdyAy9/0t3TE7kGKX7p9bjr8vqyqraFAgA6K/9U+s4Puoelfpkg1TD11+m1j/v0PpRul4CAOidbdOb00WpdSIz9H6VHpFq+QQYhQ+k1mOvy45JWycAoJ9qbeajUus4Pspqeb++ukX6eLostf7Zh1Itv1j73ti4EADope3TO9IlqXUyM/ROS3XL364JFtLG6c+p9bjrsu+mdRMA0E/PS61j+Cj7feq7Wn7w5emE1Pp3GEp1LlfLlgAA9FLtPl2bWwz9CoJVdUX6WrpHWjvBQtg39fE51+ernQBg6GqTwC7uZtwjTYL6MP1B6ZDU+vcYQuemxyZLDAIAvVWfmtcyAZen1gmNrna1Y9OL03YJ5uv5qfU467onJgCgnz6UWsfvUVZXGU+avdMHUy1V0fp3mva+mLxnAQB67VrpwLQ4tU5otOwK1k+k2yRXGTBXtW7fT1LrMdZl9fi+dQIA+mef1Dp+j7I/pklV++G8Mp2aWv9u01wtL3i/BADQa9dOtdFHLUfROqnRsv6Qnp42SzBbe6U+3n1Qb9R2TgBA//w4tY7fo6zOWSbZBqnu9jo8tf79prn/ThslAIBe2zN9OrVOaPSPzk/vS3XrH8zG61PrMdV1v07esABA/zwstY7do6zOV6ZB3Yl29/Sd1Pr3nNZ+k66ZAAB6r4artbZY66RGV66WWHhkWj/BVdkw/TW1Hktd98lkyRkA6JfagO9vqXXsHlVHp2k7J6ilTf4nDWVPnNPT7RMAwESotWJ/mlonNrpydaL3plTrbMPq3Dm1HkN9qDbjBAD65ampddweZTdP02in9MZ0dmr9e09TNXB/RnKRAQAwEeqk5QHpyNQ6udGVq3W165a/R6eNE7R8ObUeP11Xj997JwCgP+qOuxNS69g9qmrz8mm2SXpWOia1/v2nqQ8nd20CABOjbgWsTflq5+XWyY3+uVo7ujYHuUOqNelgxo1S6zHThy5M03r1EwBMqn9LreP2qLo07ZCm3drpgemXqfV7mJbq7tYh/H0CAFNks/TaVIOq1gmO2h2b6ve2R4Ly2dR6rPShWl7mOgkA6IfaV+KU1Dpuj6pp2aBwTdTdn7WJ4c9S63cxDZ2YbpEAACbKjumDaUlqneRo1f04PTltlRiuG6Ra/qL1GOlD9cHJ9gkA6IcXpNYxe1SdlYa2vFwNo++SfpRav5NJ76K0XwIAmDjXT19JrZMcrb7aLOTr6TFp88TwfD61Hht96Tep7n4AALpX6xifkVrH7FFVG9sNUQ2j75i+n1q/l0mullq5fwIAmEi17vG0r6U2yupk8Evp4aneYDAM9Qag9XjoU7XR5noJAOjeS1LreD2qjkq1bvKQ3TZ9K7V+P5Pa4vSoBAAwkWrzvYemIewyPcrqNrlaL/hBaWi3QA7NBunc1Hoc9KlPJJtrAkD3NkonpNbxelS5anaZW6VvpNbvaBKrZeH+NQEATKz103PSOal1wqM17+L05fSEtG1i+hyYWn/3feutCQDoXi3l1jpWj6qfJP7hHqmuEG/9riaxWmscAGCibZc+nPq8+dokVZtA/jA9P+2RmA73Tq2/7z72vAQAdKvuTvp1ah2rR1VdBcw/1N1sL091wUjr9zVpvSbVOtgAABPtZunQ1Drh0dz7Y/qPVG8Khr5W3yTbMbX+fvtarVsOAHSr9mNpHadHVS1DwT/bNdW+Lq3f2aRVd70ZRAMAE6+u2HhsOiW1Tno0v85OtY70k9LOiclRJ/uXpNbfax+7LN0lAQDdqiXbWsfqUXX7RNu0LNHx4gQAMBU2T/Up++WpdeKjhemI9I60f9ow0W9nptbfY187P904AQDduW4a5zn1T5MrZVdtWpboeHQCAJgae6ZvpdaJjxa2usr2++nV6U6pdlWnP2oplUn8UOasZBANAN16d2odp0dV7WXB6tUSHV9Mrd/fJFTnpXdNAABTo66kuF86NrVOgDSaajmF2uX8DenuabNEd66fWn9Pk1AtA1NrvgMA3dgqnZpax+lRdFiyF8maqSU6Tkit32PfOy/tkwAApkotF/GKdFFqnQRptC1Jv0rvSY9J10u1hjfj8ZLU+nuZlM5NdswHgO7UpsGtY/SoempizdSHBJ9Jrd9j3zs5XTMBAEydOsmZ1JO0aasGi99NdbX0/dNOiYVXa6SP8+qlUVVrRN8mAQDjV3cXHpxax+hRdE66emLN1N/P41KdL7V+n33uT6kG6QAAU6nWLT4ytU6E1F0npW+kN6fasORGaf3E3NStrJ9Prd/1JHZBsms+AHRjtzTOuwoPSszO7unQ1Pp99rkfp9p0EQBgKtUSHa9Pk7hh25BanA5Pn0wvTfdJtZzHeolVq80h63fW+p1OcvXmtz5EAgDG7wWpdXweVXdOzM666TWplsNr/U77Wm2ACQAw1fZOP0+tkyH1tzqxPip9Pb0rPSPVLtu15MqQ15uuf/d7pT+n1u9tGro43S0BAOO1Tvptah2fR1HduVgXjjB7t06Ttjl7LdEHADDVatmCZ6e63b91QqTJ6rJ0dPp++mh6bXpiqiH1ddI0vpnZIj031WC+9TuZti5Jd08AwHjdLI3zKtv3Juam9gb5n9T6vfaxs9OCbFRYi2QDAPRZnfT8V7rH0p+YZmekU1Jt2ldfW99XZ6VasqVvNkm3SLVZX1VXuwztSqH6sOFB6atLfwIAxuUtqZbmGJf7pS8v+5Y5eHj6SJqEc8Va0/p2aV7n34bQAMAkqHOWh6Va4mHb+gMGr3Yar2H0itWVGit+X1fRX7iar5emusJjdeoW141Xqq5g2TntskL1Ycl1U13BP3T1BuUpqa54BwDGozaO/mW64dKfRq/Ot2rD6hOW/sRc3DR9Je2w9Kd+e1N68bJvAQCm39bpv9PKt4lJc+2KVBst1kC61jWu4XQNuM9b/met/x+tWW9IQ14LHADGrQbQ4zx/qWXWfAA/P3Vhw+9T6/fbt/ZLAACDUrtyD2WdXWmS+0Kqq8cBgPGo/Shax+RR9frE/GyavpZav98+dVraMQEADMpG6Y2prmJtnSRJ6ke/STslAGD06i6k76TWMXlUPSYxP3VFeS092Pr99qmvJ8s7AwCDtG86LLVOkiT1o5NSrXsIAIzeNVLtj9E6Jo+i2pj4ton5e2Zaklq/575Um1ICAAxSbcTy5lTr+7ZOlCR130XpgQkAGL2HpNbxeFSdkXZPzN/dU+1R0vo996HjkuXWAIBBu106NrVOliT1o5cmt3ECwOgdmFrH4lH157RtYv72Tn9Prd9zHzogAQAM2mbpI6l1siSpH/1PqjsYAIDR2TD9NrWOxaPqD8kgemHskvq6GXstwXLdBAAwePdNtYNz66RJUvcdmq6VAIDRqWPtWal1LB5VtV+LQfTCqM2d/5Jav+eu+3ZydxsAQGyXvpRaJ02Suu+8VDvqewMDAKNTawyPe++UGkRvk5i/HdIRqfV77rpaexwAgKjh1uNTDbtaJ06Suu9TacsEAIzGK1PrGDzKfp+2T8zf1dPhqfV77rIT06YJAIDldk2HpNbJk6Tuq813bp8AgIW3KP1fah2DR9nf0g0S87dj6uMm7C9JAACsoE6+n58uTa0TKEndVrcK127r6yUAYGHVXUdHp9YxeJSdk+6cmL890qmp9XvuqtPTxgkAgJXslf6YWidRkrrvl+k6CQBYWDdMXSxTd3l6XGL+9knnptbvuauekwAAaNgoHZhaJ1GSuu/C9KRk00IAWFj7pcWpdfwddW9I6yTm53apT3d31trQ6ycAAFahrsi4KLVOpiR135fTLgkAWDhPSa3j7jiqfVpqfWPm57Gp9fvtqnpMAQCwGrU8x59S62RKUvfVB0W16Y0rbABg4bwptY674+i0VFdkMz9vTq3fbxcdk1zlDgBwFTZJn0itEypJ/egv6a4JAJi/2rT7s6l1zB1Xr08Gl3O3dvpqav1uu+jRCQCAq1Brz9ZtZJek1kmVpH70mXSNBADMz4bpZ6l1vB1XP017JuZm09SXuzrrn6M+3AAAYA3UjtN/Ta0TK0n96IL0wrReAgDmbrt0dGodb8dVbbL3srRuYvb2Tn25kObOCQCANbRZqqstWydWkvpTXXHjzQ4AzM9u6cTUOtaOs9+lGydm76mp9Tsddx9NAADMQi3P8Yx0WWqdYEnqT59KlugAgLmrJTFOT63j7DhbnN6YNkqsuXrv0oeLaM5P/u4AAObgpunY1DrJktSfLk5vTdskAGD29k3npNZxdtwdnx6RarjKmtk8/T21fp/jrP7eAACYg63T91LrJEtSv6orcF6T6o0YADA7t0q190LrGNtFtXHiLRJr5u6p9XscZwcnAADmqDZKeV9qnWhJ6l9nptq80C2hADA7d0p92ehupo8nS2+tmVqXufU7HFdL0vYJAIB5eHqqtepaJ1yS+tfJqdZ3Xy8BAGvmnuny1Dq2dtWF6YBUdymyalulU1Lrdziunpv+H2uqAADMzZ3TZ9OWS3+C8aq1j2ud8lrz77RUmwit2Bmp3qTV1fsrV29Kdk3XS7Xu415pKO8LjkuvTgel+iAJAFi9+6Q65+3bB7m19NZ/prens+oP+CcPSZ9e9m0nfpfqXBMAgHm6dvpzan3yL82nuv31yPSd9KH00vTwdMt09bSQQ+Mt0kPTl9JlqfXPM239KT04LUoAwOrdJdWH261jatedm2ofiDqf4crqfPGHqfV7G1e7p6VcCQ0AMD91wvvJtP/Sn4alljioXctrB/UampYN0sYrtcnyr2snlqnfXV3FXL+/+rpi9Wd1NXOduI9bXdn/wFQ7mt8hTfv7hT+kt6RPpbrdGABou3X6etps6U/9U8Pod6T3pNoTgmVukn6Zujqne0qqCyoMoQEAFkANV9+cnrf0p+lWSz/U1SZfSLXO3Jqq88710+aploOoYWd9XfH7lb9ummqAPfN1EtbzrTdA9canlsOoTkgrD5hPTJemvtsjvSw9Ok37Bwj191RvXOtNUt3eCwD8sxunb6U+r8d8UTow1XH9mPoDlm5S+Nhl345dXaxTFzcYQgMALKAnpPenWnd3GtVSDTdMtUxEF2oIvfJgesWvrT+rK7DXSTVEbX2t5RhqbeBWdWVsdcHy6jbUlb+enWrYXIPnWo+wfkfTpm6jrGH0Y9K0D6PrQ4T3pVpjsq5WBwCu7PqplgvbYelP/XVFqosm3pp+Xn8wYDulo1NdEDJup6Z6rHRxhx8AwFS7TaqrhVdcC21a+nFiuK6VPpxqQN96fExTdaV6/bvW5o0AwJXVB9S1QXLrGNrHfpTum4a8F8R7U+t3M472TAAAjMA10+GpdRI2yR2a4Abpu6n1GJnGvpxqHUwA4B+2T7XWcOvY2dfqauAXpm3T0NT7k7rDr/V7GXXPSAAAjEitafyT1DoRm9QuThsmqGX9HpxqjevWY2Ua+2l6QKplXACAq11to1RLXrSOm32u7ng6KNWHzENaqvgjqfX7GHWfSwAAjFCdmH8ttU7GJrWHJJhRa28fkGot7NbjZRo7Kb0u7ZIAYOhqiYu3pNYxcxI6LD0t1V4i0+46qfU7GHW1d8qQl0IBABiL2qSwdqRunZBNYockWFm9qTk4tR4z01pteFQfMt07uToagKF7SprkfSPOTx9Mt0rTfHV0bSrZ+vcfdTdKAACMWJ3Ivim1Tsgmsdp8EVZWj/MHppNT63EzzdWyJK9K10gAMFR3S+em1rFykvpLeknaKU2bB6XWv/Ooe3wCAGBMnpdaJ2WTVl0NPaT185idLdIHUuuxM+0tSbWR4T3S2gkAhqY2MD4ytY6Tk1Yd17+RHpamZV+UukvzlNT69x1lb08AAIzRo1JXO1MvZHUVBazO7dKfU+vxM4SOS69Iro4GYGg2T59PrePjpHZOel+qzQwnfX3jLu7Q/HYCAGDM7p4uTK0TtEmpNmerNxiwOhuk16YhbVy4crV29A9SrZW5VQKAIai75p6bpuHii5WrD5rfnG6cJvHuwJum1r/XKDs1AQDQgVuk2im6dZI2Kb0nwZqoW3N/mlqPoyFVw/ivpLqtd+MEANOurhw+MbWOi9NQrR/9mrRnmhQ1OP9bav37jDIAADpSJ6t/T62TtEmorvCsYTqsibp19RlpGjYsWoguSAelWj+61mcEgGm1Xfpuah0Pp6nfpRen3VLf1RrNrX+HUQYAQIdqvdi/ptaJ2iT0+2SAxmzskD6ZWo+noXZG+q90mzTp60wCQEtt2PvqtDi1joXT1m/SK9PeqY9Ldtw2tf65RxkAAB2rQfRRqXWyNgm9IMFs3S1N8uN+VNXdEW9NtbHjOgkApkmtR3xEah0Dp7VjUl15XMf2Gsb3wXrpotT65x1VAAD0wCQPomuTxV0TzFZtXFhXRV2aWo+toVfrxv9PelDaNAHANKjj/1tSLe3WOv5Nc6enA9N90oapS+NeIgUAgJ7YOR2dWidtfe//0iTuDk4/XCd9J7UeW1pWDeq/mWpd7V0SAEy62rRwyHdF1YUcX0iPSVulcXtVav1zjSoAAHqkhkt1y17rxK3vPTjBXNWHGI9Ip6bW40tX7repduO/SfIBEACTauP07tQ61g2pWiv7e+nf0jXTONwxtf5ZRhUAAD1TJ57HptbJW587OW2eYD62TLVJ3xBv0Z1rJ6T3pwemrRMATJq6Kvp3qXWcG2K1seEr0g3TqD5s3ia1/rdHFQAAPTSpg+j3JlgIt0h1tW/rcaZVV8P7euNaa23un+oKMwCYBLUhby07dXZqHeOGWi3X97Y0ik2La43q1v/mKAIAoKdqs7/jUuskrq/VAOxWCRZC7SD/xFRX2bceb7rqLks/TLXu421S7YYPXdkkbbfsW4BVqteJD6fWcW3o1YD+f1MtYbYQ60gfklr/O6MIAIAe2y1N2iD6sLRugoVSg6tXp9rAp/WY05p3QTo4vSDtmxYlGIVNU12N/5L06fSXNLPMzs/To5JjBbA6dVfUr9LKxzIta0n6UXpRukGay7IdtZxX6797FAEA0HPXSn9PrZO5vvbCBAttx/SRZL3ohauuqPpGqiF/DQxrTW6Yixoo15qu9Vj6cbo8tR5zK1a3mNda5jbXBFal7op6ZDoytV5H9I/+nPZMs1ED7NZ/1ygCAGAC7J5OSq0Tuj52UaqruGEU9k7fSq3Hnubfn9J/p39NN0oLvf4k06EGx9dP/5a+ms5PrcfTmlTP5+slgFWpY9FjU3141XodGXrfTNdOs/WY1PrvG0UAAEyIGrydm1ondX2sbvl3dRujUo+tunL3j6n1+NPCVUt4fC8dkO6TrOk7TPWcu256avpUOiW1Hi9zra6cfnOqZTwAVqXuuqj9Iv6WWq8lQ+uE9OA013Pue6XWf+8oAgBggtwhXZpaJ3Z97KEJRqmujHpKWuiBmFZfLRH0f+kNqTZH2itZ33e61ECjrqqr51dtgjWuu3FOTA9PPsQEVqc22q07dv6aWq8l017dffL6NN8P7m6bWv/9owgAgAlTVztMypq4J6ctEoxavQl7bZrPkgCaX5el2pj0oFRrTN49XSMZJk6G+hChPkx4UvpEqmFw6+95XP0g1UZbAKtTG+zW8aY+GB3CnhF1d1J9ALxNWgg3Sa3/nVEEAMAEemZqndz1sfcmGJd6U1bLRhhG96ez0iHp3ekZab+0R3LldHc2S3X1Wx1LPpx+lS5Jrb+/Lqs7f+oDjdqYDOCq1LHlbak23W29pkxyNXx+Y9o2LaRa7q/1vzeKAACYUHULXusEr2/VVSm3SDBOhtH9b3E6KtVmSvVh1XNTrTldm91tkJi/ukJwl3Tv9Ir0+TSJm3r9LF0nAayJjVMtJVR3VCxJrdeVSemIVK/fCz18nrFPav3vLnhuiwIAmFx1LndgetzSn/rt9+mmqYZOME41jH5eelbapP6AiVGbLdWQuoamtQZ1Le9T6xLX1+q0VMOFIavjQA0mdk27Nb5eM62fpkFdqf3iVFfU14ebAGuizgNq8737pbulDVPf1aaLn0y1CewfUg1xR+Xm6efLvh0tQ2gAgMlWt7N/Kd1j6U/99oJUt0hCFwyjp08NIk9NKw6mZ76f+VpLgZybzkuXp0lRr+1bL68euyt+v1Nacdi8URqSWtrlCemYpT8BrLl6vbxrqoF0fa3X0z6o41ntqVCvbzV4rqHwKAfPK7pj+t6yb0fLEBoAYPLVLYffTX1f8uKiVLfZH7f0J+iGYfRwXZxqIL26alhd1SaLdefGytUge1V/XusW11XHVS0n0vp+5Z/rMbjioHnma63ZzKpdmOqDzQ+kcQ1qgOmzXdo31eZ8N15efcA3avVB6aHLq4Hzr1O9rnXhAamWaho5Q2gAgOlQg4sfp+su/am/vprumwwN6NrMMLo2yjPwg8n0rfSkdPzSnwDmb8tU6yRfI22/Qjus8H39Z+pctq5gnvm64vd1F86JK1VLTNXXWmKqvu+Lf03vX/YtAACsmbotu66sqBPgPnf/BH1RA+jnpLq1v/V4ldTv6gr2xyQX2QHM3utS67V1FAEAMEVulmrzptaJX1+qqz82TdAntZRC3ZL6o9R63Erqd59I7moAmJ2Pp9Zr6igCAGDK1BVhrRO/PvXOBH1101QDrVrnt/X4ldTP6o6GWyYA1szMJojjCACAKfSO1Dr560tLUm0CA31Wu+a/IdXajq3HsaT+VRtFviTV3Q0ArNqidH5qvZaOIgAAptA66TupdQLYl36VDAmYBBunp6W/pNZjWVL/+l6qD5IAaLtOar1+jioAAKbU1unY1DoJ7Eu1IzdMirpiaP/0uXRZaj2mJfWnM9J9EgD/7Imp9do5is5MAABMsb3Thal1MtiH6oS0huUwabZNz0uHp9ZjW1J/ek/aMAHwD+PclLA2fgYAYMo9OLVOBvvS+xJMqrVSbYT2oTTOdRUlza4/pBskAJadvxyfWq+Xo+iDCQCAAXh9ap0Q9qEr0o0TTLpN0uPTj1PrsS6p2y5OT001fAEYsmun1uvkqHpOAgBgAGot26+l1klhH/ppqn9GmBbXS29Op6bWY15Sd30xWQoKGLIXptbr46i6cwIAYCA2T39OrRPDPvTYBNNm3XT3dGA6K7Ue+5LG3wnpjglgiH6TWq+No2hxqrvFAAAYkLo687zUOkHsurpitAblMK1qIL1f+nCqTTlbzwNJ46uWgzog1XMTYCiuk1qviaPqlwkAgAF6eGqdIPahdyQYghp63TXVRj2np9bzQdJ4+kXaIwEMwStT67VwVDm/BwAYsI+m1kli19XtenslGJJ1Uq2V+P50Wmo9NySNtvPTY5JNC4FpVh+C13JErdfBUfWABADAQG2ajkytE8Wu+34yBGCoaiB9p/T2dHhqPUckja7/TZaGAqbVQ1PrtW+UXT0BADBgN0mXpdbJYtfVCTJwtavtnJ6UPpvOTq3ni6SF7dj0Lwlg2vwktV73RlVd9AIAAFd7fmqdMHZd3SZoF224srpK+lbp1enQtCS1nj+S5l89v96SNkwA0+CWqfV6N8oOTAAAcLVF6RupddLYda9PwKptlR6S6g3eian1PJI0v/6UanADMOm+m1qvc6Ps8QkAAJaqddpOTa0Txy67OO2SgKtW66jvkWpjtQ+kP6QrUuu5JWl21VXRb0obJIBJdJfUen0bdXVuAgAA/89+qXXi2HW1QRQwN1ukem6/Jn07nZ9azzNJa9YR6eYJYJLUB9W/TK3XtVFWH4gDAMA/eWtqnUB2ndugYWHUmtL7pKeng9IxqfWck7Tq6qroNyZXRQOT4pGp9Xo26l6V/p+ahAMAQFkv/TTdZOlP/fGzdOtUJ7PAwtou3TDtvUI3SOsnYNXqquha6/QXS38C6KfaP6LWtq/j/bjtlQ5f9q0hNAAAV3bt9Nu08dKf+uPh6VPLvgVGrK6YrjUcZ4bSM0PqXRPTq9bhP3cVXZRqjfGaIaybNkybpxpu7JB2Xv5nQ1O/k/ekV6Tz6g8AeuaD6cnLvh2rGnxff9m3yxhCAwCwsrpV/73Lvu2Nv6frpRqSAN2ooWNd1VQD6euka63QRol+OjOdmE5azdez0mVprmq2sGOqgUPdTXOrdLtU65IPQf0en5W+lNy1A/TFbdKPln07dq9Lr1z27TKG0AAArGxR+kG67dKf+uOl6Q3LvgV6pN5XbptWHEpXuy3/WlfJeu+58Gq4fHKqIXJ9XfH7Ff/sktSFtVOt6X+/9LB0jTTtvpJqGF0fnAJ0qT44/k2q43AXbpQOW/btMk4EAABoqascf5/6tPHSBamWCzll6U/ApKj15q+Z6o1wXS1b61Ku2NWXf61Bdi0FMlS1tMM56exUVybPDJlbw+V6Hbw0TYr6cPOu6WnpvvUHU+zCVFf//WdaXH8AMGY17/1keujSn8bvyFR3MF7pzhBDaAAAVuWF6U3Lvu2ND6WnLPsWmDI1qKzlG1YeUlfbpFqrfpMVvs604s/139GFGgjXFcdVLRs087UGyjND5ZW/X/nPzk81iJ52+6S6TfteS3+aXr9Ldbz65dKfAMan1oCutaC7ckB62bJv/8EQGgCAVakrEn+ebrz0p36oAc2+6Uq39wFEvb+tuzdWHlLXRnr1f6tqSL2m39fXy9OKg+WVB81VDaCHMDxeaLVu9H+kOy39aTrVVYC1x0JtXFhXuQOMWu3bUOfvXd7NWO8daqNzAABYY7WeWw1h6o10X/pOqgERAJOvhtCHptbr/bR0eqqromudbIBR2T7VmvSt16FxVetQO08HAGBO6rbp1klml037bdwAQ1JXndd60bUkSes1f1qqJTpunwAW2oaproBuvfaMs8cnAACYk/XTEal1otlVhydXlAFMl9rA8hup9bo/TX0m1b8rwEKoD/I+nVqvN+PsjFTDcAAAmLNau7PWPG2dcHaVKy0Apk/dxv3YVBs2tl77p6VaV/y1qdYwB5ires18e2q9zoy7NyQAAJi3d6bWCWdXHZ9cbQEwnXZIX0it1/9p6oT0iGQNVWC26nXjgNR6bRl3S5I7PAAAWBCbpGNT68Szq16QAJhONWB5dLogtY4B01St5XrHBLCmXpFaryddVB8aAgDAgrlrap14dtVZacsEwPS6dvp1ah0Hpq2D0z4JYHVenFqvIV3lQzQAABbc51Pr5LOr3pgAmG61Se47Uus4MI0dlHZLACuqO0TenFqvG131x2RJIQAAFly9Kb4ktU5Cu6g2d9opATD97plOT63jwbR1WfrPtF0CWDd9NLVeL7rsqQkAAEbidal1EtpVH0oADMOO6XupdTyYxs5Pr0qbJmCYNkpfTa3XiC47NW2cAABgJOpk8/jUOhntotqRe88EwDCsnV6WFqfWcWEaOy29MNVGwcBw7Jx+mVqvC133bwkAAEbq4al1MtpVX0wADMu/pL+l1nFhWqvlSGpTMldGw/S7baqrjVuvBV13XKr1+gEAYKRqA5IfpdZJaVfdKgEwLFukz6TWcWGaOzPV1eCbJWD61FrLl6fW878PPT4BAMBY7JuuSK0T0y76YbI7N8Dw1Gv/k9JFqXV8mObOSq9Imydg8tWSOwem1vO9L/05rZMAAGBsPphaJ6dddc8EwDDV/gC/T63jw7R3Tnp12jIBk+km6cjUeo73qQcnAAAYq21TvfFtnaB20a+Tq6EBhmuD9O7UOkYMofPT29MuCZgMi9IL0mWp9bzuU79J9c8LAABj9+zUOkntqvslAIbtPqnWTW4dJ4ZQrSV7ULpRAvpr1/Tt1Hoe97H9EwAAdGLddHhqnah20WHJFRoA7JS+kVrHiiH1zXSX5E4h6I+103PThan1vO1jn0sAANCpu6XWyWpXPSQBQA1en5IuSK3jxZD6bXpEqg+Pge7UHQq/TK3naV+r5fd2SAAA0Lk+3Up4RKorTACgXCsdklrHjKF1XPr3tHUCxmfD9Ma0OLWem32uPswDAIBeuFlqnbR21aMSAMyopZrq9vdLUuu4MbQuTv+dbpqA0bpTOiq1not974fJUncAAPTKZ1Pr5LWL/prWSQCwoj3TL1Lr2DHUDk2PThskYOHskT6fWs+7SejSdL0EAAC9ct3Up1sMn5AAYGX1IeXL0+WpdfwYaqenN6RrJmDutkxvT5el1nNtUnplAgCAXvpgap3EdtGxab0EAC37pF+n1jFkyC1JX073Su4qgjVX553PSWel1nNrkvpDch4NAEBv7ZRqncnWyWwX/WsCgFWpIevz0oWpdRwZeienNyW35MOqrZXun2o5uNbzaNI6P3nOAwDQe/VmtXVC20XHJ2tcAnBVdk0Hp9axRMv6WXpy2iwBy4bP90j13Gg9Zya1hyQAAOi9rdI5qXVS20XPSgBwVWqg9LB0amodT7Ssi9L/pDumRQmGpl4r7pN+lVrPkUnunQkAACbGS1LrxLaLTkzrJwBYE/Vh6odT65iiK1f7LxyQbphqMAfTrD50eUD6bWo9Hya9nybrQAMAMFE2Siel1gluFz0lAcBs3CH9JbWOK/rnDk8vT3skmCa1dvxDU23W13rsT0Onp2skAACYOE9NrZPcLqortdZNADAbta/Aq1KfNt2dhH6Znp8MtZhk26QXp+NS63E+LV2R7pIAAGAi1dC3T7uEPyYBwFzUxoVfSK3ji1ZdDbcOSU9POyaYBPukj6ShfPj0zAQAABOtbl1snex20Z/T2gkA5upuqY4nreOMrrqfp9o3Ys9kDWn6pC6eeEj6UWo9dqe1VyQAAJh4tYHLb1LrpLeL6s0FAMxHbdz1gnR+ah1rtGYdmd6c/iX5kJiu1Acib0y1kXXrcTrNvSP5MAgAgKmxX2qd+HbR75OTbQAWQi0vcVBqHW80u05NH0r3TpskGKVa67mWoPhFaj0eh9BHU10sAgAAU6OGvt9LrRPgLqo3uACwUG6bfpdaxxzNvsvS91NtCHfjZFDGQqg7GO6fvpjqMdZ67A2lL6V1EgAATJ1bpNZJcBfVepSuhgZgIdVyEo9LJ6TWsUdz77T0ifTYZHNDZmPDdJ90YDoztR5fQ6suDNkgAQDA1PpCap0Md9FdEwAstI3SS9N5qXX80fz7Q3p7um/aOsGK6jHxmFTnnRem1mNoqH0zWe4GAICpVxu/LEmtk+Jxd0gCgFHZLr0nXZ5axyEtXH9M/5UennZKDEvd3bZHenaqZVwWp9bjZOjV+vW1JAkAAAzCR1LrxLiLag1PABil66Q+3Qk0hI5JtenaE9N1kzWlp8/26RGpziuPS63Hgf7R25LnAQAAg7JzuiS1TpDH3dcTAIzDbdLPUut4pNF2TvpuemN6YLpmsjfEZNks1cbS70y1HEvr71ntXpA65ckGwJrYNO2edkh14F83lRog1Tp3p6bafOWsVAc4gDXx1vT8Zd927oapbuMFgFGrWUytY/zaVMcfunN6+uXyfpV+nU5J3tN0r67YrSXcalPrmfZKtfkna66WJXlC+vjSnzpkCA3Aqlw7PTndM9XBf02OGTWQ/nM6LNVJXF3lUUOdKxLAymrDmLpVtj7c6trH0uOWfQsAY1FDtgenV6fr1R/QC2emeg+zYoensxOjUe81a2mNm6UaNt9y+fd1MRRzd356aDp46U8A0DO1SUHtMr1Qm4bVSdxn06PTVglgRS9PrdeOcXdZsokRAF2oKzvrXPno1DpGqR/VnZ/fSHUnV60zfYdUy4tZY3d2tkm3T09PtZFkbRJ9Rmr9zjX3fpvqwrLecCU0ACuqE6jPp/st/Wnh1WD7x+nT6X/TuQkYtk3SUenqS3/q1lvSC5d9CwBjV0vePTa9Iu1Sf8BEqA+yj031IcKK1d1ef0sXpaHZIu2Wdl3+tbp+ukHqwznftPtgek66eOlPPWEIDcCK6tPo9y77duTqZOyTqQ6QtQZbfVoLDNMz0nuWfdupWlKormiqrwDQlfVTXWlbdwvVnixMtrrw5qR04vKvrepK4Hp/1Pf3ROukWk5tu7Tt8q81VK5NHlccOm+eGL8L07+mTyz9qWcMoQGYUbcB1if4NYAZt9+lGkbXwdLwB4anlgH6U7rW0p+6VTuHv23ZtwDQqQ1S7VdQd+nUYI/pdnmqdadX7pwVvq8rW2tz+NVV/z11h+uK1Xu9lf9sw7RxqrvSVvW1hskzw+b6WssrmiX2U61bXmvM1zk1APRabQCx4hpSXVSf3H447Z2AYXlkar0ujLvjU90ODQB9UVefPiLV5t+tY5ekYffRVB8cAMBEqNvhWwe0rqrNDGvdMGAY6gqdunKj9Xow7mpzKADom7oC9V7pJ6l1/JI0rOriiXsnAJgob0qtA1uXXZEOSr3a1RcYmbrKq/VaMO7qSjO3mgLQV3WMul06OLWOY5Kmv9pPZbMEABPnfal1cOtDi9OBqTa6AKZXXQ3959R6HRh3+yUA6Lt9U232XefLreOZpOmq7hy8dQKAidXnIfRMl6X657xGAqZTX9aG/k4CgElRm4u/IZ2ZWsc1SZNdvRd+TVo/AcBEe3tqHez6WO36/OpUO4YD06Wuhv5Laj33x90+CQAmyUbpKenw1Dq2SZq8fpz2SgAwFV6aWge8PndUcss8TJ9HpdZzftx9JAHAJKp1o++avpZaxzhJ/a+WqbtvslcJAFPl0al14JuEPpt2SsB0WCcdmVrP93F2cdo6AcAku056d7ogtY53kvrVyanuaKhzYgCYOjdOrQPgpHR+el5yoIbp8JjUeq6PuxclAJgGm6YabP06tY55krqt3tO+PG2cAGBqrZcuSq2D4ST1+2S3YJh89YHSX1PreT7Ojks+3AJg2twkfSDV0Kt1/JM0vi5PdbfCdgkABuHrqXVQnMQ+nLZMwOR6bGo9v8fdAxIATCNXR0vdVRvuvy9dKwHAoPTl9veF6vh05wRMproCuTYgbT2/x9n3EwBMO1dHS+PpvPTGtH0CgEGqJTlqcNs6UE5yb08bJGDyPC61ntfj7oYJAIZgo/SI9I20JLWOi5Jm3+nppWmLBACD95zUOmBOen9MN0rAZKmroY9Jref1OPtgAoCh2TG9IP0htY6Pkq662mPkWak+4AEAltsknZFaB89J77L0wrR2AibH01LrOT3OauPWrRIADNFaaZ/0tnRKah0rJV25H6QHp3UTANBQB8rWQXRaOiRdMwGToZbT6cMb3roSDACGru5Suns6KJ2bWsdMaahdkGqzwb0SALAGPpxaB9VpqU6YH53qqg6g/16UWs/lcXZscicFAPzD+ule6WPpnNQ6fkpD6M/p39LmCQCYhY3TX1LrADtNfSptmoB+2yz14c3tvRMA8M9qk/O6QvrAdFZqHUelaaqWe/x8uktycRMAzMMe6YTUOuBOU39Keyag3w5IrefwOPtqAgBWr9bA3S99KJ2eWsdUaVL7Wao9S7ZOAMACqUH08al18J2mau2uhySgv7ZLF6fWc3hcLUk7JwBgzdRSVrdMr0+/T63jq9T3jkuvS9dJAMCI7J6GMIiu3p7sXgz99Z7Ueu6Os1clAGBudkl1Fen/pUtS61gr9aHaR6iWl7l9WpQAgDG4RqrbjloH52nrh2mHBPTPrmlxaj13x1V9KGeDQgCYv9qH5j7pg2kIywCq/52W6vG4f6p1zgGADtRB+N2pdbCetk5Ot01A/3w8tZ634+yeCQBYOLWx23XTM9IX0tmpdQyWFrq6wOBdqa54dqEBAPTII9KFqXUAn6bqasvnJDsdQ7/cILWes+PsywkAGJ0aBt4svTh9O3W9L4Smqz+kN6Z6jHm/BwA9du303dQ6oE9bn0qbJKA/agjcer6Oq9qgcKcEAIzHBulO6T/S99NFqXWMllqdkT6ZHp+cwwHAhKlPjB+dTk+tA/009ce0WwL64V9S67k6zl6RAIBu1GbidRXrs9Nn0ompdbzWMLs81V4/L0v1OLHMBgBMga1T7RrcOvhPU7VJxa0S0L36EOwXqfVcHVfHJW9oAKAf6tygNjB+ZPqv9LtUg8jWMVzTV10ZX1fI15Xyd0+bJQBgSt0yHZJaJwXT0iXpYQno3sNT63k6zupNDgDQT7WER10F+6/pg+lX6dLUOqZrsjopfTbVHj71d1xXxgMAA1JXINwjHZZaJwvT0iuTDSygW/Vmo+tbb7+YAIDJsV7aNz0p1RXTh6bzU+s4r350ZvpOekuqTfJrmUTvxSaMvzAARqVuUa8ThNela9YfTKFPpDp5raujgW68JB2w7NtO1AaFO6ZargcAmEw1H9s5XX95N1jhe8s6jNfx6bcrVX9Ww2gmmCE0AKO2fnpaenmqtaOnzU/S/VNtzgiMX72unJDqdtuu1G2g71r2LQAwRWputlOaGUzvnuoq3Gst/1rvdZi9WhLlqPSXdOTy6vuqrnpmChlCAzAum6cXpuemDesPpsgx6V7pT0t/AsbtA+kpy77txK/TTZd9CwAMxKK0fZoZSNfXme+vkXZIXX5I3qW6avmUVFcwV3XBwNFpZthcf1Z3kzEghtAAjFvdtv7q9MRUJ27T4tz0oFRrlQHjVVcnHb7s287slbr+ZwAA+qNmbnUhTg2jV9U2acu0Rdo49d2Fqa5UnumMVHeEzgyaZ4bOtWng5Qn+H0NoALpyvVTruNZSFtOiPs1/eqqdt4Hx+kbab9m3nXhTevGybwEAZq02TKxh9MxQur7OVAPquqr6qqqLfGY287tihe9X/rPa0+aidPHyrzOt/PNZqQbNM0Nne+EAABPrVulHaeUTpEnu9ckHvTBe+6fW83Fc1VU/tSErAAAAAD1UA9t7p7qVvTXcmcTqamgDKRifuvKn1mVvPR/H1Z0TAAAAAD1WQ9snpFpPrDXgmbQ+n+q2OGA8ajmc1nNxXH0sAQAAADABNky1eeGlqTXomaS+lzZLwOjVc602zGk9F8fRBWkSNhUCAAAAYLnavPCQ1Br2TFK/TtslYPQ+nFrPw3H1qAQAAADABKl1Xp+Yamfm1sBnUvpr2jUBo3Xz1HoOjqtvJQAAAAAm0NXTJ1Jr6DMpnZT2SsDo1Eanv0ut5+A4WpJ2SAAAAABMqP3SMak1/JmEzk63TsDoPC21nn/j6pkJAAAAgAm2UXpjWpxaA6C+d1G6ZwJGY/PU5QaFP0wAAAAATIG906GpNQTqezVAt4EZjM5HUuu5N46uSDsmAAAAAKbA2ukZ6bzUGgb1vacmYOHdIrWec+PqWQkAAACAKXKN9O3UGgb1PevHwsLreoNCS3IAAAAATKFF6dnpktQaCvW55yZgYT09tZ5v48iSHAAAAABT7IbpsNQaDPW5FyVg4WyVLkut59s4siQHAAAAwBTbIL01tQZDfe7lCVg4X0qt59o4+lECAAAAYMrdOZ2UWgOivvbqVOvZAvP34NR6no2rnRIAAAAAU+7q6TupNSDqa69PBtEwfxumc1PreTaO/i0BAAAAMABrp7rCuDYLaw2K+tibk0E0zN+BqfUcG0c/TAAAAAAMyF3Taak1LOpj70gG0TA/tSxP6/k1jpak2iARAAAAgAGpNVprw7DWwKiPvTsZRMPc1Z0QJ6bW82scPSIBAAAAMDDrpnem1sCoj70/LUrA3Lw1tZ5b4+h/EwAAAAAD9ZR0eWoNjvrW+5IromFu9kmt59U4OiutkwAAAAAYqDumGhK1hkd96+3JIBpmr543R6TW82oc3TYBAMAg1fp4ADB0f0tfSHdL29Qf9NitUl1R+b2lPwGzUevBdzUMPj19Z9m3AAAAAAzVFulbqXUVY996WQJm55ap9XwaR39MAAAAALD0KuP3pNYQqW89NwFrrjb3PCW1nk/jaLcEAAAAAEs9Iy1OrUFSn3pqAtbch1LruTSOnpkAAAAA4P+5azontYZJfeqxCVgz90qt59E4+kYCAAAAgCu5XjoqtQZKfWlJemgCrtqG6cLUei6NuovTBgkAAAAArmTr9P3UGir1pcvTfRNw1b6YWs+jcXSHBAAAAAD/ZL30wdQaKvWlS9N+CVi9x6fWc2gcvSYBAAAAQNNa6T9Sa7DUl+p2f1dawuptl1rPn3H0owQAAAAAq/XvqTVc6ksXpH9JwKr9PrWeP6Ouls7ZOAEAAADAaj05XZFaQ6Y+dE7aOwFt/5laz51xZNkcAAAAANbIw1Jd1dgaMvWhk9JuCfhnD0it5804elMCAAAAgDVyz1TrMLcGTX3or6nWvwWubJvUes6Mo18mAAAAAFhjt0/npdawqQ/9Om2WgCv7Q2o9Z0bdkrRlAgAAAIA1dtN0RmoNnPrQ99IGCfiHd6fW82Uc3TcBAMAgLFr+FQCYn1+l26Vah7mP7pgOSmsv/Qkohyz/2oXbLP8KAAAAALNSGwEenVpXPvah96e1ErBsvfTW82QcdTkABwAAAGDC7Zj+mFqDpz702gQsU5t3tp4no+7CtE4CAAAAgDnZOv0itYZPfehZCbja1T6fWs+RcXTDBAAAU8+a0AAwGmemO6cfLP2pf/4zPXzZtzBohy3/2oWbL/8KAAAAAHO2UapBdOsqyK67PO2XYMjun1rPj3H0gQQAAAAA87ZJ+mlqDaG67oJ0iwRDtXtqPTfG0W8TAAAAACyIzdMvU2sQ1XW1dMieCYaolqc7P7WeG6Nucaq7JQAAAABgQWyVfp9aw6iu+1vaPsEQdXmnwq0TAABMNRsTAsD4nJXuko5Y+lO/XDN9LW289CcYli43J7zZ8q8AADC1DKEBYLxOTzWI/uvSn/rlJumTae2lP8FwHLn8axdusPwrAABMLUNoABi/k9OdUy2B0Tf3Tu9Kay39CYbhhOVfu2A9dgAAAABGZrd0fGqtE9t1z0swFLUuc+t5MI5qY1Af+gAAAAAwMtdOdWV0azjVZVekByYYgl1T63kwrrZLAAAAADAy10+npdZwqssuTrdKMO3WS63nwLi6fQIAAACAkbpROiu1BlRdVhsp7pFg2p2aWs+BcfTUBAAAU8vGhADQD79Pd0vnLf2pP7ZJX09bL/0JppfNCQEAYEQMoQGgP36V9k8XLv2pP2rd6i+nDZb+BNOp1mbviiE0AAAAAGNV68NelFq37XfZp5MPsJlWn02tx/04Oi4BAAAAwFjdPS1OrYFVl70xwTQ6KLUe8+Po8uQDHgAAAADG7nGpNbDqun9NMG0OTK3H+7jaLgEAAADA2L0ktQZWXbYk3SPBNHl/aj3ex9WNEgAATCW3/QFAv9XyF+9Z9m1v1PnDp9INlv4E0+Gy5V+7suPyrwAAMHUMoQGg3+oKyeek2jStTzZNX03bLP0JJt+ly792ZYflXwEAYOoYQgNA/9XyF49JP1j6U3/slj6f1lv6E0y22gi0S4bQAABMLUNoAJgMl6T7pcOW/tQft0vvTWst/Qkm12bLv3bFchwAAEwtQ2gAmBznprunvy/9qT+elJ697FuYWFst/9oVQ2gAAAAAeuN66cxU60X3pVoyZP8Ek+obqfXYHlc/TAAAMJVcCQ0Ak+fP6V7p4qU/9UOdU3w67bn0J5g8XV8JvcnyrwAAAADQGzWIrs3UWldVdtVRaesEk+avqfWYHlf14RIAAAAA9M4TU2ug1WXfS+smmCRdL3FzbAIAAACAXnp5ag21uux9aa0Ek2CjdEVqPZbH1fEJAAAAAHqphr3/lVqDrS57ZoJJcJPUegyPsxMSAAAAAPTW2unzqTXc6qpar/quCfrusan1GB5nf0sAADCVaid7AGDyLUmPTD9a+lM/1GD8M+k6S3+C/tpr+dcuXbb8KwAATB1DaACYHpek+6Y/Lf2pH7ZIX01bLv0J+qkPQ+iLl38FAAAAgN67Vjo9tW7576pvp3US9FFtCth63I6znyQAAAAAmBj/kurK6Nawq6vekqBvtkmtx+u4+1oCAAAAgIny8NQadnVZ/TNBn/TlefLRBAAAU8ma0AAwvT6ZXrXs2974SLrRsm+hF/Zb/rVrpy7/CgAAAAATZa308dS68rKrjklbJ+haPT9OTq3H6bh7VgIAAACAibR++lFqDb666lvJRoV0ra7Kbz0+u+h+CQAAAAAmVm2+dnRqDb+66k0JuvTC1HpsdtENEgAAAABMtOulc1JrANZVD03QlR+n1uNy3C1JGyQAAAAAmHh3Tpen1iCsiy5MeycYt/pQpvWY7KIjEwAAAABMjSel1iCsq2qZkK0SjNNbU+vx2EWfTwAAAAAwVWo95tYwrKu+mdZOMA61WefpqfVY7KKXJQAAAACYKotSXX3ZGoh11RsSjEOtRd56DHZVLZMDAAAAAFNno/Sr1BqKddWDE4zad1Lr8ddFi9MmCQAAAACm0o7p+NQajnVRbVR4wwSjctPUeux11aEJAAAAAKbajdL5qTUg66Kj0pYJFtpa6Qep9bjrqgMSAAAAAEy9e6YlqTUk66KDk40KWWj3Sa3HW5ftmwAAAABgEP4ttYZkXfW6BAtl3fTn1HqsddWRqa7OBgAAAIBBqGHYe1NrWNZVd0+wEJ6dWo+xLvNBCwAAAACDs076VmoNzLrozHTNBPOxd7oktR5jXbZXAgAAAIDB2SodnVpDsy76eVo/wVxsnP6UWo+tLjs8AQAAAMBg1RWaF6TW8KyL3p1gLg5MrcdU170yAQAAAMCg3T+1hmdd9bAEs/HI1Hos9aHrJgAAAAAYvFen1gCti+rK7D0TrIkbpz5dzb9i30wAAAAAQCxKX0ytQVoX1Tq6tcYvrM7u6dTUegz1odslAAAAAGC5TdMfU2uY1kUHpbUStGyX/ppaj50+9KMEAAAAAKykriw9K7WGal30rwlWtkn6ZWo9ZvrS3RMAAAAA0HDXtCS1Bmvj7tJ0kwQz1k0Hp9bjpS/9OrmKHwAAAABW43mpNVzromPTlgnWT19KrcdJn3pgAgAAAABWo67i/HhqDdi66KupNk9kuDZK30ytx0efOiJ5rAIAAADAGtgw9Wnd3Rclhqk2zfx+aj0u+tZ+CQAAAABYQ9dIp6TWsG3c1TrVd0gMyxbpp6n1mOhbByUAAAAAYJZunS5LraHbuKuB+A6JYdg21SZ/rcdC3zozbZcAAAAAgDl4cmoN3rroB2mdxHS7fjomtR4DfexxCQAAAACYh/em1vCti96QmF53S+em1t99H/teqs08AQAAAIB5WDcdklpDuC66d2L6PC0tTq2/8z52Sbp2AgAAAAAWQK15e1xqDePG3dlpt8R0WDu9K7X+rvvcSxIAAAAAsID2TRel1kBu3NWmdRskJtvW6eup9Xfc5/4v1fAcAAAAAFhgD0utoVwXvS8xuW6e+nJ1/Wz6a9oiAQAAAAAj8sbUGs510aMSk6U28ntWuiy1/k773AXpBgkAAAAAGKFahqAvSyhcmAwFJ8dm6TOp9Xc5CT0wAQAAAABjUMsR/CW1BnXj7s9p00S/7Z2OTK2/w0no9QkAAAAAGKPrpfNSa2A37j6ZapkH+mdRem66JLX+7iahg5ONCAEAAACgAw9KraFdFz0j0S+7ph+k1t/XpHRY2jIBAAAAAB15Z2oN78ZdbXR380T36qr0J6S+XCk/145I2yUAAAAAoEPrpZ+l1hBv3B2Xtk50Z/v01dT6+5mkav3qHRIAAAAA0AM7pzNSa5g37mr93lqHmPGqq58flvryOJhPx6RrJAAAAACgR/ZPV6TWUG/cvTwxPrulGv63/i4mrbqavtayBgAAAAB66DWpNdgbdzUMv0titNZNL0oXpdbfw6R1Yto9AQAAAAA9tXb6dmoN+MbdaWmnxGjcKh2WWr/7SeykdN0EAAAAAPTcdqmuKG0N+sbdj1NdrcvC2TL9V+rL0isLUQ3Td0kAAAAAwIS4TVqcWgO/cffWxPzVMP+ZaRo2Hlyxb6TNEgAAAAAwYZ6fWkO/LnpAYm7WSvdIf0qt3+0k9/60TgIAAAAAJlANL7+eWsO/cXdu2iMxO3ulb6bW73SSq6VE6kOSeowCAAAAABPs6unU1BoEjrta93fTxFWrv7f3pSWp9buc5C5K908AAAAAwJTYP7WGgV1UV2ZbfmHVtk5vShem1u9v0jsl3TwBAAAAAFPmnak1FOyi/0qWYbiyLdJr0/mp9Tubhr6bdkwAAAAAwBTaIP0+tYaDXfS8xLLlSV6ezk6t39M0VEuKvCytnQAAAACAKXb9dHFqDQrHXW1MN+R1gbdKNZg9I7V+P9PS8ek2CQAAAAAYiKem1rCwi2qDuqGtD7xb+s80rWs+r9iXUg3bAQAAAIABqbWYazjYGhp20anpWmna3Sx9OtXSFK3fwzR1aXpmsu43AAAAAAzUNumk1BogdlEt2XCdNG3WSfdLh6TWv/c09pe0TwIAAAAABu5uqTVE7KpT0l5pGtSSG/+RTkytf9dpbHF6c9ooAQAAAAAs9ZHUGih21ZnpJmkSrZcelL6ZatPF1r/ftPbrtG8CAAAAALiSLVLfrtY9N/1LmgS15nGt9fyWVGtbt/59prnaWPL5qZYdAQAAAABouldqDRi7rIabj0x9VIPnulr7TenY1PrnH0J1xXctOwIAAAAAcJU+nlqDxq77n7RV6lpd6XuL9MZ0dGr9sw6lM9KjUg3jAQAAAADWSA16a2PA1tCx605Pz0jrp3FZlG6Ynp2+kmqJkNY/29CqDwW2SQAAAAAAs3b/1Bo89qVac/mAtHdayKtw679rp7R/ekH6dDottf4ZhtrP0q0SAADQU25VBAAmRQ1gH7Ls216rq7b/kI5bob+nWkv68pUqtQHjliu1a9or1RXP9TP/rH6vL0qfSTWMBgAAAACYl21TLX+x8pWwGla1/MgL0wYJAAAAAGBBPSm1BpOa/han96b6MAIAAAAAYCRqU75fptaQUtPb19KeCQAAAABg5G6ZWoNKTV+/TndNAAAAAABj9dHUGlpqOqrh872TTbQBAGAKOLGHybFR2iPtmDZO9Sb9gnRaOi6dnQCGYvt0ZNp06U9Mixo+vzr9X6rjHAAAADBiW6d/T79IS9KKV4mtXA2jv5Nen26X1kkA0+x5qfV6qMmr1vm+Z3KBBAAAAIxJvQl/Sjo3td6sr0lnpLpd/f6prpwGmDbrpT+l1mugJqP6kNXwGQAAADrwptR6sz7XLk5fTY9LBtLANKlN61qve+p3NXy+RzJ8BgAAgA48ILXesC9UdXX1e9ONEsA0+H5qvd6pf9WyUfsnw2cAAADoSL0p/0tqvXEfRT9PT0iujgYm2R1S6zVO/eiy9LHkw08AAADogX1S6w38qKuro9+Rdk0Ak8jV0P3rrHRA2jEBAAAAPfH41HojP66WpE+nmyeASeJq6P50VHpGcpcNAAAA9NC/p9Yb+i76UbpfWjsBTIIfpNbrmcZTHTfunxw3AAAAoMeenVpv7Lus1qh+ZDJUAPrO1dDjb3FyBw0AAABMkAem1pv8PvSn9PBkGA30mauhx9Nx6eXJes8AAAAwYfZIrTf7ferw9JC0KAH0zT1S67VL86/2DfhqumfygSQAAABMqLXS31PrzX/f+kO6V6p/ZoC+qOHopLyOTkonpdemXRIAAAAwBd6VWkOAvvaddKME0BevTq3XK82ub6baaHDdBAAAAEyRfVNrGNDnrkgfSTskgK7VFbv1utR6vdLqOy29Me2eAAAAgCn209QaDvS9C9Ir0kYJoEtfT63XKf1ztdZz/b4emtZPAAAAwADcO7UGBZPScek+CaArtYxE6/VJ/+iw9PzkLhYAAAAYoNrs72epNTSYpL6UbGQFdKHWMT45tV6bhlwtt/GOVEs/2VgWAAAABu6WaRrWNK0lOupKOxtbAeP27tR6XRpal6bPpbrLxmsxAAAAcCVvT62BwiT2+3SrBDAu90qt16OhdGh6WtoqAQAAADTVBlHTsCzHir0r2bgQGIdN0mWp9Vo0rf09vT5dNwEAAACskauno1Nr2DCp/TXdOgGM2vdS63Vomjo//Xe6Y1qUAAAAAGbtmulvqTV8mNRqveu3pA0SwKi8KLVegya9Jekb6ZFp4wQAAAAwb7ukI1JrGDHJ/SndPAGMwj6p9dozqdVx4AVpxwQAAACw4LZM30+twcQkV1f0/UdaNwEspFqe4rTUeu2ZlC5Nn0i3TWslAAAAgJFaL/1Pag0qJr3ahHG3BLCQvptarzl9r9bPr6uet0kAAAAAY1VXwtU6p4tTa3AxyZ2bHpIAFsp/pdbrTV+rofndkk0GAQAAgM7dLp2UWkOMSe9DyWZbwEJ4Tmq9zvStr6RbJgAAAIBeuXqa1FvNr6ratPBGCWA+7p5arzF96XNp7wQAAADQW2un16XWcGPSuyT9a7IZFzBXu6fW60vXHZP2SwAAAAATo672OzO1hh2T3n+nDRPAbNUHdZem1mtLF12eDkgbJQAAAICJs0s6NLUGH5Per9OuCWC2jk2t15Vxd366UwIAAACYaOuld6bWAGTSqyu93b4OzNZvU+s1ZZydnm6aAAAAAKbGg9J5qTUMmeSuSC9LixLAmvhJar2ejKv6AG3PBAAAADB1rp36cAXgKPpy2iwBXJUfpNbryLi6RwIAAACYWuunt6XWYGTSOyztnABWp8sh9KcTAAAAwCDsn05NrSHJJHdSukkCWJUul+O4bgIAAAAYjKunr6fWoGSSuzDdJwG0/Cm1XjtG3bcTAAAAwODUhn7PTpem1tBkUqsNC+vfa60EMKNeEy5IrdeNUffkBAAAADBYN0pdXR04yt6d1kkAZcvUeq0YR7smAAAAgEHbKH0gtYYnk9z/pU0TwN6p9Tox6k5O7swAAAAAWO4B6azUGqRMar9L10jAsN0rtV4jRt3BCQAAYPBqXViA8oVUVwsesvSn6VDLjfw87bv0J2Codl7+ddz+svwrAADAoBlCAys6Id05vSwtqT+YAjumH6W6EhIYpmsv/zputeY+AAAAAKtwy3RMat1iPonVUP2ZCRieuiOi9bow6m6XAAAAAFiNzdJBqTVcmdTemdZOwDBsnC5PrdeDUbdtAgAAAGANPCqdn1pDlknsK6kGU8D0qyWGWq8Do+6MBAAAAMAs7J66uqV9FP0kbZGA6faq1HoNGHW1Fj0AAAAAs7RuekO6IrWGLpPWb9I2CZhe30mt5/+o+2ACAAAAYI7ukk5OrcHLpHV42jEB02eDdGFqPfdH3bMSAAAAAPOwXTo4tYYvk9ZRadcETJcHpNZzfhzdIgEAAAAwT4vS89NlqTWEmaSOT9dNwPT4bGo930fd5amuwgYAAABggdw01dXErWHMJHVq2jsBk2+zdHFqPddH3a8SAAAAAAusBj6fSK2BzCR1Vrp5Aibbo1PrOT6O/isBAAAAMAJrpcelrjYCW6jOT7dLwOTqcs36eh0EAAAAYIRqbeXfptZwZlK6KO2XgMmzbVqcWs/tcXT9BAAAAMCIrZ/elVoDmkmpNly8fwImy4tT6zk9jmpt+borBAAAAIAxuXc6I7WGNZNQXU35qARMhnXTCan1fB5Hn0wAAAAAjNlO6QepNbCZhK5IT0lA/z0itZ7H4+rJCQAAAIAOrJ1ekZak1uBmEnpeAvqrlsH4ZWo9f8fVtRIAAAAAHbpN+ntqDW8moVcm671CP906tZ634+pvyesDAAAAQA9slb6QWkOcSeiAZNAE/fPZ1HrOjqsDEwAAAAA9UUPcp6VLUmuY0/delYD+2D11vdzPAxMAAAAAPbN3OiK1Bjp978UJ6IePpdbzdFzVB2qbJAAAAAB6aOP0odQa7PS95yagW3umrq+C/koCAAAAoOcelS5KrQFPn3tGArrzmdR6bo6zJyQAAAAAJkAtz/HX1Bry9LknJ2D89kmt5+Q4q6uwt00AAAAATIgt0pdTa9jT165Ij03AeNUyGK3n5Dj7YQIAAABgwixKL0ldr/M6m+qf9WEJGI9bptZzcdw9MwEAAAAwoe6STk+twU8fW5wekIDRWit9L7Weh+Ps8rRNAgAAAGCC7Zx+nloDoD52WbpXAkbnQan1/Bt3tXQQAAAAAFNg/fRfqTUE6mOXpv0SsPA2Ssel1nNv3NUwHAAAAIAp8uh0UWoNg/rWxelOCVhYr0mt59y4OydtkAAAAACYMjdKR6XWUKhvXZhum4CFsVu6JLWeb+PuAwkAAACAKbVF+kpqDYb61vnplgmYvy+k1vOsi26WAAAAAJhii9JL0xWpNSDqU3Xb/k0SMHd3Ta3nVxcdmgAAAAAYiBpMnZFag6I+dVaqpUSA2Vs3HZFaz60uelQCAAAAYEB2Sb9IrWFRnzo9XT8Bs1N3PbSeU110alo/AQAAADAwNRR6f2oNjfrUyelaCVgze6fLUuv51EWvSwAAAAAM2GPTxak1POpLR6XtE7B666XfptbzqIsWp50SAAAAAANXmwCekFpDpL70u7R5AlbtNan1/OmqjyYAAAAAWGqH1Pd1og9JGybgn9WHSXXlceu500VXpOsmAAAAAPh/asD7v6k1UOpLX07rJOAfao33P6bWc6arPp0AAAAA4J+slV6WWkOlvvTfqf45gWXemFrPlS6rDRIBAAAAYJUekC5MreFSH3pLAq52tVunJan1POmqumMBAAAAAK7SPunvqTVk6kMvTDBkV08nptbzo8tulgAAAABgjWyfDk2tQVMfekKCIaq10b+XWs+LLvtcAgAAYI5q/dHfp3PS2cu/rvx9dXo6dXkXJIBJt0H6WHrI0p/65Yr0wPSlpT/BcLwhvXjZt71Ry4LcIP1l6U8AAADMWg2h6wqf2bgozQykV+yU5V9PSiekk///9u4D2rKyvv8wDr1LCU0EFWxgwwIBFRAbKKiomNgLxqix/bEixh6sMYqxxd4iBguKJVEsCIoiCGiiIIKgIE16HZhh/b+/QeIEX2DKPbuc8zxrfRZzjVncu/c+d9y/8553pwUJYKjmpXr42csXfTUs89Pu6fuLvoLp9+g0xDdePpied/0fAQAAWBbLMoReUrWSrwbRv081lK4W//MZqf7v9d8D6NPz03tTDaWH5LK0Szp+0VcwvbZOx6Z1F301HPUg0/re6o12AAAAlsPiex523dXpV+nr6aD0kvSodLe0RgLoyl6pBk6t31V9Vp8wuWOCaVV/39fWYK3rv+/ekAAAAJgDrZuuoVQrpY9IH0o1oH542jINbbUiMB3um2ro2/p91Ge/TZslmDb1iaxPp9Z133dnpbUTAAAAc6B14zX0arXicemz6TXpMWmLVDezAMvj9qk+odH63dNnv0jrJZgmb0yt630I7ZMAAACYI60br7F2fvqvVE/Xr5vHrZLBNLC01k8/SK3fM312VLJVEdPi2al1nQ+h+t8S/vcDAADAHGrdfE1TF6fvpnemJ6W7JNt5ALdk9XRYav1e6bPaQ3/lBGO2R1qQWtd4381P9mEHAACYY60bsGnvsnRkek96erp7WikBLK6GvZ9Jrd8jfVZ76HozjbG6d7o8ta7tIeRhhAAAABPQugGbxa5KP0xvTXsme68CpYa9/5pavzf67N3JdgGMze1SPXS4dU0Pod+k+hQEAAAAc6x1E6YVVrgu/Ty9Pz0xbZ6A2VTD3jel1u+KPjsgwVjUm7u/TK1reQjV3/sPTAAAAExA60ZM7U5P9TH456RtklWIMFv2S63fDX32dwmGbt10dGpdw0PpnxMAAAAT0roR05L1x3RoelnaIXlYGEy/Z6WFqfU7oY/qe3lsgqGqAfSPU+v6HUq/SrbhAAAAmKDWzZiWrSvTd1M91GiXtGoCps8T0oLU+j3QR/PTrgmGZgwD6Hotb58AAACYoNYNmeamK9I300vTPVM94AyYDvukIQ2iL03bJRiKMQygqzcnAAAAJqx1Q6bJdH46OD073S4B4/b4NKRB9Llp6wR9u3X6SWpdp0Oq9qm2lRYAAEAHWjdl6qZT04dS7ee6dgLGZ2iD6Pq9smmCvoxlAH1h2iIBAADQgdaNmbrvmnR42i/dOd0qAePwuHRtar22++iEVFshQNc2Tsem1nU5tPZKAAAAdKR1Y6b++016T3pY8oBDGL6hDaKPSKsl6Eq9gXpaal2PQ+sdCQAAgA61bs40rC5Ph6bnpM0SMEw1iF6YWq/jPvpyWinBpD0gXZBa1+HQsg80AABAD1o3aBp2P0ovT1slYFj2Ta3XbV99JNneh0naJ12dWtff0Do7bZ4AAADoWOsmTePpxPS6dI9k0ATD8MrUer321YEJ5lr9nfPS1LrmhlgNyv86AQAA0IPWjZrGWe0j/fZUN9nzEtCPGs7VnrOt12lfvSTBXFkxHZRa19pQe2oCAACgJ60bNY2/s1I92HCHZIU0dK9edx9LrddnXz05wfLaIH0zta6xofa2BAAAQI9aN2uark5Nb07bJKA79VDAeqho63XZR9emPRIsq/ulM1Lr+hpqX0u1chsAAIAetW7YNL3VHtK1X+2WCZi81dORqfV67KMr0y4Jlkat7H9ump9a19VQOy6tkwAAAOhZ66ZNs1ENxp6f/ioBk1OvsdNS63XYR5en+ydYEmukT6XWtTTk6jkJGycAAAAGoHXjptmqPqL/5bRXqu0DgLm3bbo0tV6DfVTfS+0ZDzfnTukXqXUNDblz01YJAACAgWjdvGl2Ozu9Pd0lAXOr9mNemFqvvT66ON0nwY3V9htPSkN642RJuyzdOwEAADAgrRs4qfpRenaynybMnRen1uutry5M90xwg9o+5gupdb0MvWvSQxIAAAADUiudnpnWTOumGjYu3o3/s/radg2zpx5kdkj6WLrhAWvAsqnfux9Mz1n01TD8MT0o/feir5hle6cPpTE+K6C2ltonfWXRVwAAAAxGDUOWRv33V001jK7WS3WjutEt/LP+f5gOJ6f3p3pIVX2UH1h6K6fvpAcu+moYzku7pJMWfcWsqb/PD0pPWfTV+CxINYA+dNFXAAAADMrSDqGXRf076ua2HhB0x7T1YtXXGybGp1ZHfybVQPrE+g+ApbJZOiHVG3VDUXvC1yD6lEVfMSt2Tx9NdU2OUQ2gn5DqAbsAAADQtHmqm8f3pGNT3UzeeI9HDbujUj3Ayop3WDoPTdel1uuqr36f7pCYfvVppdpmqXUdjKX63wyPSwAAALBU1kqPTv+erkitm04Ns/o4/4FpiwQsmTem1uupz05PWyamU20H86JUWyq1zv9Yqj2gH58AAABgudQDE/8mHZ5aN6AaZgvTl9IDUhdbvsCYrZi+l1qvpT47NdUnVZguu6V6AGXrnI+p2hKqthEBAACAOVODzD3SL1PrZlTD7SeptltZKQFtm6ZzUus11Ge1N7QV0dOhPqFySGqd57F1UdopAQAAwETUIPN5aewfIZ7FfptektZOwF96WGq9dvqu9oi+S2KcVk+vTbVyuHV+x9Yf0t0TAAAATNy26YzUukHVsKs3EN6efMwf/tKHU+t103e13/t2ifFYLdW+z2en1jkdY79JHpoJAABApzZJx6bWjaqGXz1Q6jPpngm43jrpd6n1mum7S1Lt886wrZrqE0NnptZ5HGu1tVP9vQ8AAACdqwcXHpZaN6waT19N2ydghRUenlqvkyFUWzrU/vwMz8rp2WkaPyX0+VTbigAAAEBv6iPHP0ytG1eNq/9KD0ww6z6SWq+RIbQgPTcxDDV8fkY6LbXO19h7U5qXAAAAoHcbpdNT6wZW4+uI9NB0qwSzaN1UDwRsvT6G0jvTiol+bJD2T0O/Tpa1+empCQAAAAalnpZ/WWrdzGqc1R6geyXDaGbR3qn1uhhSX061LRLdqb/r6gGWV6XWOZmGzk32HwcAAGCw9kzXpdZNrcbbCenRyTCaWVLX++Gp9ZoYUvWA2NsmJqdWnD8qfSe1zsE0Vdtr3SYBAAAwRaZxqPfa9Ibr/zgI56f3pO+mU9PF6dpUe1nXCsIbWittnDa/UVumOyQD2OtXRr861bGEWbBtOjENfduLC1JtnfDNRV8xV2oY+6RUe3DX3wPT7qD08nTNoq8AAABgwFZKNaxsrbDqutoepIbIy6sG1DulF6SPpeNTDbJb/85ZqFaH7pBgFtRgrvU6GGJvTvU7mGVXv+9roP+tNCuf7LkiPTEBAADAqNw5XZlaN7td9tU0KbWSerf0lvTTNIvbkByaan9UmGbrpT+m1mtgiH0vbZZYcrXSvR7G+ul0eWod12nt5HS3BAAAAKNUq4ZbN7xd9vXUlQ3SPunf0lmp9f1MYzV8/0zaOsG0qu0YWtf/UKtth56VbCN002rwfP/0jjRLv7MX76OpVn4DAADAaM1L306tG9+uOi/1sZdr/ew7p/el+h5a39u0VduTfCDVvtowbWqLi9+k1rU/5GpLibnYkmharJuekGrF85hWt891F6V60xQAAACmQj3Yr1bktW6Cu6q2zOhTDa8ekj6SLkyt73GaujS9KtV2JTBNnpFa1/zQq+0lXpFWT7PoTmm/VA9UneW9/G/oiLRFAgAAgKmyb2rdCHfVF9NQrJJqFV4NQ1rf6zR1eqoHXdkOgGkx1tXQN3Rmenaa5gcX1u+bO6Znptpq4pTUOhaz2IJ0QOrj00EAAAAwcbU1xU9S66a4i2rP4nunoblLelea9tXRP047JZgGY10NvXgnpfo5pmFldA3U75NenL6Qzkmtn3nWOyFtlwAAAGCq3TfVMLh1c9xFtfJ4qCtyaxD0tHR0an3v09Ln0+0TjNnYV0Mv3gWpHsp3hzQGa6b7pXrgYr2Bd3i6LLV+Nl3fNekf08oJAAAAZsKHUusmuasemYbu/umw1Pr+p6H56W1pnQRjVUPQ1vU91uoNwh+l2qrhXqnvN+zqjbltUm1d9Mb05VSD/z7fyBxjP013TwAAADBT++VumH6d1lv0Vfd+le6Ral/MoavBQT1IrPZUnsb9O89OL00HpxqWwJjUQzd/n+p32jQ6Kx2Vjk8/+9M//5jmQq0k3yTdNtXD8aob/nzDP6f1uHal3ux7XfrnNIa/7wAAAOjArD207Xnp/df/sRf17//g9X8chdull6V6uGMNvqbN99M/pF8u+grG48C0//V/nAm1dcfvUr2BVAPpi9PlqQaeNeisN5NWTbWK+YbWSPWm4waLdevE5Hw9vSidtugrAAAAmFG1qrdW1i3+keEuq8HJbdLYbJRq79arUuvnGnPXpvrZ1k4wFrVid2FqXdNS152eHp1m7Y1tAAAAuEk7ptZNdFfVSrGx3qjXAL1WctfgtvWzjbkz098kQxTG4kupdS1LXVUr0d+catU5AAAAcCMfT60b6q56ehqzrdNn0jQ+qOvwdJcEQ7dbal3DUhd9I90pAQAAADdh43RJat1Yd9FYt+W4sXrQ4ldS62ccc9ekf0rTuA8206NW7Z+UWtewNKlOTA9NAAAAwBJ4cWrdYHfV19K0bP2wU/pJav2cY64GfA9MMFSvSa1rV5rrzkrPTPVsBQAAAGAJrZR+kVo32131tDQt5qX6ef6QWj/rmHt/WifB0GyVWtesNFddnv4xrZkAAACAZbBzat10d9VFabM0TdZKtZXF1an1M4+136c9EwzNj1PrmpWWp/od/u60SQIAAACW02dT6wa8q6ZpW47F3T59IbV+5jH3ubRRgqF4UWpdq9KyVHvivy9tngAAAIA5UiuRL0utm/GuemqaVg9KP0+tn3usXZDqnE3jmweMT61UXZha16q0pC1IH05bJgAAAGACXp5aN+VdNY3bcixu5fSydEVq/fxj7etpms8b4/Gd1LpGpVvq2vSxVPuLAwAAABO0SvpVat2gd9VhadpX1tYKu9p+pPXzj7UL098m6FPfb6RpfNWbgv+SbpsAAACAjjwktW7Uu2yat+W4QQ3aH5fOSq1jMNY+nzZI0IftUuu6lG5cvXH2+rRhAgAAAHpwSGrdtHdVbcuxaZoF66SD0nWpdSzG2NnpEQm6Ni+dn1rXpVSdmfZLayUAAACgR/Wx5L73Lf5qmqUH3t0v/Sy1jsVYq4d7rZ2gSwen1vWo2e7ItE+qvfkBAACAgXhVat3Id9lT0ixZKb06XZNax2OM/TbtkqAr+6bWtajZa376eLp3AgAAAAaoHlJ4cmrd2HdV7dm5eZo1d0vHptYxGWO11cg7Ul1TMGn14M/WdajZqfbaPyBtlAAAAICBe1hq3eB32XfTimnW1EfGa4gyTauif5q2TjBpv06ta1DT24L0lbRnqk+VAAAAACPyhdS64e+y2hpkVt09HZdax2WMXZqenGCSPpJa15+mr1PT/mmzBAAAAIzUFqnvhxRem7ZPs6pWRb8mTdOq6E+ktRJMwvNS67rTdHRV+lzaLc1LAAAAwBSoVWatQUCX/SatnWbZPdLPUuv4jLHac3y7BHNtp9S65jTeam/576RnpnUTAAAAMGVWTUPYY/WTadbVw/3emmog0zpGY2t+ekm6VYK5UkPK1vWm8XVienmaxYfUAgAAwMx5eGoNCLruSYkVVtg1/T61jtEY+1raMMFcOTu1rjUNv/rkS73ZVnviAwAAADPmi6k1MOiyS9LtEyussF46OLWO0xirofpfJ5gLR6XWdaZh9sv0pnTP5JMRAAAAMMPqIYVXptYAoct+lFZKXD+seWq6NLWO1diqhy++MBlCsbw+m1rXmIbT8akeunrXBAAAAPC/Xp1aw4Sue2Piz2p1+DSt/PxcWivBsnp7al1b6q/aA/4/U73RdIcEAAAA0DSUhxQuTDsn/qxWh9eqwgWpdczG1q/SNgmWxX6pdV2p285K/5YenbyxBAAAACyx3VNr2NB1v0u1LzL/147pjNQ6ZmPr8vTEBEvrGal1TWmy1ZY630/1hth2ydY6AAAAwDL7UmoNILrukGTI8ZfWT4em1jEbY+9NqyRYUo9NrWtJc9t16Weptj95eFozAQAAAMyJ26ahPAzvWYm/VMP5F6damdg6bmPrx2nzBEuiBqKt60jL30npQ2mftGECAAAAmJjnpdaAouuuSHdOtN03nZpax25snZN2SnBLHpRa15CWrtpj/pj0z2nv9FcJAAAAoDPz0g9Sa3DRdfVx8HpoIm3rptq6pHXsxlat7N43wc15YGpdP7r5Lk7fTq9LD0621wAAAAB6d6d0dWoNM7ruHYmbVttz1Or1oZyv5e2gtHKCll1T67rRn6vfBUenei09JdUnSurNRQAAAIDBeWVqDTj66KGJm3ev9OvUOn5j6ztpgwQ3Vr8LWtfMrFYD52PTR9Nz032Sh30CAAAAo7FSOi61Bh9dd3ayZ+ktWyd9KbWO4dg6Ld0tweIek1rXyyx0VvpGekt6Ytom1e9pAAAAgFGr1bX1AKvWQKTrvpZq6wluXn3s/tXputQ6jmPqslRDR7jB01LrWpmm6rqv7TQ+nF6cag9nb8IBAAAAU+2fUmtQ0kcvSSyZPdJFqXUcx9ZrkzcgKPU7oHWNjLF6o+h/0mfTq9Ke6XbJ/s0AAADAzFktnZRaQ5SuuzY9ILFktko/T61jObY+ljywkANT6/oYQ+enw9Jr0kPSugkAAACAP7l/Gsr2DrU/9KaJJbNm+lxqHcuxVfvh1s/D7PpEal0bQ6weGnho2jdtnazmBwAAALgF702tQUsfHZVWSSyZGn7tlxam1vEcU8ck++POru+m1nUxpE5Mf5fqQaEAAAAALIW10xmpNXTpo4MSS2e3VFsCtI7nmDol3SExe36XWtfEEKptix6VrHgGAAAAWA67p9bwpa+eklg6W6RjU+t4jqlz030Ss2OD1LoW+q4+YfCG5NMZAAAAAHPkk6k1iOmjK9M9E0tn9fTx1DqmY+qy9LDEbKhz3boO+uzCVJ8wAAAAAGAO1WrEWoXaGsj00alpvcTSqS0Dnp+uTa3jOpbq+39qYvrtn1rXQF+dk7ZNAAAAAEzA3qk1lOmrr6d5iaX3gFTDtNZxHVOvTPbinW5fTK1z30cXpbslAAAAACboo6k1nOmr1yeWzW3S0al1XMdUPaxyxcR0Oj21znvXLUi24AAAAADowNqptsJoDWn66pGJZbNq+mBqHdcx9YlkVfz0GdJDCV+eAAAAAOjIjmlhag1q+qg+Ir9VYtntm+an1vEdSx9JBtHTZSgPJTwyubYAAAAAOvbG1BrW9NWJaY3Ests+nZlax3csfSDZI3p6vC61znOXXZO2SQAAAAB0bOV0TGoNbfrqM8kAcvlsnI5IreM7lt6bXAfT4aepdY677E0JAAAAgJ7cKV2RWoObvnphYvmskmpri9bxHUvvSgbR41YPzmyd2y47Ja2eAAAAAOjR36fW8Kavrk0PSCyfGuC+IrWO8Vh6WzKIHq/nptZ57bIHJwAAAAB6VkO+w1JrgNNXZ6dNE8vvsenK1DrOY8hWCuP1jdQ6p131qQQAAADAQNQ+wuel1iCnr45Kta0Ey+++qQb7reM8hl6bGJe10/zUOp9ddFXaLAEAAAAwIHul1jCnzw5KzI3bphNT6ziPof0T4/G41DqPXVV7igMAAAAwQB9MrYFOnz0rMTdqderXU+s4j6H9EuNQW2G0zmEX1cNW69MdAAAAAAzQmunXqTXY6at6UOFuibmxUnpPah3rMfT4xLCtmi5MrfPXRfVASwAAAAAGbPu0ILWGO311cbprYu68IC1MreM95Gqv3x0Sw/Wk1Dp3XXRZ2jABAAAAMHD/mFoDnj47LW2UmDt7pEtT63gPuXPT7RPDdERqnbcu+qcEAAAAwAismL6dWkOePjs6rZ6YO3dPZ6TW8R5yv0y3TgxLfWKhdb666JK0fgIAAABgJGrV8R9Sa9jTZ59P8xJzZ5N0TGod7yF3eFo5MRzvTq1z1UWvTwAAAACMzM5paPtDVwcm5tYa6ZDUOt5D7iPpVon+1acULkqt8zTp6t9rZTwAAADASL0ytYY+ffesxNyqFeY14G8d7yH3qkT/npZa56eLDkgAAAAAjFQNJg9LrcFPn12bHpyYe89M16TWcR9q+yT69cPUOjeT7oK0dgIAAABgxOphX6en1gCozy5O2yTm3q7pwtQ67kPs6rRjoh/1gMvWeemi+rQGAAAAAFNg+zTE1bG/TRsn5t6d029S67gPsbNTPVCT7n0ytc7JpDsvrZkAAAAAmBIvTK1BUN/9ONVD0Zh7G6YfpNZxH2LfTLWFDN25Q+rrAab7JQAAAACmyK3Sf6TWMKjvDkmGj5Oxauprpeuy9LJEdz6cWudh0tXK9zUSAAAAAFNmnXRKag2F+u4ticmoNyBek1rHfWjVQyvvl5i8LVJf2/TUJzMAAAAAmFL3TPUguNZgqO+enZicJ6b5qXXsh9Spad3EZL0vtY7/pDszrZYAAAAAmGI17G0Nh/qu9qZ9SGJyHpD+mFrHf0gdnGoFN5OxWerrzajnJQAAAACmXA33hrpP8CVp28TkbJ1OTq3jP6T2TUzGu1LrmE+6M9IqCQAAAIAZsGb6RWoNivru9LRJYnLWT0ek1vEfSlembRJza6NUx7Z1zCedLXcAAAAAZszt01C3Zjgh3ToxOaumT6XW8R9K9UbJ6om589bUOtaTrvb6XjkBAAAAMGN2Tdem1tCo745MayQmp7ZmeW1qHf+hVFtHMDc2TVek1nGedE9LAAAAAMyo56bW0GgIHZasnpy8J6f5qXUO+m5hul9i+X0gtY7xpDsprZgAAAAAmGHvT63h0RD6dJqXmKwHpgtS6xz0XW3P4s2I5XOntCC1ju+k+5sEAAAAwIyrAd/3UmuANITenWrrCCbrjumU1DoHffeKxLL7j9Q6rpPu58mbSAAAAAAssmE6LbUGSUPogMTkbZBqP+7WOeizq9LtEktv+9Q6pl20dwIAAACA/3W3dFlqDZOGUO1fzeStmj6ZWuegzz6XWDr1CYK+PuVwXPIJBgAAAAD+wqNTa6A0hK5L9pftRg0P90v1YMDWueirHRJLbvfUOo5d9IgEAAAAAE219UVrqDSErk17JbpRQ8yLU+tc9NEPk9W1S6b2Yj4xtY7jpDs6OU8AAAAA3KQaHh2cWsOlITQ/PSzRjTunk1PrXPTR4xK37Cmpdfy66CEJAAAAAG7WGqn2dG0NmIZQPahu10Q3bp2+mVrnoutqda9VtjdvrfS71Dp+k+6I5PwAAAAAsERum85JrUHTELo83T/RjRXTO1LrXHTdnomb9s7UOm5dtHMCAAAAgCW2Y7o6tYZNQ+jStH2iO09LfV8T9hy+afdMC1LruE26byUAAAAAWGq1B+91qTV0GkIXpXslurND+kNqnY+u2iXxf62cjkmt49VFdV0AAAAAwDJ5YWoNnYbS+WnbRHduk/oceH4m8X+9NbWOVRd9LQEAAADAcnlbag2fhlLtX33nRHdWTx9NrfMx6erhlPXARK738NQ6Tl117wQAAAAAy2VeqtWnrQHUUDo73TXRraenK1PrnEyyv0+ssMKW6bzUOkZd9MUEAAAAAHNilXR4ag2ihtK5ydYc3atj/svUOieT6odp1q2Xuj7ui1f7xd8tAQAAAMCcWTedmFoDqaFUe0TfI9GtNdOnUuucTKIagG6YZtWq6fupdWy66nMJAAAAAObcZumM1BpKDaUL0naJbt0q7Ztqz+bWeZnr9kmzaOV0SGodk65amOzDDgAAAMDEbJMuSq3h1FC6MN0n0b1aiX5yap2XuexdadbUAPoLqXU8uuwTCQAAAAAm6oHp6tQaUA2li9P2ie6tnWq7htZ5mau+lWZJ7cv+pdQ6Fl1WK923SAAAAAAwcY9LtTdva1A1lC5JOya6V9tzPC1NatX8r9OsWC0dmlrHoesOTAAAAADQmRem1qBqSF2WHpTox6ZpEgPUc9MsqAeCfi+1jkHXnZfWSQAAAADQqbel1sBqSNXWIY9J9KNWRT8x/TG1zs+yNAtD6E3S8an18/fR8xIAAAAAdG5e+nBqDa2G1ML0jER/Nk5z9WC9E9M02yqdmlo/ex/9KtWDEQEAAACgFyumT6XW8Gpo/b9Evx6famuH1vlZ0up6m1b3Suek1s/dV3slAAAAAOjVSunzqTXAGlpvSrVFBP2pvY5fmy5OrXN0S+2dptGuqR6o2fqZ+6r2pPZ6AQAAAGAQ6uP6k3gI3SR6X6qtROjXrdPr09IMXn+eavX9tHlsqv3LWz9zX12X7pMAAAAAYDBWTd9IrYHW0Pr3ZJ/bYVg/1Qr1S1PrXN3QBWnbNG3+LtW+5a2fuc8+kAAAAABgcFZPh6fWUGto/WdaOzEMa6WnpNra5cx0w3m6LH023S5Nk9rm4oC0+DU5lGrf7vUSAAAAAAzSmukHqTXcGlrHp80Sw1NvaNQgdBq3TqktRd6bWtfkEHp6AgAAAIBBqxXGR6fWgGtonZGmcZsHhqnepPlKal2LQ+jI5GGEAAAAAIxCPXjuuNQadA2ti9ODEkzSxumY1LoGh9CCdPcEAAAAAKOxQToxtQZeQ+ua9KQEk3CX9NvUuvaG0jsTAAAAAIzORumXqTX0GmL7J9sRMJd2Them1vU2lE5PHtQJAAAAwGhtmk5OreHXEPtgWinB8vrbND+1rrMhtWsCAAAAgFGr/XB/nloDsCF2eFo/wbKo1fSvTK1ra2i9OwEAAADAVKih7k9SaxA2xE5Jd02wNGoVfa2mb11TQ+uktHoCAAAAgKlR+85+L7UGYkPskvSIBEuiru+vp9a1NLQWph0SAAAAAEydWnn5jdQajA2x69LLkgcWcnO2Sv+dWtfQEDswAQAAAMDUWiUdklrDsaH2ibRaght7cLogta6bIXZUWjkBAAAAwFSrvXM/nlpDsqF2dNokQanV8S9KC1Lrehli56bbJAAAAACYCfPSe1NrWDbU/pAekJhtq6aPptY1MtRqH+gHJQAAAACYKbWatPanbQ3NhlqtfH1psk/0bKrV8D9KrWtjyL0yAQAAAMDM2j+1BmdD7otp3cTsuG86M7WuhyH3leRNEwAAAABm3gtSa4A25E5J90hMv6ekq1LrOhhyx6d1EgAAAAAQT03XptYwbahdmZ6emE6rpHen1rkfemekzRIAAAAAsJjd0sWpNVQbcv+W1khMj9unY1LrfA+9i9I2CQAAAABoqOHZb1NruDbkfpnulRi/vdMY3wyp5qedEwAAAABwMzZOY1yFek16aZqXGJ8xb79RLUxPSAAAAADAEqjtLb6UWsO2offtZD/ecRnz9hvVdcn+5AAAAACwlFZM70ytodvQuyA9JjF8Y95+44b2TQAAAADAMnp+qq0GWsO3oVcPLVwrMTyrpTFvv3FDz00AAAAAwHJ6ZLo8tYZwQ68etPiQxHDcL9XDJFvna0y9IAEAAAAAc+Re6azUGsaNoQ+ndRP9qYcPviktSK1zNKYMoAEAAABgAjZPJ6bWUG4M1RB9r0T37pFOSK3zMqZqgP7kBAAAAABMyNrpK6k1oBtLn00bJiZvpXRAuia1zsWYuirtmQAAAACACZuX9k9jfWBhdV6qFa23SkzGXdMxqXX8x9YlaecEAAAAAHTooemPqTW0G0tHpNoqgrmzenptujq1jvnYOjdtlwAAAACAHmyRfppaw7uxVCu6D0rrJZZdrSp/VDottY7zGDs93TEBAAAAAD1aLX0otYZ4Y+r8tG+q7UZYOjWo/UZqHdexdmzaLAEAAAAAA/HMNA1bMNQ+xn+duGVrpbek+al1LMfaf6Q1EgAAAAAwMPdOv02twd7Y+lLaJvGXauuNv01nptaxG3OvT1bDAwAAAMCArZ++mVoDvrFV+0V/PG2Z+PO+z8en1vEac1elGqwDAAAAACNQK0lrRel1qTXwG1u13cS700ZpFtXw+ZGp9kluHZ+xd3baPgEAAAAAI7NHOje1Bn9j7LL0xrRBmgU1fN49/SS1jsc0dFzaPAEAAAAAI1Wrh7+aWgPAsXZFem/aKk2jFdOe6Uep9fNPS/+aVksAAAAAwMjVitpnp8tTaxg41mq7kS+kHdM02Di9Op2eWj/vtHRp2icBAAAAAFNm63R0ag0Gx94P02PTymlM6g2CXdLB6ZrU+tmmqZ+lug4BAAAAgCm1UvrHtCC1hoRj7/xU2zzU6uga8A7V7dL/S/+TWj/HNPa+ZPsNAAAAAJgR90snp9awcFo6NdWDDO+c+lYD8XunN6QTUuv7ndZq+40nJAAAAABgxqyRanVqa3A4bf0ivSftnTZIXVgv7Z7qIYq/S63va9r7bqpV3wAAAADcjCF/pB/mwh7pY2mTRV9NvxqO/jx9Px2VakX4aemKtKxWT9ulWmG+/Z/+ecc0q65Kr0z1Jkc9QBIAAACAm2EIzSzYMNXAcJa3TTgn/SbVNh6np6tT7Z29ePX7YOO02Y3aKPldcb0fp6enXy/6CgAAAABgMbUqulYF33hbBemWmp9q9fOKCQAAAADgJtXWEm9O16TWsFG6cT9Ld08AAAAAAEvsrul7qTV0lKpL04vTSgkAAAAAYKnVPsdPTeel1hBSs9vB6TYJAAAAAGC5rZ8+lFrDSM1Wp6SHJQAAAACAObdTOjG1hpOa7q5Or02rJQAAAACAian9f/dLtR9wa1ip6esLaesEAAAAANCZv0r/kuan1uBS4+/ItGMCAAAAAOjNlunjaWFqDTI1vk5Kj071YEoAAAAAgEHYNh2aWkNNjaOz03NSbbkCAAAAADBI9fDCH6TWkFPD7IJ0QForAQAAAAAMXm3jsEc6IbWGnhpG56VXpLUTAAAAAMDozEtPSqem1hBU/fSH9JK0RgIAAAAAGL2V0xPTsak1FFU3/T79Q1otAQAAAABMndqmY+f0lXRdag1KNfcdk56SVk0AAAAAADPhTukD6crUGpxq+bomfTbtkAAAAAAAZtaG6TXpnNQapmrpquP4+rRpAgAAAADgT2qriGemX6TWcFU3XW1t8q1UD4FcJQEAAAAAcBNq3+jd0qfTVak1dNX1/Sq9Km2eAAAAAABYSuumv08/Tq0h7Cx2YXp/qr2ea2APAAAAAMAc2DYdmE5NreHsNHdu+kjaK62WAAAAAACYkFr9e9/09nR6ag1tp6GT0tvSTmnFBAAAAMCU8nF3GK56fW6faoXwI9J2aawuT0em76bD0skJAAAAgBlgCA3jsWnaPdVA+mFpnTRUNwydv/+nfpYWJAAAAABmjCE0jFNtYXGvtMuf2jndOvXhqvTf6cQ/9dN0XDJ0BgAAAMAQGqZEDaXvnmo/6bsu1pZpLl7ntY/z2enM9PtU22ncMHT+TVqYAAAAAOBGVljh/wNVXMQd0Ke/SwAAAABJRU5ErkJggg==;" vertex="1" parent="1">
                    <mxGeometry x="70" y="250" width="202" height="138.63" as="geometry"/>
                </mxCell>
                <mxCell id="11" value="" style="shape=flexArrow;endArrow=classic;html=1;endWidth=6.19047619047619;endSize=4.4904761904761905;fillColor=#a20025;strokeColor=#6F0000;width=10;" edge="1" parent="1">
                    <mxGeometry width="50" height="50" relative="1" as="geometry">
                        <mxPoint x="237" y="275" as="sourcePoint"/>
                        <mxPoint x="237" y="328" as="targetPoint"/>
                    </mxGeometry>
                </mxCell>
                <mxCell id="13" value="" style="shape=flexArrow;endArrow=classic;html=1;endWidth=6.19047619047619;endSize=4.4904761904761905;fillColor=#a20025;strokeColor=#6F0000;width=10;" edge="1" parent="1">
                    <mxGeometry width="50" height="50" relative="1" as="geometry">
                        <mxPoint x="257" y="275" as="sourcePoint"/>
                        <mxPoint x="257" y="328" as="targetPoint"/>
                    </mxGeometry>
                </mxCell>
                <mxCell id="14" value="Émetteur" style="rounded=0;whiteSpace=wrap;html=1;" vertex="1" parent="1">
                    <mxGeometry x="214.25" y="230" width="65.5" height="30" as="geometry"/>
                </mxCell>
                <mxCell id="22" value="" style="ellipse;whiteSpace=wrap;html=1;" vertex="1" parent="1">
                    <mxGeometry x="225.5" y="331.37" width="43" height="30" as="geometry"/>
                </mxCell>
                <mxCell id="23" value="Récepteur" style="rounded=0;whiteSpace=wrap;html=1;" vertex="1" parent="1">
                    <mxGeometry x="214.25" y="340" width="65.5" height="30" as="geometry"/>
                </mxCell>
                <mxCell id="39" value="" style="ellipse;whiteSpace=wrap;html=1;" vertex="1" parent="1">
                    <mxGeometry x="574.25" y="330" width="43" height="30" as="geometry"/>
                </mxCell>
                <mxCell id="40" value="" style="shape=image;verticalLabelPosition=bottom;labelBackgroundColor=#ffffff;verticalAlign=top;aspect=fixed;imageAspect=0;image=data:image/png,iVBORw0KGgoAAAANSUhEUgAABaEAAAPdCAYAAACTDqTTAAAAAXNSR0IArs4c6QAAAARnQU1BAACxjwv8YQUAAAAJcEhZcwAACxMAAAsTAQCanBgAAAACYktHRAD/h4/MvwAAACF0RVh0Q3JlYXRpb24gVGltZQAyMDIxOjA1OjI5IDIwOjQ1OjQ3CFKbJAAAnoJJREFUeF7s3Qe4JGWZ/28Zcs5IEATBgCKC2TVHMOec4xrXuObsijmtumZWV1xzdsWsGDErCioSRHLOeYb///vMzPk5jO8Mc0J3VXfd93V9rnPOrKtwprur+umq913ragAMzaK0QVp3AVqn8WcrtnaaOdbU19l+P/N1df/3K9LidPnyryu2pn+2qj+vP7skXZwuWuHrZen/SwAAAMBVmHkDD0B36rV4w7TJ8q8bLf86n1b337FeYn5qAL3iUHquX89P5zaqATgAAABMBUNogNmp1831Uw2Mq01X8f3q/m+t770es6IaUNcw+pzlX+eSQTYAAAC9YOgBDEkNjzdPWyz/elXfb5Zag+NaggL67ux0+hp2RqplRwAAAGDBGUIDk6LWFq6h8JoOkFf+vr7WEBpouyC1BtQrdlo6KZ2SliQAAAC4SobQwDjVILkGwlulLVfoqn6u6kpkoB9qM8gaRJ+4vBNW+H7FarANAADAwBlCA7NVrxt1RfLKw+I1GSzXABoYjvNSDaNXNaSu6urqGmoDAAAwpQyhYZjqub9xWtWwuPX9zM+1rMWiBLAQagPFGkb/LR2Tjl2puuLakBoAAGCCGULDZNswrWpYvKqfZ763uR4wCWrDxBpQrzycnhlYn5MAAADoMUNo6N56aeVB8Zr+bKM9YOhqCN0aTs90aQIAAKBDhtCwMOqq4lqmYuVh8ZoMkjdKACy8WsajrqL+c/rLSl9rLer/LwEAADBihtDwDysOkmdTDZI3TQBMjnNTazh9dHL1NAAAwAIyhGbazAySV77ieE0ySAagrp6uJT1WHE7PfH96cvU0AADALBlC00frprlckVwZJAMwKrX+dA2jD0+HpT8s74wEAADAKhhCMyo1SG4NidekTRIATIpT0opD6fr+T+mSBAAAMHiG0KzOmg6SW0tfbJwAYKiWpL+mmaH0zIC6NkqsJT8AAAAGwxB6+q2XVh4Qr2kGyQCwsC5If0wzQ+mZzkwAAABTyRB6MqyfWkPiNWmjBAD024npt+nXK3RSAgAAmHiG0OOzQWoNiVeutSGfQTIADE+tNf2btOJguobV/18CAACYGIbQa65+VxumlQfEV9XMULmG0AAA83FaWnkwfXwymAYAAHpriEPoWiO5NtLbOm2TVh4ar6oaJtf/LwBAn5yRVh5MH5cMpgEAgF6Y5CF0/bPXxnk1TF6xGiyv7s82TQAA0+ysNDOY/nk6NJ2cAAAAxq4vQ+hFqa40XnlgPFPrz6rasA8AgKv291TD6JlqI8RLEgAAwEiNcgi9TtouXT1tv5qv9Z+p5S5qEA0AwHhclmoQveJg2jIeAADAgpvtEHrtVFclzwyQVzdcriuVJ3m5DwCAoTk1rTiU/lW6IAEAAMzZzJC4rlreIe2yvPq+NVjeNrliGQBgGK5If0grDqaPTPXnAAAAa6SG0HXb5U6prnIGAIDVOSfVZoc/Sz9ONZi+MAEAADTVENq6fwAAzNXi9Jv0o+X9JJ2RAAAAljKEBgBgof0pzQylq7rzDgAAGChDaAAARu34VMPoWr6jvh6RrCsNAAADYQgNMH2WpMuXV7fJj/r7qv4363jSVbWvQW2yW617FV8X8j+zXtoobZw2TMCaOSvVsh0/Wl4t53FZAgAAppAhNMDCuyDVJl0zX2e6OF2y0tfZ/FkNaGaGv61h8MxXr+vdWJRqID0zlF6x+fzZzJ/XwBumVb3G1WaHM0Pp2vSwXkMBAIApYAgNsGx4e3Y6Z3nnrvR9DUJWHCyv6vuZQbNbzBmFugJ7Zki9WdpihTa/ip9ncrU2k6I+UPtp+mb6Vqorpb22AgDAhDKEBqZBXS284uB4dbX+c/X/77WQIdggbZ22Wc3Xlf9s0wRdOzN9O9VAujoxAQAAE8IQGuiDunp45cHwTFc1XK7/ew2RgdFYP22btk9XX/51Vd/XFdowDoenmYH0D9NFCQAA6ClDaGAh1RCgrlarDafq60yr+rmWwKgh8qUJmHy13MfMQHqHtGO6xvJ2WuF7y4KwkOoY8t30pfSVdGoCAAB6xBAaaKm1OGcGxSsPkFt/NvOzK5KBq1LnHrU+9cqD6Znvd0m7plr/GmarzmtrLekvphpKH50AAICOGULD9KsrjVsD49X9fF7y2gB0pc5Pak3qGkbvtvzrTDM/1/rWcFX+mGYG0r9Njm0AANABQ2iYHLVu8qqGxqv6uZa7qKuaAaZJnb9sl2YG09dKeyzv2qmWAoGV/T3VMLqG0j9Ojo8AADAmhtAwfq2lLlYcHK/q+xpCA3DVNkm7pxUH0zPf17IfUMfXr6bPpdrc8LIEAACMiCE0zF09d+pK49bQeHV/dn7yvAPoxsaprpy+Ttpzha6XbJg4THUsr6ujP52+l1whDQAAC8wQGpapNZDXZIC84ve11vKSBMDkW5Suma6fZgbTM99vnhiG09PnUw2kf5Qc5wEAYAEYQjNtZtZNXnFYvLpBcn2tLk8AsLI6V6o1pmsYfYN0w7R32ittlJheJ6fPphpIH5quSAAAwBwYQtNXNRRekwHyin9WWTcZgHGoK6drWY8aSK9YrUXN9Dk+1TC6+nVy/gwAALNgCM2o1VVDtdbiVQ2QV/6zC5PHJgCTpjZFrKukZ4bS+yyv1qJmOhydZgbSf0jOVwAA4CoYQjMbtQbyysPiqxoq1/+P21cBGLK1U22EeJN04+Vf902bJibbEemg9L/puPoDAADgnxlCD1NdZTybQXJ9rauZ7RYPAAujlvPYI604mK6vNkGcXD9MNZD+XKrzJgAAYDlD6Ml2UaohcavVDZUvTQBAv9R5Wa0pfbN0y+XVFdPrJibHZelrqQbSX0/OuwAAGDxD6H64IM0Mj1ccFl9VlyQAYHptkGpN6ZmhdHXNxGQ4J30m1UD6J8kSZQAADJIh9MKq9Y9bw+KZWsPlul2zrpgBAFgT26dbpJmhdF05bePD/vtb+kSqgfSf6w8AAGAoDKHb6srk01MNjc9IKw+OV67+c3WlizWTAYBxWyfV1dK3Sbdd3raJ/vp1qmH0p9Ip9QcAADDNhjCErsFwDZKrGiyv+LX1fQ2ULXMBAEyqOr+7TpoZSNdw+lqJ/qnlOb6daiD9hVT7fQAAwNSZxCF0XXG8qgFy6/taIsPV3gDAkO2UVrxS+oapzgPpj/NSXRn93+nnyfkrAABTow9D6FrO4uRUtyLW8Hh1g+W6SvnyBADA3G2dbp/utLw9E/3xp1TD6I8ny3UAADDxRjWErlsLT001XF6xOole+edLEwAA3dkh3THNDKV3S3RvSfq/VAPp+upiDAAAJtJsh9A1MF5xiDwzSF75z+qq5TppBgBg8tQQemYofee0faJbp6W6MroG0ofXHwAAwKSYGUJfnI5PJ6XWUHmmWo/Z+nQAAMNR54u1XMfd0n6plvHYMNGdX6QaRtca0nV+DgAAvbdNqjcXAABwVTZId01vTX9IdYGCuqkuJDko1dXqixIAAPSS4TMAAPOxY5q5SrqG07XpIeN3XKqroz+W/lZ/AAAAAAAwbdZON0svTz9NtVl16wpejbbvpEcky6YAAAAAAFOtln17dPp0Oje1BqYaXbVe9PvSzZM7IAEAAACAqbZuumN6W/pLag1NNbr+mJ6XtksAAAAAAFPvOum56bvp8tQanGrhq9/1F9O90zoJAAAAAGDqbZ4ekj6Zzk+t4akWvlPSm9OeCQAAAABgEDZI90n/k2pN49bwVAvfz9KT02YJAAAAAGAQ1kv7pw+lM1JreKqF7aJUHwDcIS1KAAAAAACDUOsX3ym9N52cWgNULWzHpFekXRIAAAAAwGCsnW6T3pH+nloDVC1cV6RvpYel9RMAAAAAwGCslW6e3pSOTq0hqhau09Nb0rUTAAAAAMCg1EB6n/S69KfUGqJq4fpuekiqtbsBAAAAAAbn+qnWNP59ag1RtTCdmt6Ydk8AAAAAAIO0R3pxOiy1BqlamGrt6AemdRMAAAAAwCDdKL01nZxag1TNv/rdvj7tmgAAAAAABmmdtF86KF2YWsNUza8r0sHpfql+3wAAAAAAg7Rpekz6dqrBaWugqvl1Ynpt2iUBAAAAAAzWNdIL0x9Sa5iq+bUkfS3dO7k6GgAAAAAYrLXSPunt6ZTUGqhqfh2fXpVq8A8AAAAAMFh1xe7+6RPpotQaqGru1dXRX073SGsnAAAAAIDBqvWjH5u+m6wfvfAdl16RdkwAAAAAAINWy0i8KP0xtQaqmnuL0xdTXYG+KAEAAAAADFatH71vekc6LbWGqpp7x6aXpu0TAAAAAMCgrZcelL6dWgNVzb3L0+fSXZOrowEAAACAwds9vSGdmlpDVc29o1IthbJdAgAAAAAYtLo6+oHpm6k1UNXcuyx9Ot0p1bIoAAAAAACDdq10QDoltYaqmntHphekbRIAAAAAwKCtmx6QvpGuSK2hqubWpel/0+2Tq6MBAAAAgMHbLf1HOjm1hqqae39Kz01bJQAAAACAQauro++XDk6ujl7YLkofTvsmAAAAAIDB2zW9Lp2UWkNVzb2fpEek2jASAAAAAGDQ1kn3Tf+XXB29sNXmkDXov0YCAAAAABi8a6bXphNTa6iqubU4fS7dMdnIEAAAAAAYvLo6+gHpB6k1VNXcOzw9PW2aAAAAAAAGb590YLoktYaqmlvnpfekPRMAAAAAwOBtm16ebGS48H033T/VFegAAAAAAIO2Xnp4OjS1Bqqae39PL0vbJQAAAACAwbtF+kS6PLWGqppbl6aD0q2SjQwBAAAAgMHbMb0unZZaQ1XNvV+nJ6QNEwAAAADAoG2QHpd+m1oDVc29M9Nb0rUSAAAAAMCg1RISt0ufT0tSa6iquXVF+lq6e1qUAAAAAAAGbdf05nR2ag1VNfeOSs9LWyYAAAAAgEHbOD01HZFaA1XNvYvSh9O+CQAAAABg0GqpjrumWlKiNVDV/PpJenhaLwEAAAAADNq103+mC1NroKq5d0p6XbpGAgAAAAAYtK3Ty9NpqTVQ1dxbnD6X7pjqKnQAAAAAgMHaMD0tHZ1aA1XNr8PT09OmCQAAAABgsNZOD0m/Sq1hqubXeendac8EAAAAADBYtXzEndI3UmuYqvn33XT/tE4CAAAAABisfdInUq1x3Bqman79Pb00bZcAAAAAAAZr1/Sf6aLUGqZqfl2aPpZunAAAAAAABmub9Mp0emoNUzX/fpgekGqNbgAAAACAQdooPSMdk1qDVM2/v6UXpC0SAAAAAMAg1cZ6D02/Sa1BqubfBem96boJAAAAAGCQ1kp3Sd9KrUGqFqavp7ul+n0DAAAAAAxSba73ybQktQapmn9HpKemjRMAAAAAwCDtlt6TLkqtQarm31npTWmXBAAAAAAwSNum16VzU2uQqvm3OH0m3TpZqgMAAAAAGKQt0itSXb3bGqRqYfpVelRaLwEAAAAADM6m6UXptNQaomphOjm9Mm2XAAAAAAAGpzbVe26qYWlriKqF6dL032mfBAAAAAAwOBukZ6TjU2uIqoXrB+l+ae0EAAAAADAo66enpGNTa4CqheuY9Ly0eQIAAAAAGJR10+PSkak1QNXCdUF6d7p2AgAAAAAYlFoy4hHp8NQaoGph+1q6a1orAQAAAAAMxqL0oPS71BqeamGroX8ti7JRAgAAAAAYjLpC9z7pl6k1PNXCdmZ6Y9o5AQAAAAAMRg2j908/Sa3hqRa2xenT6VbJUh0AAAAAwGDUQPRO6fupNTzVwveLVOt0r5cAAAAAAAbjNumbqTU41cJ3Unp52jYBAAAAAAzGLdJXU2twqoXvkvSRtHcCAAAAABiMG6cvpNbgVKPpe+m+ae0EAAAAADAIdYXuZ9IVqTU41cJ3dHpO2iwBAAAAAAzC9dMn0pLUGpxq4Ts3vSXtnAAAAAAABuG66WNpcWoNTrXwXZ4OSvsmAAAAAIBB2D19ONWAtDU41Wj6brpHWpQAAAAAAKberun96bLUGppqNB2enpg2SAAAAAAAU6/WLX5PuiS1hqYaTaekl6etEwAAAADA1NsxvSNdnFpDU42mi9J70x4JAAAAAGDqbZ/eki5MraGpRtMV6QvpXxIAAAAAwNTbNr0hnZ9aQ1ONrp+lB6a1EwAAAADAVKs1i1+bzk2tgalG19HpmWnjBAAAAAAw1bZIr0xnp9bAVKPrrPT6tEMCAAAAAJhqm6WXpDNSa2Cq0XVpOjDtlQAAAAAAptom6d/Taak1MNVoOzjdJa2VAAAAAACm1kbpuenk1BqWarT9Lj06rZcAAAAAAKbWhqk20TshtYalGm31e39hqrW7AQAAAACm1vrpqem41BqWarSdn96Rdk0AAAAAAFNr3fSYdERqDUs12hanT6WbJQAAAACAqbUo3TcdmlrDUo2+Q9K9U/1dAAAAAABMpbXSHdI3UmtQqtH35/SUVOt3AwAAAABMrX3Tp9OS1BqWarSdll6Vtk0AAAAAAFPr2umD6dLUGpZqtF2c3p+umwAAAAAAptaO6c3p/NQalmr0fTndLtWyKQAAAAAAU2nL9LJ0emoNSjX6fpkemtZJAAAAAABTaaP0zPS31BqUavTV7/45adMEAAAAADCV1k2PSn9MrUGpRt856Q3p6gkAAAAAYCotSvdOP02tQalG3yXpv9JuCQAAAABgKtWmebV53tdTa1Cq0bc4fSLdMAEAAAAATK190ifTktQalmr0fS3dJgEAAAAATK3d0/vTpak1KNXo+3G6Z6or1QEAAAAAptIO6Y3pvNQalGr0HZYekdZJAAAAAABTaYv0knRqag1KNfqOTU9PGyYAAAAAgKlUA9AahB6VWoNSjb76IKA+EKgPBgAAAAAAptLa6b7pkNQalGr0nZtqqZTtEwAAAADA1Lpp+kRanFrDUo22S1JtIlmbSQIAAAAATK2d05vSOak1LNVoW5I+mfZJAAAAAABTa5P0rHR0ag1LNfq+nm6X1koAAAAAAFOp1o2+f/pRag1KNfp+ku6dFiUAAAAAgKl181RLRVg3upv+mB6V1k0AAAAAAFNrl/SWdG5qDUs12v6Wnpk2SgAAAAAAU2vT9Ox0bGoNSzXaTksvS1smAAAAAICpVetGPzDV2sWtYalG23npzWnHBAAAAAAw1W6ZPp2WpNbAVKPr0vTBtEcCAAAAAJhqu6a3pbpKtzUw1eiqDwDqg4B9EwAAAADAVNssPTfVZnqtgalG2zfSHdJaCQAAAABgaq2THpwOTa1hqUbbz9J906IEAAAAADDVbpU+m6wbPf4OT49J6yYAAAAAgKm2W3pHsm70+Dsu/VvaKAEAAAAATLVaN/oZ6U+pNTDV6Do9vSJtmQAAAAAAplptnnfn9MVkqY7xdn56S9oxAQAAAABMvWumN6QzUmtoqtF0afpg2iMBAAAAAEy9DdJj069Sa2iq0VRXon8q7ZMAAAAAAKZeLdVxi/TxdFlqDU41mr6ebpfq7wAAAAAAYOpdPb0snZBaQ1ONpp+keyXDaAAAAABgENZJD0zfT62hqUbTYekRqX7/AAAAAACDsFd6X7owtQanWviOSU9LtW43AAAAAMAgbJGek/6aWoNTLXynpBelzRIAAAAAwCAsSvunr6UrUmt4qoXtnPT6tF0CAAAAABiM3dNb09mpNTzVwnZxenfaNQEAAAAADMZG6Unpd6k1PNXCtjj9T7pBAgAAAAAYjLXSbdKn0uWpNUDVwvaldMsEAAAAADAoO6ZXp5NTa3iqhe376W6pPggAAAAAABiM9dLD0o9Ta3iqhe1X6UFp7QQAAAAAMCj7pg+nC1NrgKqF6y/pCak+BAAAAAAAGJTN0zPSYak1QNXCdUJ6btokAQAAAAAMSq1ffKv00XRxag1RtTCdmV6VtkoAAAAAAIOzZXp2OiK1hqhamC5Ib0s7JQAAAACAwamro2+bDkqXpNYgVfPvslTrc18nAQAAAAAM0tbpeak22WsNUjX/rkifSbVpJAAAAADAINXV0XdIn0x1BW9rmKr5941Uv+f6fQMAAAAADNJ26YXpqNQapGr+/SzdJy1KAAAAAACDVAPSu6TPpstTa5iq+fXH9Pi0fgIAAAAAGKzt00vSsak1TNX8Ojm9LNUa3QAAAAAAg1VXR++XvpAWp9ZAVXPvwvSetEcCAAAAABi0HdMr0t9Ta6CquXdFqkH/rZNNDAEAAACAQVs73TN9JS1JraGq5t6h6cFpnQQAAAAAMGg7p1enE1JroKq5V+txPzttmgAAAAAABq2u2r1P+nqqpSVaQ1XNrXPSm9I1EgAAAADA4O2a/iOdnFpDVc2ty9PH0z4JAAAAAGDw1k0PSN9MraGq5t530z3SogQAAAAAMHjXSm9Iro5e2P6UnpGsGw0AAAAAEHV19H3TV9Li1Bqsavadm96Vrp0AAAAAAIgd04vTX1NrsKq5dXC6e7JUBwAAAABArJVun/4nXZRag1XNviPTs9PmCQAAAACA2CI9Lf0qtQarmn0XpPemPRMAAAAAAMvdKP1nOiu1hquafd9O90lrJwAAAAAAYoP08PSd1BqsavYdk56ftkwAAAAAACx3rfS6dEJqDVc1uy5MH0j7JgAAAAAAlqvlJO6ePpcuT60Bq2bXL9OT06YJAAAAAIDltku1tMQRqTVc1ew6P9XV0TdJAAAAAAAst1a6VfpIuiC1BqyaXb9O/5o2SwAAAAAALFdLSjwx/TS1hquaXTXU/1C6WaphPwAAAAAAy10/vS2dnloDVs2u36Wnp80TAAAAAADLrZcemA5OV6TWgFVr3oXpwHTL5OpoAAAAAIAV7JxekY5NrQGrZtcf0gvSDgkAAAAAgOUWpbukT6ZLU2vAqjVvSfp6eljaMAEAAAAAsNxW6Vnp96k1YNXsOid9MN06Wa4DAAAAAGC5GpjeNL0vnZtaA1bNrqPSK9OuCQAAAACA5TZKj0mHpNZwVbPvB+kJadMEAAAAAMBy105vSCel1nBVs+uidFC6a1o7AQAAAAAQ66S7p88kmxkuTCekt6SbJOtHAwAAAAAst3V6ZvpVag1XNfuOTK9N108AAAAAACy3d3p7Oi21hquafYell6bdEwAAAAAAsV66X/pSujy1hquafT9Pz007JQAAAAAA4urpeekPqTVY1ey7Ih2Snpa2TQAAAAAAg1eb7d00vTednVrDVc2+xekb6XFpiwQAAAAAMHgbpIekg9OS1BquavZdmr6cHpO2TAAAAAAAg1frG784/SW1BquaW7UWdw35n5S2SQAAAAAAg1bLdfxL+lA6L7UGq5pbtWTHd9PT0w4JAAAAAGDQNkqPSjU4bQ1VNfdqU8MfpeekXRIAAAAAwKDtml6Vjk2toarm1y/SC9PuCQAAAABgsBalO6SPpQtTa6Cq+fW79PK0ZwIAAAAAGKxN0xNTLSvRGqZq/h2RXpv2TrVeNwAAAADAIF07vT4dn1rDVM2/I9MB6cbJQBoAAAAAGKS1093SJ9MlqTVM1fw7Jr0l3SIZSAMAAAAAg7Rlelr6eWoNUrUw/T29I9061ZrdAAAAAACDc4NUV+6eklqDVC1MJ6V3p9unuiodAAAAAGBQ1k33Tp9Pl6XWIFUL06npfenOaZ0EAAAAADAo26Znp9+l1hBVC9cZ6cNp/7ReAgAAAAAYlH3Tu1INS1tDVC1cZ6ePpnul9RMAAAAAwGDUUPSB6WtpcWoNUbVwnZsOSvdLGyYAAAAAgMHYIf17+mNqDVC1sF2QPpUelDZOAAAAAACDsFa6SfrPZLmO8XRRqs0jH542TQAAAAAAg1Cb6t0/fSldnloDVC1sl6QvpoekjRIAAAAAwCBsm56dfpNaw1MtfOenWkP6nmndBAAAAAAwCDdMb02npNbwVAvfmekD6Q5pUQIAAAAAmHrrpLpK9zPp0tQanmrhOyG9Ld001RreAAAAAABTb8v01PSz1BqcajT9Nb027ZkAAAAAAAbhuumAdHxqDU41mn6XXpSumQAAAAAApt7a6S7p4+mi1BqcajT9OD0jbZcAAAAAAKbeZukJ6ZDUGppqNC1O30yPS5snAAAAAICpd6306nRMag1ONZouSV9ID04bJhg0u3oCADBE+6ZHpL3SOulv6Yfpy+m8BADTZlG6TXpsqsHoponxOD99KX0yfSddngAAAJhSm6SPptYVS9WF6R3p6gkAptVG6ZHp2+mK1DomajSdkd6XbpfqgwEAAACmyBbpl6n1hnDlzk3PTN4cAjDtdk4vSX9OrWOiRtff0wHpugkAAIAJV0tu1O2vrTeAq+u7yVXRAAxBLdl6y1RX6Z6dWsdFja6fp6enrRIAAAAT6EWp9YZvTToh3SIBwFBskGrd6K+lxal1fNRoujR9Pt0nrZsAAACYANulC1Lrjd6aVm8IH58AYGi2T89Ph6XWMVKj6/T0rnTjVFeqAwAA0FOvTq03dnPpWQkAhqiGoPumd6YajraOkxpdf0j/nnZIAAAA9Ei9YT4qtd7MzbUXJgAYsvXSfdMX0mWpdbzUaFqSDk4PTxsmAAAAOnat1HoDN99emdwWCwBXu9o26ZnpV6l1zNToOjd9KN02OS8BAADoyANT603bQnRA8oYPAP7hBunN6aTUOnZqdB2dXpXqA3gAAADGqDZSar1RW6jekQyiAeDK1kn7p0+lS1LrGKrR9cP0xLR5AgAAYMRen1pvzhaydyeDaABo2yI9Jf0ktY6jGl0Xp/9N+6W1EwAAHalNVXZL10vXTJsmYHq8IbXelC10L00AwOpdJ/1H+ntqHU81umqJlFoqpZZMAQBgTPZMX0mXppVP0GqDj9+lun3weelWaf0ETJ5XpJWf46PqMQkAuGqL0p3Sx9KFqXVc1ej6Raqr012AAwAwQnulGjS3TshWVQ2rD021/utD0zUS0H//mlrP6VF0ebprAgDW3CbpsekHqXV81ei6IH043SJZWgwAYAHVydXPU+skbLYdlg5It07WWIN+ultqPX9H1XlpnwQAzN4eqfZzODG1jrMaXfXe5t/SVgkAgHm6Q2qddM23M9JB6WFpywT0Q9210HrOjrJac7HWmAcA5qYu8LhH+ly6LLWOtxpNl6R6X1Pvm1wdDQAwR+9PrZOthWxxOiQ9I22XgO7Um6dTUuu5OsqOSK4kAoD52zY9N/0xtY65Gl1HphemqycAAGbhqNQ6wRpVNZA+ONWGZZslYPzqKqrW83PU/TBtkACA+asPlm+ePpBq+avWsVejqfa9+HzaP1mGEADgKtSmJ62TqnF1cfpsun8ymILxqd3fW8/JcfSZtCgBAAtno/ToZDPD8XdcemXaOQEA0HDT1DqR6qJz04HpjsmACkZrx9R6Ho6rVycAYDRsZthNS9L/pfuldRMAAMvVkhitE6iuqyVCXpJ2SMBo/Cy1nn/jqu6AAABGZ51kM8NuOjm9Ie2eAAAGr06MWidNfanWj/5yuneqk2hg4TwztZ534+r8dIMEAIyezQy767vp4cnygwDAYH0ptU6U+thJqW4rdDUBLIzaGLTrTYz+mrZMAMB41GaGt0gfS5em1vFZo+nM9I50/QQAMCh/Tq0TpL43czXBegmYu7el1nNsnB2c7CoPAOO3XXp5snb0+PteekBytycAMAgXpNZJ0aR0Snptqk3WgNm7ZqpNdFrPr3H2xgQAdKM20Xto+nFqHac1uo5PL031gQAAwFSqT91bJ0KT2OXp0+k2qW4xBNZcPXdaz6tx97AEAHRr33RguiS1jtcaTbU0yv+kmycAgKmyfmqdAE16v01PTBsl4KrVm53Wc2ncXZT2SQBA92ojw5ekulK3ddzW6PpFekyykSEAMBXqiuHLUuvEZxqqjT/enHZLwOr15fbbv6V60wsA9EPdPfmgdEhqHbs1uk5LtTH7zgkAYKL9NbVOeKapK9KX0x2TpTqg7f6p9fzpotqop9amBAD65UbpQ+ni1DqGazTV/h2fT97PAAAT6+OpdaIzrf0q1bqzdqGGK6s3ND9JredNF70zAQD9tHV6YToxtY7jGl2Hp6elTRIAwMR4YGqd3Ex7dcv/s5OTN/iHm6XW86WrHpwAgP6qPWaeko5JrWO5Rte56V3pugkAoPfqlvcayLZObIbQ2emAtEMCrna1j6XWc6WLzkvXSQBAv9Vdho9OR6TWMV2j7Zvp3mntBADQWw9IrZOZIXVp+kjaM8GQ7ZQuTK3nSRf9Pm2YAID+W5TqTsvfptZxXaPt2PTvqZZLAQDopfen1onMEPtqun2y6QdD9YrUem501YcTADA5ahj9iFRD0daxXaOtNo6sDSSvlwAAeqWW5fjf1DqJGWqHpnslw2iGpq48/ntqPS+66rEJAJgstWb0c9IZqXV81+j7SrpN8p4GAOiNumKh1kdunbwMubqdsG4rrN8PDMXDUuv50FUXpRsmAGDybJ7ekpak1nFeo+9nqZZhtG40ANAbT0gXpNbJy5A7PNVthbXxCky7ulrmkNR6LnTVn9OmCQCYTDdPNi/stiPTU5M9NwCAXrhmOji1TlyG3l/T41MtYQLTbPfUtw+kPpncTgoAk2uD9IZ0RWod6zWeTku1D4hNDAGAztWg51Hp1NQ6cRl6f0tPS3UiDdOqrpRpPf677OkJAJhs902XptaxXuPrwvTutFsCAOjUJull6dzUOnEZeiem2nBlowTTpj6M+lZqPfa7qt6w3jQBAJPtSal1rNf4q/W6P52cYwEAndsqvSldnFonLkOvbml7UbJmLdNm59S3D6GOTVsmAGBy1fJ2x6fWsV7d9b1092QJNACgU9unA9LZqXXSMvTOSq9MBmRMk8em1uO9y76cvDkCgMlWF3G0jvPqvj+kOgdcLwEAdKau+H1u+ntqnbQMvbpy9PVpmwSTroa9NfRtPda77AUJAJhcdbflRal1nFc/OiH9e9o8AQB0pm6je2T6XWqdtAy92uzjrWmHBJOs7oI4I7Ue5121ON02AQCT6/2pdZxXv6qLbN6YXGQDAHSqrpS8czo4tU5aht4lqXaervV1YVI9OLUe311Wm4NulwCAybRnah3j1c/OT3XHZ13FDgDQqb3SgenS1DpxGXKXpQ+mayWYRB9Krcd2l30nrZ0AgMn0s9Q6xqu/nZdek7ZIAACdqiUo6lPy2qyvdeIy5GoZgY+l6yWYJBum36bW47rLXpsAgMn0nNQ6vqv/nZNqY3ZrRgMAnds4PTMdk1onLkPuivSpdMMEk2L3VG84Wo/prqrn0v4JAJg8O6U6lreO8ZqM6sKjl6bawB4AoFN1u/wDk9vt2n0x3STBJLhfaj2Ou6w2TrTuOgBMph+m1vFdk1Wdj70obZIAADr3L+kLyRUP/9zXU/1+oO/eklqP4S6rD7nWSwDAZHlGah3bNZmdll6QNkoAAJ27dnpvuii1Tl6G3HfTHdNaCfpo3dTHq5bemQCAyXL1tCS1ju2a3E5JteZ37SsCANC5bdIr0qmpdfIy5H6c9kuG0fTRjqmPz9sHJwBgstRFGK3jepfV8hI/Sl9Z3g/Skemy1PrPq91J6VlpgwQA0Lk6KXlKOjq1Tl6G3C9Sralda2tDn9QV+327cum8dJ0EAEyOeh/QOq530ZfTLdKi1FJ3hF0/PTodmE5Orf8eXbkT0tOS5dMAgF5YJz0i/TG1Tl6GXA3oa828jRP0Re2G3nq8dtlhyTqEADA56u7Iy1PruD7OXp1mexdiDav3TS9LP0mWFll9f00PSO72BAB6oU7m7pvqKuDWycuQOzO9LtX6edC1eq5+NbUeq11WVyYBAJOjNuluHdPHVQ2QF2IwunV6ePrfZP+bVVdLndw8AQD0Qp0I3iV9L7VOXobcJemD6XoJurRl6uNSOk9IAMBkeExqHc/HVd2NudA2T7XUyKGp9b+pZcP6ayYAgN64VerjFZd9qDZLuV1yWxtd2SddnFqPz66qf54bJQCg/zZLdZFF65g+jnZJo7RXels6PbX+94dc/b2/MdXQHgCgN2qo9Kl0RWqdxAy5Wr7kIanW1oZx6/oKpla17qA3NAAwGT6fWsfzcTSu8+famK/WRP5asn70lasB/ZPTqjaFBADoxHXSR1IfNjHpW8emf0ubJBin96XWY7LL6g2tuwQAoP8elFrH8nHUxeBzp/SSVB+at/6ZhlotX3LjBADQK3Xr3H+mvi0F0IfOSq9POyQYh/XTz1Pr8dhlr0gAQL9tlM5PrWP5qKs9LrpSH5bfKdUH566OXlb9Ht6TtkgAAL1y9fSGdF5qncgMuUtTXTV+/QSjtnM6M7Uei112vwQA9NtBqXUcH3W1v0Uf1AU2ByRrRy/r1FRLvrmrDQDona1SXf17QWqdyAy9/0t3TE7kGKX7p9bjr8vqyqraFAgA6K/9U+s4Puoelfpkg1TD11+m1j/v0PpRul4CAOidbdOb00WpdSIz9H6VHpFq+QQYhQ+k1mOvy45JWycAoJ9qbeajUus4Pspqeb++ukX6eLostf7Zh1Itv1j73ti4EADope3TO9IlqXUyM/ROS3XL364JFtLG6c+p9bjrsu+mdRMA0E/PS61j+Cj7feq7Wn7w5emE1Pp3GEp1LlfLlgAA9FLtPl2bWwz9CoJVdUX6WrpHWjvBQtg39fE51+ernQBg6GqTwC7uZtwjTYL6MP1B6ZDU+vcYQuemxyZLDAIAvVWfmtcyAZen1gmNrna1Y9OL03YJ5uv5qfU467onJgCgnz6UWsfvUVZXGU+avdMHUy1V0fp3mva+mLxnAQB67VrpwLQ4tU5otOwK1k+k2yRXGTBXtW7fT1LrMdZl9fi+dQIA+mef1Dp+j7I/pklV++G8Mp2aWv9u01wtL3i/BADQa9dOtdFHLUfROqnRsv6Qnp42SzBbe6U+3n1Qb9R2TgBA//w4tY7fo6zOWSbZBqnu9jo8tf79prn/ThslAIBe2zN9OrVOaPSPzk/vS3XrH8zG61PrMdV1v07esABA/zwstY7do6zOV6ZB3Yl29/Sd1Pr3nNZ+k66ZAAB6r4artbZY66RGV66WWHhkWj/BVdkw/TW1Hktd98lkyRkA6JfagO9vqXXsHlVHp2k7J6ilTf4nDWVPnNPT7RMAwESotWJ/mlonNrpydaL3plTrbMPq3Dm1HkN9qDbjBAD65ampddweZTdP02in9MZ0dmr9e09TNXB/RnKRAQAwEeqk5QHpyNQ6udGVq3W165a/R6eNE7R8ObUeP11Xj997JwCgP+qOuxNS69g9qmrz8mm2SXpWOia1/v2nqQ8nd20CABOjbgWsTflq5+XWyY3+uVo7ujYHuUOqNelgxo1S6zHThy5M03r1EwBMqn9LreP2qLo07ZCm3drpgemXqfV7mJbq7tYh/H0CAFNks/TaVIOq1gmO2h2b6ve2R4Ly2dR6rPShWl7mOgkA6IfaV+KU1Dpuj6pp2aBwTdTdn7WJ4c9S63cxDZ2YbpEAACbKjumDaUlqneRo1f04PTltlRiuG6Ra/qL1GOlD9cHJ9gkA6IcXpNYxe1SdlYa2vFwNo++SfpRav5NJ76K0XwIAmDjXT19JrZMcrb7aLOTr6TFp88TwfD61Hht96Tep7n4AALpX6xifkVrH7FFVG9sNUQ2j75i+n1q/l0mullq5fwIAmEi17vG0r6U2yupk8Evp4aneYDAM9Qag9XjoU7XR5noJAOjeS1LreD2qjkq1bvKQ3TZ9K7V+P5Pa4vSoBAAwkWrzvYemIewyPcrqNrlaL/hBaWi3QA7NBunc1Hoc9KlPJJtrAkD3NkonpNbxelS5anaZW6VvpNbvaBKrZeH+NQEATKz103PSOal1wqM17+L05fSEtG1i+hyYWn/3feutCQDoXi3l1jpWj6qfJP7hHqmuEG/9riaxWmscAGCibZc+nPq8+dokVZtA/jA9P+2RmA73Tq2/7z72vAQAdKvuTvp1ah2rR1VdBcw/1N1sL091wUjr9zVpvSbVOtgAABPtZunQ1Drh0dz7Y/qPVG8Khr5W3yTbMbX+fvtarVsOAHSr9mNpHadHVS1DwT/bNdW+Lq3f2aRVd70ZRAMAE6+u2HhsOiW1Tno0v85OtY70k9LOiclRJ/uXpNbfax+7LN0lAQDdqiXbWsfqUXX7RNu0LNHx4gQAMBU2T/Up++WpdeKjhemI9I60f9ow0W9nptbfY187P904AQDduW4a5zn1T5MrZVdtWpboeHQCAJgae6ZvpdaJjxa2usr2++nV6U6pdlWnP2oplUn8UOasZBANAN16d2odp0dV7WXB6tUSHV9Mrd/fJFTnpXdNAABTo66kuF86NrVOgDSaajmF2uX8DenuabNEd66fWn9Pk1AtA1NrvgMA3dgqnZpax+lRdFiyF8maqSU6Tkit32PfOy/tkwAApkotF/GKdFFqnQRptC1Jv0rvSY9J10u1hjfj8ZLU+nuZlM5NdswHgO7UpsGtY/SoempizdSHBJ9Jrd9j3zs5XTMBAEydOsmZ1JO0aasGi99NdbX0/dNOiYVXa6SP8+qlUVVrRN8mAQDjV3cXHpxax+hRdE66emLN1N/P41KdL7V+n33uT6kG6QAAU6nWLT4ytU6E1F0npW+kN6fasORGaf3E3NStrJ9Prd/1JHZBsms+AHRjtzTOuwoPSszO7unQ1Pp99rkfp9p0EQBgKtUSHa9Pk7hh25BanA5Pn0wvTfdJtZzHeolVq80h63fW+p1OcvXmtz5EAgDG7wWpdXweVXdOzM666TWplsNr/U77Wm2ACQAw1fZOP0+tkyH1tzqxPip9Pb0rPSPVLtu15MqQ15uuf/d7pT+n1u9tGro43S0BAOO1Tvptah2fR1HduVgXjjB7t06Ttjl7LdEHADDVatmCZ6e63b91QqTJ6rJ0dPp++mh6bXpiqiH1ddI0vpnZIj031WC+9TuZti5Jd08AwHjdLI3zKtv3Juam9gb5n9T6vfaxs9OCbFRYi2QDAPRZnfT8V7rH0p+YZmekU1Jt2ldfW99XZ6VasqVvNkm3SLVZX1VXuwztSqH6sOFB6atLfwIAxuUtqZbmGJf7pS8v+5Y5eHj6SJqEc8Va0/p2aV7n34bQAMAkqHOWh6Va4mHb+gMGr3Yar2H0itWVGit+X1fRX7iar5emusJjdeoW141Xqq5g2TntskL1Ycl1U13BP3T1BuUpqa54BwDGozaO/mW64dKfRq/Ot2rD6hOW/sRc3DR9Je2w9Kd+e1N68bJvAQCm39bpv9PKt4lJc+2KVBst1kC61jWu4XQNuM9b/met/x+tWW9IQ14LHADGrQbQ4zx/qWXWfAA/P3Vhw+9T6/fbt/ZLAACDUrtyD2WdXWmS+0Kqq8cBgPGo/Shax+RR9frE/GyavpZav98+dVraMQEADMpG6Y2prmJtnSRJ6ke/STslAGD06i6k76TWMXlUPSYxP3VFeS092Pr99qmvJ8s7AwCDtG86LLVOkiT1o5NSrXsIAIzeNVLtj9E6Jo+i2pj4ton5e2Zaklq/575Um1ICAAxSbcTy5lTr+7ZOlCR130XpgQkAGL2HpNbxeFSdkXZPzN/dU+1R0vo996HjkuXWAIBBu106NrVOliT1o5cmt3ECwOgdmFrH4lH157RtYv72Tn9Prd9zHzogAQAM2mbpI6l1siSpH/1PqjsYAIDR2TD9NrWOxaPqD8kgemHskvq6GXstwXLdBAAwePdNtYNz66RJUvcdmq6VAIDRqWPtWal1LB5VtV+LQfTCqM2d/5Jav+eu+3ZydxsAQGyXvpRaJ02Suu+8VDvqewMDAKNTawyPe++UGkRvk5i/HdIRqfV77rpaexwAgKjh1uNTDbtaJ06Suu9TacsEAIzGK1PrGDzKfp+2T8zf1dPhqfV77rIT06YJAIDldk2HpNbJk6Tuq813bp8AgIW3KP1fah2DR9nf0g0S87dj6uMm7C9JAACsoE6+n58uTa0TKEndVrcK127r6yUAYGHVXUdHp9YxeJSdk+6cmL890qmp9XvuqtPTxgkAgJXslf6YWidRkrrvl+k6CQBYWDdMXSxTd3l6XGL+9knnptbvuauekwAAaNgoHZhaJ1GSuu/C9KRk00IAWFj7pcWpdfwddW9I6yTm53apT3d31trQ6ycAAFahrsi4KLVOpiR135fTLgkAWDhPSa3j7jiqfVpqfWPm57Gp9fvtqnpMAQCwGrU8x59S62RKUvfVB0W16Y0rbABg4bwptY674+i0VFdkMz9vTq3fbxcdk1zlDgBwFTZJn0itEypJ/egv6a4JAJi/2rT7s6l1zB1Xr08Gl3O3dvpqav1uu+jRCQCAq1Brz9ZtZJek1kmVpH70mXSNBADMz4bpZ6l1vB1XP017JuZm09SXuzrrn6M+3AAAYA3UjtN/Ta0TK0n96IL0wrReAgDmbrt0dGodb8dVbbL3srRuYvb2Tn25kObOCQCANbRZqqstWydWkvpTXXHjzQ4AzM9u6cTUOtaOs9+lGydm76mp9Tsddx9NAADMQi3P8Yx0WWqdYEnqT59KlugAgLmrJTFOT63j7DhbnN6YNkqsuXrv0oeLaM5P/u4AAObgpunY1DrJktSfLk5vTdskAGD29k3npNZxdtwdnx6RarjKmtk8/T21fp/jrP7eAACYg63T91LrJEtSv6orcF6T6o0YADA7t0q190LrGNtFtXHiLRJr5u6p9XscZwcnAADmqDZKeV9qnWhJ6l9nptq80C2hADA7d0p92ehupo8nS2+tmVqXufU7HFdL0vYJAIB5eHqqtepaJ1yS+tfJqdZ3Xy8BAGvmnuny1Dq2dtWF6YBUdymyalulU1Lrdziunpv+H2uqAADMzZ3TZ9OWS3+C8aq1j2ud8lrz77RUmwit2Bmp3qTV1fsrV29Kdk3XS7Xu415pKO8LjkuvTgel+iAJAFi9+6Q65+3bB7m19NZ/prens+oP+CcPSZ9e9m0nfpfqXBMAgHm6dvpzan3yL82nuv31yPSd9KH00vTwdMt09bSQQ+Mt0kPTl9JlqfXPM239KT04LUoAwOrdJdWH261jatedm2ofiDqf4crqfPGHqfV7G1e7p6VcCQ0AMD91wvvJtP/Sn4alljioXctrB/UampYN0sYrtcnyr2snlqnfXV3FXL+/+rpi9Wd1NXOduI9bXdn/wFQ7mt8hTfv7hT+kt6RPpbrdGABou3X6etps6U/9U8Pod6T3pNoTgmVukn6Zujqne0qqCyoMoQEAFkANV9+cnrf0p+lWSz/U1SZfSLXO3Jqq88710+aploOoYWd9XfH7lb9ummqAPfN1EtbzrTdA9canlsOoTkgrD5hPTJemvtsjvSw9Ok37Bwj191RvXOtNUt3eCwD8sxunb6U+r8d8UTow1XH9mPoDlm5S+Nhl345dXaxTFzcYQgMALKAnpPenWnd3GtVSDTdMtUxEF2oIvfJgesWvrT+rK7DXSTVEbX2t5RhqbeBWdWVsdcHy6jbUlb+enWrYXIPnWo+wfkfTpm6jrGH0Y9K0D6PrQ4T3pVpjsq5WBwCu7PqplgvbYelP/XVFqosm3pp+Xn8wYDulo1NdEDJup6Z6rHRxhx8AwFS7TaqrhVdcC21a+nFiuK6VPpxqQN96fExTdaV6/bvW5o0AwJXVB9S1QXLrGNrHfpTum4a8F8R7U+t3M472TAAAjMA10+GpdRI2yR2a4Abpu6n1GJnGvpxqHUwA4B+2T7XWcOvY2dfqauAXpm3T0NT7k7rDr/V7GXXPSAAAjEitafyT1DoRm9QuThsmqGX9HpxqjevWY2Ua+2l6QKplXACAq11to1RLXrSOm32u7ng6KNWHzENaqvgjqfX7GHWfSwAAjFCdmH8ttU7GJrWHJJhRa28fkGot7NbjZRo7Kb0u7ZIAYOhqiYu3pNYxcxI6LD0t1V4i0+46qfU7GHW1d8qQl0IBABiL2qSwdqRunZBNYockWFm9qTk4tR4z01pteFQfMt07uToagKF7SprkfSPOTx9Mt0rTfHV0bSrZ+vcfdTdKAACMWJ3Ivim1Tsgmsdp8EVZWj/MHppNT63EzzdWyJK9K10gAMFR3S+em1rFykvpLeknaKU2bB6XWv/Ooe3wCAGBMnpdaJ2WTVl0NPaT185idLdIHUuuxM+0tSbWR4T3S2gkAhqY2MD4ytY6Tk1Yd17+RHpamZV+UukvzlNT69x1lb08AAIzRo1JXO1MvZHUVBazO7dKfU+vxM4SOS69Iro4GYGg2T59PrePjpHZOel+qzQwnfX3jLu7Q/HYCAGDM7p4uTK0TtEmpNmerNxiwOhuk16YhbVy4crV29A9SrZW5VQKAIai75p6bpuHii5WrD5rfnG6cJvHuwJum1r/XKDs1AQDQgVuk2im6dZI2Kb0nwZqoW3N/mlqPoyFVw/ivpLqtd+MEANOurhw+MbWOi9NQrR/9mrRnmhQ1OP9bav37jDIAADpSJ6t/T62TtEmorvCsYTqsibp19RlpGjYsWoguSAelWj+61mcEgGm1Xfpuah0Pp6nfpRen3VLf1RrNrX+HUQYAQIdqvdi/ptaJ2iT0+2SAxmzskD6ZWo+noXZG+q90mzTp60wCQEtt2PvqtDi1joXT1m/SK9PeqY9Ldtw2tf65RxkAAB2rQfRRqXWyNgm9IMFs3S1N8uN+VNXdEW9NtbHjOgkApkmtR3xEah0Dp7VjUl15XMf2Gsb3wXrpotT65x1VAAD0wCQPomuTxV0TzFZtXFhXRV2aWo+toVfrxv9PelDaNAHANKjj/1tSLe3WOv5Nc6enA9N90oapS+NeIgUAgJ7YOR2dWidtfe//0iTuDk4/XCd9J7UeW1pWDeq/mWpd7V0SAEy62rRwyHdF1YUcX0iPSVulcXtVav1zjSoAAHqkhkt1y17rxK3vPTjBXNWHGI9Ip6bW40tX7repduO/SfIBEACTauP07tQ61g2pWiv7e+nf0jXTONwxtf5ZRhUAAD1TJ57HptbJW587OW2eYD62TLVJ3xBv0Z1rJ6T3pwemrRMATJq6Kvp3qXWcG2K1seEr0g3TqD5s3ia1/rdHFQAAPTSpg+j3JlgIt0h1tW/rcaZVV8P7euNaa23un+oKMwCYBLUhby07dXZqHeOGWi3X97Y0ik2La43q1v/mKAIAoKdqs7/jUuskrq/VAOxWCRZC7SD/xFRX2bceb7rqLks/TLXu421S7YYPXdkkbbfsW4BVqteJD6fWcW3o1YD+f1MtYbYQ60gfklr/O6MIAIAe2y1N2iD6sLRugoVSg6tXp9rAp/WY05p3QTo4vSDtmxYlGIVNU12N/5L06fSXNLPMzs/To5JjBbA6dVfUr9LKxzIta0n6UXpRukGay7IdtZxX6797FAEA0HPXSn9PrZO5vvbCBAttx/SRZL3ohauuqPpGqiF/DQxrTW6Yixoo15qu9Vj6cbo8tR5zK1a3mNda5jbXBFal7op6ZDoytV5H9I/+nPZMs1ED7NZ/1ygCAGAC7J5OSq0Tuj52UaqruGEU9k7fSq3Hnubfn9J/p39NN0oLvf4k06EGx9dP/5a+ms5PrcfTmlTP5+slgFWpY9FjU3141XodGXrfTNdOs/WY1PrvG0UAAEyIGrydm1ondX2sbvl3dRujUo+tunL3j6n1+NPCVUt4fC8dkO6TrOk7TPWcu256avpUOiW1Hi9zra6cfnOqZTwAVqXuuqj9Iv6WWq8lQ+uE9OA013Pue6XWf+8oAgBggtwhXZpaJ3Z97KEJRqmujHpKWuiBmFZfLRH0f+kNqTZH2itZ33e61ECjrqqr51dtgjWuu3FOTA9PPsQEVqc22q07dv6aWq8l017dffL6NN8P7m6bWv/9owgAgAlTVztMypq4J6ctEoxavQl7bZrPkgCaX5el2pj0oFRrTN49XSMZJk6G+hChPkx4UvpEqmFw6+95XP0g1UZbAKtTG+zW8aY+GB3CnhF1d1J9ALxNWgg3Sa3/nVEEAMAEemZqndz1sfcmGJd6U1bLRhhG96ez0iHp3ekZab+0R3LldHc2S3X1Wx1LPpx+lS5Jrb+/Lqs7f+oDjdqYDOCq1LHlbak23W29pkxyNXx+Y9o2LaRa7q/1vzeKAACYUHULXusEr2/VVSm3SDBOhtH9b3E6KtVmSvVh1XNTrTldm91tkJi/ukJwl3Tv9Ir0+TSJm3r9LF0nAayJjVMtJVR3VCxJrdeVSemIVK/fCz18nrFPav3vLnhuiwIAmFx1LndgetzSn/rt9+mmqYZOME41jH5eelbapP6AiVGbLdWQuoamtQZ1Le9T6xLX1+q0VMOFIavjQA0mdk27Nb5eM62fpkFdqf3iVFfU14ebAGuizgNq8737pbulDVPf1aaLn0y1CewfUg1xR+Xm6efLvh0tQ2gAgMlWt7N/Kd1j6U/99oJUt0hCFwyjp08NIk9NKw6mZ76f+VpLgZybzkuXp0lRr+1bL68euyt+v1Nacdi8URqSWtrlCemYpT8BrLl6vbxrqoF0fa3X0z6o41ntqVCvbzV4rqHwKAfPK7pj+t6yb0fLEBoAYPLVLYffTX1f8uKiVLfZH7f0J+iGYfRwXZxqIL26alhd1SaLdefGytUge1V/XusW11XHVS0n0vp+5Z/rMbjioHnma63ZzKpdmOqDzQ+kcQ1qgOmzXdo31eZ8N15efcA3avVB6aHLq4Hzr1O9rnXhAamWaho5Q2gAgOlQg4sfp+su/am/vprumwwN6NrMMLo2yjPwg8n0rfSkdPzSnwDmb8tU6yRfI22/Qjus8H39Z+pctq5gnvm64vd1F86JK1VLTNXXWmKqvu+Lf03vX/YtAACsmbotu66sqBPgPnf/BH1RA+jnpLq1v/V4ldTv6gr2xyQX2QHM3utS67V1FAEAMEVulmrzptaJX1+qqz82TdAntZRC3ZL6o9R63Erqd59I7moAmJ2Pp9Zr6igCAGDK1BVhrRO/PvXOBH1101QDrVrnt/X4ldTP6o6GWyYA1szMJojjCACAKfSO1Dr560tLUm0CA31Wu+a/IdXajq3HsaT+VRtFviTV3Q0ArNqidH5qvZaOIgAAptA66TupdQLYl36VDAmYBBunp6W/pNZjWVL/+l6qD5IAaLtOar1+jioAAKbU1unY1DoJ7Eu1IzdMirpiaP/0uXRZaj2mJfWnM9J9EgD/7Imp9do5is5MAABMsb3Thal1MtiH6oS0huUwabZNz0uHp9ZjW1J/ek/aMAHwD+PclLA2fgYAYMo9OLVOBvvS+xJMqrVSbYT2oTTOdRUlza4/pBskAJadvxyfWq+Xo+iDCQCAAXh9ap0Q9qEr0o0TTLpN0uPTj1PrsS6p2y5OT001fAEYsmun1uvkqHpOAgBgAGot26+l1klhH/ppqn9GmBbXS29Op6bWY15Sd30xWQoKGLIXptbr46i6cwIAYCA2T39OrRPDPvTYBNNm3XT3dGA6K7Ue+5LG3wnpjglgiH6TWq+No2hxqrvFAAAYkLo687zUOkHsurpitAblMK1qIL1f+nCqTTlbzwNJ46uWgzog1XMTYCiuk1qviaPqlwkAgAF6eGqdIPahdyQYghp63TXVRj2np9bzQdJ4+kXaIwEMwStT67VwVDm/BwAYsI+m1kli19XtenslGJJ1Uq2V+P50Wmo9NySNtvPTY5JNC4FpVh+C13JErdfBUfWABADAQG2ajkytE8Wu+34yBGCoaiB9p/T2dHhqPUckja7/TZaGAqbVQ1PrtW+UXT0BADBgN0mXpdbJYtfVCTJwtavtnJ6UPpvOTq3ni6SF7dj0Lwlg2vwktV73RlVd9AIAAFd7fmqdMHZd3SZoF224srpK+lbp1enQtCS1nj+S5l89v96SNkwA0+CWqfV6N8oOTAAAcLVF6RupddLYda9PwKptlR6S6g3eian1PJI0v/6UanADMOm+m1qvc6Ps8QkAAJaqddpOTa0Txy67OO2SgKtW66jvkWpjtQ+kP6QrUuu5JWl21VXRb0obJIBJdJfUen0bdXVuAgAA/89+qXXi2HW1QRQwN1ukem6/Jn07nZ9azzNJa9YR6eYJYJLUB9W/TK3XtVFWH4gDAMA/eWtqnUB2ndugYWHUmtL7pKeng9IxqfWck7Tq6qroNyZXRQOT4pGp9Xo26l6V/p+ahAMAQFkv/TTdZOlP/fGzdOtUJ7PAwtou3TDtvUI3SOsnYNXqquha6/QXS38C6KfaP6LWtq/j/bjtlQ5f9q0hNAAAV3bt9Nu08dKf+uPh6VPLvgVGrK6YrjUcZ4bSM0PqXRPTq9bhP3cVXZRqjfGaIaybNkybpxpu7JB2Xv5nQ1O/k/ekV6Tz6g8AeuaD6cnLvh2rGnxff9m3yxhCAwCwsrpV/73Lvu2Nv6frpRqSAN2ooWNd1VQD6euka63QRol+OjOdmE5azdez0mVprmq2sGOqgUPdTXOrdLtU65IPQf0en5W+lNy1A/TFbdKPln07dq9Lr1z27TKG0AAArGxR+kG67dKf+uOl6Q3LvgV6pN5XbptWHEpXuy3/WlfJeu+58Gq4fHKqIXJ9XfH7Ff/sktSFtVOt6X+/9LB0jTTtvpJqGF0fnAJ0qT44/k2q43AXbpQOW/btMk4EAABoqascf5/6tPHSBamWCzll6U/ApKj15q+Z6o1wXS1b61Ku2NWXf61Bdi0FMlS1tMM56exUVybPDJlbw+V6Hbw0TYr6cPOu6WnpvvUHU+zCVFf//WdaXH8AMGY17/1keujSn8bvyFR3MF7pzhBDaAAAVuWF6U3Lvu2ND6WnLPsWmDI1qKzlG1YeUlfbpFqrfpMVvs604s/139GFGgjXFcdVLRs087UGyjND5ZW/X/nPzk81iJ52+6S6TfteS3+aXr9Ldbz65dKfAMan1oCutaC7ckB62bJv/8EQGgCAVakrEn+ebrz0p36oAc2+6Uq39wFEvb+tuzdWHlLXRnr1f6tqSL2m39fXy9OKg+WVB81VDaCHMDxeaLVu9H+kOy39aTrVVYC1x0JtXFhXuQOMWu3bUOfvXd7NWO8daqNzAABYY7WeWw1h6o10X/pOqgERAJOvhtCHptbr/bR0eqqromudbIBR2T7VmvSt16FxVetQO08HAGBO6rbp1klml037bdwAQ1JXndd60bUkSes1f1qqJTpunwAW2oaproBuvfaMs8cnAACYk/XTEal1otlVhydXlAFMl9rA8hup9bo/TX0m1b8rwEKoD/I+nVqvN+PsjFTDcAAAmLNau7PWPG2dcHaVKy0Apk/dxv3YVBs2tl77p6VaV/y1qdYwB5ires18e2q9zoy7NyQAAJi3d6bWCWdXHZ9cbQEwnXZIX0it1/9p6oT0iGQNVWC26nXjgNR6bRl3S5I7PAAAWBCbpGNT68Szq16QAJhONWB5dLogtY4B01St5XrHBLCmXpFaryddVB8aAgDAgrlrap14dtVZacsEwPS6dvp1ah0Hpq2D0z4JYHVenFqvIV3lQzQAABbc51Pr5LOr3pgAmG61Se47Uus4MI0dlHZLACuqO0TenFqvG131x2RJIQAAFly9Kb4ktU5Cu6g2d9opATD97plOT63jwbR1WfrPtF0CWDd9NLVeL7rsqQkAAEbidal1EtpVH0oADMOO6XupdTyYxs5Pr0qbJmCYNkpfTa3XiC47NW2cAABgJOpk8/jUOhntotqRe88EwDCsnV6WFqfWcWEaOy29MNVGwcBw7Jx+mVqvC133bwkAAEbq4al1MtpVX0wADMu/pL+l1nFhWqvlSGpTMldGw/S7baqrjVuvBV13XKr1+gEAYKRqA5IfpdZJaVfdKgEwLFukz6TWcWGaOzPV1eCbJWD61FrLl6fW878PPT4BAMBY7JuuSK0T0y76YbI7N8Dw1Gv/k9JFqXV8mObOSq9Imydg8tWSOwem1vO9L/05rZMAAGBsPphaJ6dddc8EwDDV/gC/T63jw7R3Tnp12jIBk+km6cjUeo73qQcnAAAYq21TvfFtnaB20a+Tq6EBhmuD9O7UOkYMofPT29MuCZgMi9IL0mWp9bzuU79J9c8LAABj9+zUOkntqvslAIbtPqnWTW4dJ4ZQrSV7ULpRAvpr1/Tt1Hoe97H9EwAAdGLddHhqnah20WHJFRoA7JS+kVrHiiH1zXSX5E4h6I+103PThan1vO1jn0sAANCpu6XWyWpXPSQBQA1en5IuSK3jxZD6bXpEqg+Pge7UHQq/TK3naV+r5fd2SAAA0Lk+3Up4RKorTACgXCsdklrHjKF1XPr3tHUCxmfD9Ma0OLWem32uPswDAIBeuFlqnbR21aMSAMyopZrq9vdLUuu4MbQuTv+dbpqA0bpTOiq1not974fJUncAAPTKZ1Pr5LWL/prWSQCwoj3TL1Lr2DHUDk2PThskYOHskT6fWs+7SejSdL0EAAC9ct3Up1sMn5AAYGX1IeXL0+WpdfwYaqenN6RrJmDutkxvT5el1nNtUnplAgCAXvpgap3EdtGxab0EAC37pF+n1jFkyC1JX073Su4qgjVX553PSWel1nNrkvpDch4NAEBv7ZRqncnWyWwX/WsCgFWpIevz0oWpdRwZeienNyW35MOqrZXun2o5uNbzaNI6P3nOAwDQe/VmtXVC20XHJ2tcAnBVdk0Hp9axRMv6WXpy2iwBy4bP90j13Gg9Zya1hyQAAOi9rdI5qXVS20XPSgBwVWqg9LB0amodT7Ssi9L/pDumRQmGpl4r7pN+lVrPkUnunQkAACbGS1LrxLaLTkzrJwBYE/Vh6odT65iiK1f7LxyQbphqMAfTrD50eUD6bWo9Hya9nybrQAMAMFE2Siel1gluFz0lAcBs3CH9JbWOK/rnDk8vT3skmCa1dvxDU23W13rsT0Onp2skAACYOE9NrZPcLqortdZNADAbta/Aq1KfNt2dhH6Znp8MtZhk26QXp+NS63E+LV2R7pIAAGAi1dC3T7uEPyYBwFzUxoVfSK3ji1ZdDbcOSU9POyaYBPukj6ShfPj0zAQAABOtbl1snex20Z/T2gkA5upuqY4nreOMrrqfp9o3Ys9kDWn6pC6eeEj6UWo9dqe1VyQAAJh4tYHLb1LrpLeL6s0FAMxHbdz1gnR+ah1rtGYdmd6c/iX5kJiu1Acib0y1kXXrcTrNvSP5MAgAgKmxX2qd+HbR75OTbQAWQi0vcVBqHW80u05NH0r3TpskGKVa67mWoPhFaj0eh9BHU10sAgAAU6OGvt9LrRPgLqo3uACwUG6bfpdaxxzNvsvS91NtCHfjZFDGQqg7GO6fvpjqMdZ67A2lL6V1EgAATJ1bpNZJcBfVepSuhgZgIdVyEo9LJ6TWsUdz77T0ifTYZHNDZmPDdJ90YDoztR5fQ6suDNkgAQDA1PpCap0Md9FdEwAstI3SS9N5qXX80fz7Q3p7um/aOsGK6jHxmFTnnRem1mNoqH0zWe4GAICpVxu/LEmtk+Jxd0gCgFHZLr0nXZ5axyEtXH9M/5UennZKDEvd3bZHenaqZVwWp9bjZOjV+vW1JAkAAAzCR1LrxLiLag1PABil66Q+3Qk0hI5JtenaE9N1kzWlp8/26RGpziuPS63Hgf7R25LnAQAAg7JzuiS1TpDH3dcTAIzDbdLPUut4pNF2TvpuemN6YLpmsjfEZNks1cbS70y1HEvr71ntXpA65ckGwJrYNO2edkh14F83lRog1Tp3p6bafOWsVAc4gDXx1vT8Zd927oapbuMFgFGrWUytY/zaVMcfunN6+uXyfpV+nU5J3tN0r67YrSXcalPrmfZKtfkna66WJXlC+vjSnzpkCA3Aqlw7PTndM9XBf02OGTWQ/nM6LNVJXF3lUUOdKxLAymrDmLpVtj7c6trH0uOWfQsAY1FDtgenV6fr1R/QC2emeg+zYoensxOjUe81a2mNm6UaNt9y+fd1MRRzd356aDp46U8A0DO1SUHtMr1Qm4bVSdxn06PTVglgRS9PrdeOcXdZsokRAF2oKzvrXPno1DpGqR/VnZ/fSHUnV60zfYdUy4tZY3d2tkm3T09PtZFkbRJ9Rmr9zjX3fpvqwrLecCU0ACuqE6jPp/st/Wnh1WD7x+nT6X/TuQkYtk3SUenqS3/q1lvSC5d9CwBjV0vePTa9Iu1Sf8BEqA+yj031IcKK1d1ef0sXpaHZIu2Wdl3+tbp+ukHqwznftPtgek66eOlPPWEIDcCK6tPo9y77duTqZOyTqQ6QtQZbfVoLDNMz0nuWfdupWlKormiqrwDQlfVTXWlbdwvVnixMtrrw5qR04vKvrepK4Hp/1Pf3ROukWk5tu7Tt8q81VK5NHlccOm+eGL8L07+mTyz9qWcMoQGYUbcB1if4NYAZt9+lGkbXwdLwB4anlgH6U7rW0p+6VTuHv23ZtwDQqQ1S7VdQd+nUYI/pdnmqdadX7pwVvq8rW2tz+NVV/z11h+uK1Xu9lf9sw7RxqrvSVvW1hskzw+b6WssrmiX2U61bXmvM1zk1APRabQCx4hpSXVSf3H447Z2AYXlkar0ujLvjU90ODQB9UVefPiLV5t+tY5ekYffRVB8cAMBEqNvhWwe0rqrNDGvdMGAY6gqdunKj9Xow7mpzKADom7oC9V7pJ6l1/JI0rOriiXsnAJgob0qtA1uXXZEOSr3a1RcYmbrKq/VaMO7qSjO3mgLQV3WMul06OLWOY5Kmv9pPZbMEABPnfal1cOtDi9OBqTa6AKZXXQ3959R6HRh3+yUA6Lt9U232XefLreOZpOmq7hy8dQKAidXnIfRMl6X657xGAqZTX9aG/k4CgElRm4u/IZ2ZWsc1SZNdvRd+TVo/AcBEe3tqHez6WO36/OpUO4YD06Wuhv5Laj33x90+CQAmyUbpKenw1Dq2SZq8fpz2SgAwFV6aWge8PndUcss8TJ9HpdZzftx9JAHAJKp1o++avpZaxzhJ/a+WqbtvslcJAFPl0al14JuEPpt2SsB0WCcdmVrP93F2cdo6AcAku056d7ogtY53kvrVyanuaKhzYgCYOjdOrQPgpHR+el5yoIbp8JjUeq6PuxclAJgGm6YabP06tY55krqt3tO+PG2cAGBqrZcuSq2D4ST1+2S3YJh89YHSX1PreT7Ojks+3AJg2twkfSDV0Kt1/JM0vi5PdbfCdgkABuHrqXVQnMQ+nLZMwOR6bGo9v8fdAxIATCNXR0vdVRvuvy9dKwHAoPTl9veF6vh05wRMproCuTYgbT2/x9n3EwBMO1dHS+PpvPTGtH0CgEGqJTlqcNs6UE5yb08bJGDyPC61ntfj7oYJAIZgo/SI9I20JLWOi5Jm3+nppWmLBACD95zUOmBOen9MN0rAZKmroY9Jref1OPtgAoCh2TG9IP0htY6Pkq662mPkWak+4AEAltsknZFaB89J77L0wrR2AibH01LrOT3OauPWrRIADNFaaZ/0tnRKah0rJV25H6QHp3UTANBQB8rWQXRaOiRdMwGToZbT6cMb3roSDACGru5Suns6KJ2bWsdMaahdkGqzwb0SALAGPpxaB9VpqU6YH53qqg6g/16UWs/lcXZscicFAPzD+ule6WPpnNQ6fkpD6M/p39LmCQCYhY3TX1LrADtNfSptmoB+2yz14c3tvRMA8M9qk/O6QvrAdFZqHUelaaqWe/x8uktycRMAzMMe6YTUOuBOU39Keyag3w5IrefwOPtqAgBWr9bA3S99KJ2eWsdUaVL7Wao9S7ZOAMACqUH08al18J2mau2uhySgv7ZLF6fWc3hcLUk7JwBgzdRSVrdMr0+/T63jq9T3jkuvS9dJAMCI7J6GMIiu3p7sXgz99Z7Ueu6Os1clAGBudkl1Fen/pUtS61gr9aHaR6iWl7l9WpQAgDG4RqrbjloH52nrh2mHBPTPrmlxaj13x1V9KGeDQgCYv9qH5j7pg2kIywCq/52W6vG4f6p1zgGADtRB+N2pdbCetk5Ot01A/3w8tZ634+yeCQBYOLWx23XTM9IX0tmpdQyWFrq6wOBdqa54dqEBAPTII9KFqXUAn6bqasvnJDsdQ7/cILWes+PsywkAGJ0aBt4svTh9O3W9L4Smqz+kN6Z6jHm/BwA9du303dQ6oE9bn0qbJKA/agjcer6Oq9qgcKcEAIzHBulO6T/S99NFqXWMllqdkT6ZHp+cwwHAhKlPjB+dTk+tA/009ce0WwL64V9S67k6zl6RAIBu1GbidRXrs9Nn0ompdbzWMLs81V4/L0v1OLHMBgBMga1T7RrcOvhPU7VJxa0S0L36EOwXqfVcHVfHJW9oAKAf6tygNjB+ZPqv9LtUg8jWMVzTV10ZX1fI15Xyd0+bJQBgSt0yHZJaJwXT0iXpYQno3sNT63k6zupNDgDQT7WER10F+6/pg+lX6dLUOqZrsjopfTbVHj71d1xXxgMAA1JXINwjHZZaJwvT0iuTDSygW/Vmo+tbb7+YAIDJsV7aNz0p1RXTh6bzU+s4r350ZvpOekuqTfJrmUTvxSaMvzAARqVuUa8ThNela9YfTKFPpDp5raujgW68JB2w7NtO1AaFO6ZargcAmEw1H9s5XX95N1jhe8s6jNfx6bcrVX9Ww2gmmCE0AKO2fnpaenmqtaOnzU/S/VNtzgiMX72unJDqdtuu1G2g71r2LQAwRWputlOaGUzvnuoq3Gst/1rvdZi9WhLlqPSXdOTy6vuqrnpmChlCAzAum6cXpuemDesPpsgx6V7pT0t/AsbtA+kpy77txK/TTZd9CwAMxKK0fZoZSNfXme+vkXZIXX5I3qW6avmUVFcwV3XBwNFpZthcf1Z3kzEghtAAjFvdtv7q9MRUJ27T4tz0oFRrlQHjVVcnHb7s287slbr+ZwAA+qNmbnUhTg2jV9U2acu0Rdo49d2Fqa5UnumMVHeEzgyaZ4bOtWng5Qn+H0NoALpyvVTruNZSFtOiPs1/eqqdt4Hx+kbab9m3nXhTevGybwEAZq02TKxh9MxQur7OVAPquqr6qqqLfGY287tihe9X/rPa0+aidPHyrzOt/PNZqQbNM0Nne+EAABPrVulHaeUTpEnu9ckHvTBe+6fW83Fc1VU/tSErAAAAAD1UA9t7p7qVvTXcmcTqamgDKRifuvKn1mVvPR/H1Z0TAAAAAD1WQ9snpFpPrDXgmbQ+n+q2OGA8ajmc1nNxXH0sAQAAADABNky1eeGlqTXomaS+lzZLwOjVc602zGk9F8fRBWkSNhUCAAAAYLnavPCQ1Br2TFK/TtslYPQ+nFrPw3H1qAQAAADABKl1Xp+Yamfm1sBnUvpr2jUBo3Xz1HoOjqtvJQAAAAAm0NXTJ1Jr6DMpnZT2SsDo1Eanv0ut5+A4WpJ2SAAAAABMqP3SMak1/JmEzk63TsDoPC21nn/j6pkJAAAAgAm2UXpjWpxaA6C+d1G6ZwJGY/PU5QaFP0wAAAAATIG906GpNQTqezVAt4EZjM5HUuu5N46uSDsmAAAAAKbA2ukZ6bzUGgb1vacmYOHdIrWec+PqWQkAAACAKXKN9O3UGgb1PevHwsLreoNCS3IAAAAATKFF6dnpktQaCvW55yZgYT09tZ5v48iSHAAAAABT7IbpsNQaDPW5FyVg4WyVLkut59s4siQHAAAAwBTbIL01tQZDfe7lCVg4X0qt59o4+lECAAAAYMrdOZ2UWgOivvbqVOvZAvP34NR6no2rnRIAAAAAU+7q6TupNSDqa69PBtEwfxumc1PreTaO/i0BAAAAMABrp7rCuDYLaw2K+tibk0E0zN+BqfUcG0c/TAAAAAAMyF3Taak1LOpj70gG0TA/tSxP6/k1jpak2iARAAAAgAGpNVprw7DWwKiPvTsZRMPc1Z0QJ6bW82scPSIBAAAAMDDrpnem1sCoj70/LUrA3Lw1tZ5b4+h/EwAAAAAD9ZR0eWoNjvrW+5IromFu9kmt59U4OiutkwAAAAAYqDumGhK1hkd96+3JIBpmr543R6TW82oc3TYBAMAg1fp4ADB0f0tfSHdL29Qf9NitUl1R+b2lPwGzUevBdzUMPj19Z9m3AAAAAAzVFulbqXUVY996WQJm55ap9XwaR39MAAAAALD0KuP3pNYQqW89NwFrrjb3PCW1nk/jaLcEAAAAAEs9Iy1OrUFSn3pqAtbch1LruTSOnpkAAAAA4P+5azontYZJfeqxCVgz90qt59E4+kYCAAAAgCu5XjoqtQZKfWlJemgCrtqG6cLUei6NuovTBgkAAAAArmTr9P3UGir1pcvTfRNw1b6YWs+jcXSHBAAAAAD/ZL30wdQaKvWlS9N+CVi9x6fWc2gcvSYBAAAAQNNa6T9Sa7DUl+p2f1dawuptl1rPn3H0owQAAAAAq/XvqTVc6ksXpH9JwKr9PrWeP6Ouls7ZOAEAAADAaj05XZFaQ6Y+dE7aOwFt/5laz51xZNkcAAAAANbIw1Jd1dgaMvWhk9JuCfhnD0it5804elMCAAAAgDVyz1TrMLcGTX3or6nWvwWubJvUes6Mo18mAAAAAFhjt0/npdawqQ/9Om2WgCv7Q2o9Z0bdkrRlAgAAAIA1dtN0RmoNnPrQ99IGCfiHd6fW82Uc3TcBAMAgLFr+FQCYn1+l26Vah7mP7pgOSmsv/Qkohyz/2oXbLP8KAAAAALNSGwEenVpXPvah96e1ErBsvfTW82QcdTkABwAAAGDC7Zj+mFqDpz702gQsU5t3tp4no+7CtE4CAAAAgDnZOv0itYZPfehZCbja1T6fWs+RcXTDBAAAU8+a0AAwGmemO6cfLP2pf/4zPXzZtzBohy3/2oWbL/8KAAAAAHO2UapBdOsqyK67PO2XYMjun1rPj3H0gQQAAAAA87ZJ+mlqDaG67oJ0iwRDtXtqPTfG0W8TAAAAACyIzdMvU2sQ1XW1dMieCYaolqc7P7WeG6Nucaq7JQAAAABgQWyVfp9aw6iu+1vaPsEQdXmnwq0TAABMNRsTAsD4nJXuko5Y+lO/XDN9LW289CcYli43J7zZ8q8AADC1DKEBYLxOTzWI/uvSn/rlJumTae2lP8FwHLn8axdusPwrAABMLUNoABi/k9OdUy2B0Tf3Tu9Kay39CYbhhOVfu2A9dgAAAABGZrd0fGqtE9t1z0swFLUuc+t5MI5qY1Af+gAAAAAwMtdOdWV0azjVZVekByYYgl1T63kwrrZLAAAAADAy10+npdZwqssuTrdKMO3WS63nwLi6fQIAAACAkbpROiu1BlRdVhsp7pFg2p2aWs+BcfTUBAAAU8vGhADQD79Pd0vnLf2pP7ZJX09bL/0JppfNCQEAYEQMoQGgP36V9k8XLv2pP2rd6i+nDZb+BNOp1mbviiE0AAAAAGNV68NelFq37XfZp5MPsJlWn02tx/04Oi4BAAAAwFjdPS1OrYFVl70xwTQ6KLUe8+Po8uQDHgAAAADG7nGpNbDqun9NMG0OTK3H+7jaLgEAAADA2L0ktQZWXbYk3SPBNHl/aj3ex9WNEgAATCW3/QFAv9XyF+9Z9m1v1PnDp9INlv4E0+Gy5V+7suPyrwAAMHUMoQGg3+oKyeek2jStTzZNX03bLP0JJt+ly792ZYflXwEAYOoYQgNA/9XyF49JP1j6U3/slj6f1lv6E0y22gi0S4bQAABMLUNoAJgMl6T7pcOW/tQft0vvTWst/Qkm12bLv3bFchwAAEwtQ2gAmBznprunvy/9qT+elJ697FuYWFst/9oVQ2gAAAAAeuN66cxU60X3pVoyZP8Ek+obqfXYHlc/TAAAMJVcCQ0Ak+fP6V7p4qU/9UOdU3w67bn0J5g8XV8JvcnyrwAAAADQGzWIrs3UWldVdtVRaesEk+avqfWYHlf14RIAAAAA9M4TU2ug1WXfS+smmCRdL3FzbAIAAACAXnp5ag21uux9aa0Ek2CjdEVqPZbH1fEJAAAAAHqphr3/lVqDrS57ZoJJcJPUegyPsxMSAAAAAPTW2unzqTXc6qpar/quCfrusan1GB5nf0sAADCVaid7AGDyLUmPTD9a+lM/1GD8M+k6S3+C/tpr+dcuXbb8KwAATB1DaACYHpek+6Y/Lf2pH7ZIX01bLv0J+qkPQ+iLl38FAAAAgN67Vjo9tW7576pvp3US9FFtCth63I6znyQAAAAAmBj/kurK6Nawq6vekqBvtkmtx+u4+1oCAAAAgIny8NQadnVZ/TNBn/TlefLRBAAAU8ma0AAwvT6ZXrXs2974SLrRsm+hF/Zb/rVrpy7/CgAAAAATZa308dS68rKrjklbJ+haPT9OTq3H6bh7VgIAAACAibR++lFqDb666lvJRoV0ra7Kbz0+u+h+CQAAAAAmVm2+dnRqDb+66k0JuvTC1HpsdtENEgAAAABMtOulc1JrANZVD03QlR+n1uNy3C1JGyQAAAAAmHh3Tpen1iCsiy5MeycYt/pQpvWY7KIjEwAAAABMjSel1iCsq2qZkK0SjNNbU+vx2EWfTwAAAAAwVWo95tYwrKu+mdZOMA61WefpqfVY7KKXJQAAAACYKotSXX3ZGoh11RsSjEOtRd56DHZVLZMDAAAAAFNno/Sr1BqKddWDE4zad1Lr8ddFi9MmCQAAAACm0o7p+NQajnVRbVR4wwSjctPUeux11aEJAAAAAKbajdL5qTUg66Kj0pYJFtpa6Qep9bjrqgMSAAAAAEy9e6YlqTUk66KDk40KWWj3Sa3HW5ftmwAAAABgEP4ttYZkXfW6BAtl3fTn1HqsddWRqa7OBgAAAIBBqGHYe1NrWNZVd0+wEJ6dWo+xLvNBCwAAAACDs076VmoNzLrozHTNBPOxd7oktR5jXbZXAgAAAIDB2SodnVpDsy76eVo/wVxsnP6UWo+tLjs8AQAAAMBg1RWaF6TW8KyL3p1gLg5MrcdU170yAQAAAMCg3T+1hmdd9bAEs/HI1Hos9aHrJgAAAAAYvFen1gCti+rK7D0TrIkbpz5dzb9i30wAAAAAQCxKX0ytQVoX1Tq6tcYvrM7u6dTUegz1odslAAAAAGC5TdMfU2uY1kUHpbUStGyX/ppaj50+9KMEAAAAAKykriw9K7WGal30rwlWtkn6ZWo9ZvrS3RMAAAAA0HDXtCS1Bmvj7tJ0kwQz1k0Hp9bjpS/9OrmKHwAAAABW43mpNVzromPTlgnWT19KrcdJn3pgAgAAAABWo67i/HhqDdi66KupNk9kuDZK30ytx0efOiJ5rAIAAADAGtgw9Wnd3Rclhqk2zfx+aj0u+tZ+CQAAAABYQ9dIp6TWsG3c1TrVd0gMyxbpp6n1mOhbByUAAAAAYJZunS5LraHbuKuB+A6JYdg21SZ/rcdC3zozbZcAAAAAgDl4cmoN3rroB2mdxHS7fjomtR4DfexxCQAAAACYh/em1vCti96QmF53S+em1t99H/teqs08AQAAAIB5WDcdklpDuC66d2L6PC0tTq2/8z52Sbp2AgAAAAAWQK15e1xqDePG3dlpt8R0WDu9K7X+rvvcSxIAAAAAsID2TRel1kBu3NWmdRskJtvW6eup9Xfc5/4v1fAcAAAAAFhgD0utoVwXvS8xuW6e+nJ1/Wz6a9oiAQAAAAAj8sbUGs510aMSk6U28ntWuiy1/k773AXpBgkAAAAAGKFahqAvSyhcmAwFJ8dm6TOp9Xc5CT0wAQAAAABjUMsR/CW1BnXj7s9p00S/7Z2OTK2/w0no9QkAAAAAGKPrpfNSa2A37j6ZapkH+mdRem66JLX+7iahg5ONCAEAAACgAw9KraFdFz0j0S+7ph+k1t/XpHRY2jIBAAAAAB15Z2oN78ZdbXR380T36qr0J6S+XCk/145I2yUAAAAAoEPrpZ+l1hBv3B2Xtk50Z/v01dT6+5mkav3qHRIAAAAA0AM7pzNSa5g37mr93lqHmPGqq58flvryOJhPx6RrJAAAAACgR/ZPV6TWUG/cvTwxPrulGv63/i4mrbqavtayBgAAAAB66DWpNdgbdzUMv0titNZNL0oXpdbfw6R1Yto9AQAAAAA9tXb6dmoN+MbdaWmnxGjcKh2WWr/7SeykdN0EAAAAAPTcdqmuKG0N+sbdj1NdrcvC2TL9V+rL0isLUQ3Td0kAAAAAwIS4TVqcWgO/cffWxPzVMP+ZaRo2Hlyxb6TNEgAAAAAwYZ6fWkO/LnpAYm7WSvdIf0qt3+0k9/60TgIAAAAAJlANL7+eWsO/cXdu2iMxO3ulb6bW73SSq6VE6kOSeowCAAAAABPs6unU1BoEjrta93fTxFWrv7f3pSWp9buc5C5K908AAAAAwJTYP7WGgV1UV2ZbfmHVtk5vShem1u9v0jsl3TwBAAAAAFPmnak1FOyi/0qWYbiyLdJr0/mp9Tubhr6bdkwAAAAAwBTaIP0+tYaDXfS8xLLlSV6ezk6t39M0VEuKvCytnQAAAACAKXb9dHFqDQrHXW1MN+R1gbdKNZg9I7V+P9PS8ek2CQAAAAAYiKem1rCwi2qDuqGtD7xb+s80rWs+r9iXUg3bAQAAAIABqbWYazjYGhp20anpWmna3Sx9OtXSFK3fwzR1aXpmsu43AAAAAAzUNumk1BogdlEt2XCdNG3WSfdLh6TWv/c09pe0TwIAAAAABu5uqTVE7KpT0l5pGtSSG/+RTkytf9dpbHF6c9ooAQAAAAAs9ZHUGih21ZnpJmkSrZcelL6ZatPF1r/ftPbrtG8CAAAAALiSLVLfrtY9N/1LmgS15nGt9fyWVGtbt/59prnaWPL5qZYdAQAAAABouldqDRi7rIabj0x9VIPnulr7TenY1PrnH0J1xXctOwIAAAAAcJU+nlqDxq77n7RV6lpd6XuL9MZ0dGr9sw6lM9KjUg3jAQAAAADWSA16a2PA1tCx605Pz0jrp3FZlG6Ynp2+kmqJkNY/29CqDwW2SQAAAAAAs3b/1Bo89qVac/mAtHdayKtw679rp7R/ekH6dDottf4ZhtrP0q0SAADQU25VBAAmRQ1gH7Ls216rq7b/kI5bob+nWkv68pUqtQHjliu1a9or1RXP9TP/rH6vL0qfSTWMBgAAAACYl21TLX+x8pWwGla1/MgL0wYJAAAAAGBBPSm1BpOa/han96b6MAIAAAAAYCRqU75fptaQUtPb19KeCQAAAABg5G6ZWoNKTV+/TndNAAAAAABj9dHUGlpqOqrh872TTbQBAGAKOLGHybFR2iPtmDZO9Sb9gnRaOi6dnQCGYvt0ZNp06U9Mixo+vzr9X6rjHAAAADBiW6d/T79IS9KKV4mtXA2jv5Nen26X1kkA0+x5qfV6qMmr1vm+Z3KBBAAAAIxJvQl/Sjo3td6sr0lnpLpd/f6prpwGmDbrpT+l1mugJqP6kNXwGQAAADrwptR6sz7XLk5fTY9LBtLANKlN61qve+p3NXy+RzJ8BgAAgA48ILXesC9UdXX1e9ONEsA0+H5qvd6pf9WyUfsnw2cAAADoSL0p/0tqvXEfRT9PT0iujgYm2R1S6zVO/eiy9LHkw08AAADogX1S6w38qKuro9+Rdk0Ak8jV0P3rrHRA2jEBAAAAPfH41HojP66WpE+nmyeASeJq6P50VHpGcpcNAAAA9NC/p9Yb+i76UbpfWjsBTIIfpNbrmcZTHTfunxw3AAAAoMeenVpv7Lus1qh+ZDJUAPrO1dDjb3FyBw0AAABMkAem1pv8PvSn9PBkGA30mauhx9Nx6eXJes8AAAAwYfZIrTf7ferw9JC0KAH0zT1S67VL86/2DfhqumfygSQAAABMqLXS31PrzX/f+kO6V6p/ZoC+qOHopLyOTkonpdemXRIAAAAwBd6VWkOAvvaddKME0BevTq3XK82ub6baaHDdBAAAAEyRfVNrGNDnrkgfSTskgK7VFbv1utR6vdLqOy29Me2eAAAAgCn209QaDvS9C9Ir0kYJoEtfT63XKf1ztdZz/b4emtZPAAAAwADcO7UGBZPScek+CaArtYxE6/VJ/+iw9PzkLhYAAAAYoNrs72epNTSYpL6UbGQFdKHWMT45tV6bhlwtt/GOVEs/2VgWAAAABu6WaRrWNK0lOupKOxtbAeP27tR6XRpal6bPpbrLxmsxAAAAcCVvT62BwiT2+3SrBDAu90qt16OhdGh6WtoqAQAAADTVBlHTsCzHir0r2bgQGIdN0mWp9Vo0rf09vT5dNwEAAACskauno1Nr2DCp/TXdOgGM2vdS63Vomjo//Xe6Y1qUAAAAAGbtmulvqTV8mNRqveu3pA0SwKi8KLVegya9Jekb6ZFp4wQAAAAwb7ukI1JrGDHJ/SndPAGMwj6p9dozqdVx4AVpxwQAAACw4LZM30+twcQkV1f0/UdaNwEspFqe4rTUeu2ZlC5Nn0i3TWslAAAAgJFaL/1Pag0qJr3ahHG3BLCQvptarzl9r9bPr6uet0kAAAAAY1VXwtU6p4tTa3AxyZ2bHpIAFsp/pdbrTV+rofndkk0GAQAAgM7dLp2UWkOMSe9DyWZbwEJ4Tmq9zvStr6RbJgAAAIBeuXqa1FvNr6ratPBGCWA+7p5arzF96XNp7wQAAADQW2un16XWcGPSuyT9a7IZFzBXu6fW60vXHZP2SwAAAAATo672OzO1hh2T3n+nDRPAbNUHdZem1mtLF12eDkgbJQAAAICJs0s6NLUGH5Per9OuCWC2jk2t15Vxd366UwIAAACYaOuld6bWAGTSqyu93b4OzNZvU+s1ZZydnm6aAAAAAKbGg9J5qTUMmeSuSC9LixLAmvhJar2ejKv6AG3PBAAAADB1rp36cAXgKPpy2iwBXJUfpNbryLi6RwIAAACYWuunt6XWYGTSOyztnABWp8sh9KcTAAAAwCDsn05NrSHJJHdSukkCWJUul+O4bgIAAAAYjKunr6fWoGSSuzDdJwG0/Cm1XjtG3bcTAAAAwODUhn7PTpem1tBkUqsNC+vfa60EMKNeEy5IrdeNUffkBAAAADBYN0pdXR04yt6d1kkAZcvUeq0YR7smAAAAgEHbKH0gtYYnk9z/pU0TwN6p9Tox6k5O7swAAAAAWO4B6azUGqRMar9L10jAsN0rtV4jRt3BCQAAYPBqXViA8oVUVwsesvSn6VDLjfw87bv0J2Codl7+ddz+svwrAADAoBlCAys6Id05vSwtqT+YAjumH6W6EhIYpmsv/zputeY+AAAAAKtwy3RMat1iPonVUP2ZCRieuiOi9bow6m6XAAAAAFiNzdJBqTVcmdTemdZOwDBsnC5PrdeDUbdtAgAAAGANPCqdn1pDlknsK6kGU8D0qyWGWq8Do+6MBAAAAMAs7J66uqV9FP0kbZGA6faq1HoNGHW1Fj0AAAAAs7RuekO6IrWGLpPWb9I2CZhe30mt5/+o+2ACAAAAYI7ukk5OrcHLpHV42jEB02eDdGFqPfdH3bMSAAAAAPOwXTo4tYYvk9ZRadcETJcHpNZzfhzdIgEAAAAwT4vS89NlqTWEmaSOT9dNwPT4bGo930fd5amuwgYAAABggdw01dXErWHMJHVq2jsBk2+zdHFqPddH3a8SAAAAAAusBj6fSK2BzCR1Vrp5Aibbo1PrOT6O/isBAAAAMAJrpcelrjYCW6jOT7dLwOTqcs36eh0EAAAAYIRqbeXfptZwZlK6KO2XgMmzbVqcWs/tcXT9BAAAAMCIrZ/elVoDmkmpNly8fwImy4tT6zk9jmpt+borBAAAAIAxuXc6I7WGNZNQXU35qARMhnXTCan1fB5Hn0wAAAAAjNlO6QepNbCZhK5IT0lA/z0itZ7H4+rJCQAAAIAOrJ1ekZak1uBmEnpeAvqrlsH4ZWo9f8fVtRIAAAAAHbpN+ntqDW8moVcm671CP906tZ634+pvyesDAAAAQA9slb6QWkOcSeiAZNAE/fPZ1HrOjqsDEwAAAAA9UUPcp6VLUmuY0/delYD+2D11vdzPAxMAAAAAPbN3OiK1Bjp978UJ6IePpdbzdFzVB2qbJAAAAAB6aOP0odQa7PS95yagW3umrq+C/koCAAAAoOcelS5KrQFPn3tGArrzmdR6bo6zJyQAAAAAJkAtz/HX1Bry9LknJ2D89kmt5+Q4q6uwt00AAAAATIgt0pdTa9jT165Ij03AeNUyGK3n5Dj7YQIAAABgwixKL0ldr/M6m+qf9WEJGI9bptZzcdw9MwEAAAAwoe6STk+twU8fW5wekIDRWit9L7Weh+Ps8rRNAgAAAGCC7Zx+nloDoD52WbpXAkbnQan1/Bt3tXQQAAAAAFNg/fRfqTUE6mOXpv0SsPA2Ssel1nNv3NUwHAAAAIAp8uh0UWoNg/rWxelOCVhYr0mt59y4OydtkAAAAACYMjdKR6XWUKhvXZhum4CFsVu6JLWeb+PuAwkAAACAKbVF+kpqDYb61vnplgmYvy+k1vOsi26WAAAAAJhii9JL0xWpNSDqU3Xb/k0SMHd3Ta3nVxcdmgAAAAAYiBpMnZFag6I+dVaqpUSA2Vs3HZFaz60uelQCAAAAYEB2Sb9IrWFRnzo9XT8Bs1N3PbSeU110alo/AQAAADAwNRR6f2oNjfrUyelaCVgze6fLUuv51EWvSwAAAAAM2GPTxak1POpLR6XtE7B666XfptbzqIsWp50SAAAAAANXmwCekFpDpL70u7R5AlbtNan1/OmqjyYAAAAAWGqH1Pd1og9JGybgn9WHSXXlceu500VXpOsmAAAAAPh/asD7v6k1UOpLX07rJOAfao33P6bWc6arPp0AAAAA4J+slV6WWkOlvvTfqf45gWXemFrPlS6rDRIBAAAAYJUekC5MreFSH3pLAq52tVunJan1POmqumMBAAAAAK7SPunvqTVk6kMvTDBkV08nptbzo8tulgAAAABgjWyfDk2tQVMfekKCIaq10b+XWs+LLvtcAgAAYI5q/dHfp3PS2cu/rvx9dXo6dXkXJIBJt0H6WHrI0p/65Yr0wPSlpT/BcLwhvXjZt71Ry4LcIP1l6U8AAADMWg2h6wqf2bgozQykV+yU5V9PSiekk///9u4D2rKyvv8wDr1LCU0EFWxgwwIBFRAbKKiomNgLxqix/bEixh6sMYqxxd4iBguKJVEsCIoiCGiiIIKgIE16HZhh/b+/QeIEX2DKPbuc8zxrfRZzjVncu/c+d9y/8553pwUJYKjmpXr42csXfTUs89Pu6fuLvoLp9+g0xDdePpied/0fAQAAWBbLMoReUrWSrwbRv081lK4W//MZqf7v9d8D6NPz03tTDaWH5LK0Szp+0VcwvbZOx6Z1F301HPUg0/re6o12AAAAlsPiex523dXpV+nr6aD0kvSodLe0RgLoyl6pBk6t31V9Vp8wuWOCaVV/39fWYK3rv+/ekAAAAJgDrZuuoVQrpY9IH0o1oH542jINbbUiMB3um2ro2/p91Ge/TZslmDb1iaxPp9Z133dnpbUTAAAAc6B14zX0arXicemz6TXpMWmLVDezAMvj9qk+odH63dNnv0jrJZgmb0yt630I7ZMAAACYI60br7F2fvqvVE/Xr5vHrZLBNLC01k8/SK3fM312VLJVEdPi2al1nQ+h+t8S/vcDAADAHGrdfE1TF6fvpnemJ6W7JNt5ALdk9XRYav1e6bPaQ3/lBGO2R1qQWtd4381P9mEHAACYY60bsGnvsnRkek96erp7WikBLK6GvZ9Jrd8jfVZ76HozjbG6d7o8ta7tIeRhhAAAABPQugGbxa5KP0xvTXsme68CpYa9/5pavzf67N3JdgGMze1SPXS4dU0Pod+k+hQEAAAAc6x1E6YVVrgu/Ty9Pz0xbZ6A2VTD3jel1u+KPjsgwVjUm7u/TK1reQjV3/sPTAAAAExA60ZM7U5P9TH456RtklWIMFv2S63fDX32dwmGbt10dGpdw0PpnxMAAAAT0roR05L1x3RoelnaIXlYGEy/Z6WFqfU7oY/qe3lsgqGqAfSPU+v6HUq/SrbhAAAAmKDWzZiWrSvTd1M91GiXtGoCps8T0oLU+j3QR/PTrgmGZgwD6Hotb58AAACYoNYNmeamK9I300vTPVM94AyYDvukIQ2iL03bJRiKMQygqzcnAAAAJqx1Q6bJdH46OD073S4B4/b4NKRB9Llp6wR9u3X6SWpdp0Oq9qm2lRYAAEAHWjdl6qZT04dS7ee6dgLGZ2iD6Pq9smmCvoxlAH1h2iIBAADQgdaNmbrvmnR42i/dOd0qAePwuHRtar22++iEVFshQNc2Tsem1nU5tPZKAAAAdKR1Y6b++016T3pY8oBDGL6hDaKPSKsl6Eq9gXpaal2PQ+sdCQAAgA61bs40rC5Ph6bnpM0SMEw1iF6YWq/jPvpyWinBpD0gXZBa1+HQsg80AABAD1o3aBp2P0ovT1slYFj2Ta3XbV99JNneh0naJ12dWtff0Do7bZ4AAADoWOsmTePpxPS6dI9k0ATD8MrUer321YEJ5lr9nfPS1LrmhlgNyv86AQAA0IPWjZrGWe0j/fZUN9nzEtCPGs7VnrOt12lfvSTBXFkxHZRa19pQe2oCAACgJ60bNY2/s1I92HCHZIU0dK9edx9LrddnXz05wfLaIH0zta6xofa2BAAAQI9aN2uark5Nb07bJKA79VDAeqho63XZR9emPRIsq/ulM1Lr+hpqX0u1chsAAIAetW7YNL3VHtK1X+2WCZi81dORqfV67KMr0y4Jlkat7H9ump9a19VQOy6tkwAAAOhZ66ZNs1ENxp6f/ioBk1OvsdNS63XYR5en+ydYEmukT6XWtTTk6jkJGycAAAAGoHXjptmqPqL/5bRXqu0DgLm3bbo0tV6DfVTfS+0ZDzfnTukXqXUNDblz01YJAACAgWjdvGl2Ozu9Pd0lAXOr9mNemFqvvT66ON0nwY3V9htPSkN642RJuyzdOwEAADAgrRs4qfpRenaynybMnRen1uutry5M90xwg9o+5gupdb0MvWvSQxIAAAADUiudnpnWTOumGjYu3o3/s/radg2zpx5kdkj6WLrhAWvAsqnfux9Mz1n01TD8MT0o/feir5hle6cPpTE+K6C2ltonfWXRVwAAAAxGDUOWRv33V001jK7WS3WjutEt/LP+f5gOJ6f3p3pIVX2UH1h6K6fvpAcu+moYzku7pJMWfcWsqb/PD0pPWfTV+CxINYA+dNFXAAAADMrSDqGXRf076ua2HhB0x7T1YtXXGybGp1ZHfybVQPrE+g+ApbJZOiHVG3VDUXvC1yD6lEVfMSt2Tx9NdU2OUQ2gn5DqAbsAAADQtHmqm8f3pGNT3UzeeI9HDbujUj3Ayop3WDoPTdel1uuqr36f7pCYfvVppdpmqXUdjKX63wyPSwAAALBU1kqPTv+erkitm04Ns/o4/4FpiwQsmTem1uupz05PWyamU20H86JUWyq1zv9Yqj2gH58AAABgudQDE/8mHZ5aN6AaZgvTl9IDUhdbvsCYrZi+l1qvpT47NdUnVZguu6V6AGXrnI+p2hKqthEBAACAOVODzD3SL1PrZlTD7SeptltZKQFtm6ZzUus11Ge1N7QV0dOhPqFySGqd57F1UdopAQAAwETUIPN5aewfIZ7FfptektZOwF96WGq9dvqu9oi+S2KcVk+vTbVyuHV+x9Yf0t0TAAAATNy26YzUukHVsKs3EN6efMwf/tKHU+t103e13/t2ifFYLdW+z2en1jkdY79JHpoJAABApzZJx6bWjaqGXz1Q6jPpngm43jrpd6n1mum7S1Lt886wrZrqE0NnptZ5HGu1tVP9vQ8AAACdqwcXHpZaN6waT19N2ydghRUenlqvkyFUWzrU/vwMz8rp2WkaPyX0+VTbigAAAEBv6iPHP0ytG1eNq/9KD0ww6z6SWq+RIbQgPTcxDDV8fkY6LbXO19h7U5qXAAAAoHcbpdNT6wZW4+uI9NB0qwSzaN1UDwRsvT6G0jvTiol+bJD2T0O/Tpa1+empCQAAAAalnpZ/WWrdzGqc1R6geyXDaGbR3qn1uhhSX061LRLdqb/r6gGWV6XWOZmGzk32HwcAAGCw9kzXpdZNrcbbCenRyTCaWVLX++Gp9ZoYUvWA2NsmJqdWnD8qfSe1zsE0Vdtr3SYBAAAwRaZxqPfa9Ibr/zgI56f3pO+mU9PF6dpUe1nXCsIbWittnDa/UVumOyQD2OtXRr861bGEWbBtOjENfduLC1JtnfDNRV8xV2oY+6RUe3DX3wPT7qD08nTNoq8AAABgwFZKNaxsrbDqutoepIbIy6sG1DulF6SPpeNTDbJb/85ZqFaH7pBgFtRgrvU6GGJvTvU7mGVXv+9roP+tNCuf7LkiPTEBAADAqNw5XZlaN7td9tU0KbWSerf0lvTTNIvbkByaan9UmGbrpT+m1mtgiH0vbZZYcrXSvR7G+ul0eWod12nt5HS3BAAAAKNUq4ZbN7xd9vXUlQ3SPunf0lmp9f1MYzV8/0zaOsG0qu0YWtf/UKtth56VbCN002rwfP/0jjRLv7MX76OpVn4DAADAaM1L306tG9+uOi/1sZdr/ew7p/el+h5a39u0VduTfCDVvtowbWqLi9+k1rU/5GpLibnYkmharJuekGrF85hWt891F6V60xQAAACmQj3Yr1bktW6Cu6q2zOhTDa8ekj6SLkyt73GaujS9KtV2JTBNnpFa1/zQq+0lXpFWT7PoTmm/VA9UneW9/G/oiLRFAgAAgKmyb2rdCHfVF9NQrJJqFV4NQ1rf6zR1eqoHXdkOgGkx1tXQN3Rmenaa5gcX1u+bO6Znptpq4pTUOhaz2IJ0QOrj00EAAAAwcbU1xU9S66a4i2rP4nunoblLelea9tXRP047JZgGY10NvXgnpfo5pmFldA3U75NenL6Qzkmtn3nWOyFtlwAAAGCq3TfVMLh1c9xFtfJ4qCtyaxD0tHR0an3v09Ln0+0TjNnYV0Mv3gWpHsp3hzQGa6b7pXrgYr2Bd3i6LLV+Nl3fNekf08oJAAAAZsKHUusmuasemYbu/umw1Pr+p6H56W1pnQRjVUPQ1vU91uoNwh+l2qrhXqnvN+zqjbltUm1d9Mb05VSD/z7fyBxjP013TwAAADBT++VumH6d1lv0Vfd+le6Ral/MoavBQT1IrPZUnsb9O89OL00HpxqWwJjUQzd/n+p32jQ6Kx2Vjk8/+9M//5jmQq0k3yTdNtXD8aob/nzDP6f1uHal3ux7XfrnNIa/7wAAAOjArD207Xnp/df/sRf17//g9X8chdull6V6uGMNvqbN99M/pF8u+grG48C0//V/nAm1dcfvUr2BVAPpi9PlqQaeNeisN5NWTbWK+YbWSPWm4waLdevE5Hw9vSidtugrAAAAmFG1qrdW1i3+keEuq8HJbdLYbJRq79arUuvnGnPXpvrZ1k4wFrVid2FqXdNS152eHp1m7Y1tAAAAuEk7ptZNdFfVSrGx3qjXAL1WctfgtvWzjbkz098kQxTG4kupdS1LXVUr0d+catU5AAAAcCMfT60b6q56ehqzrdNn0jQ+qOvwdJcEQ7dbal3DUhd9I90pAQAAADdh43RJat1Yd9FYt+W4sXrQ4ldS62ccc9ekf0rTuA8206NW7Z+UWtewNKlOTA9NAAAAwBJ4cWrdYHfV19K0bP2wU/pJav2cY64GfA9MMFSvSa1rV5rrzkrPTPVsBQAAAGAJrZR+kVo32131tDQt5qX6ef6QWj/rmHt/WifB0GyVWtesNFddnv4xrZkAAACAZbBzat10d9VFabM0TdZKtZXF1an1M4+136c9EwzNj1PrmpWWp/od/u60SQIAAACW02dT6wa8q6ZpW47F3T59IbV+5jH3ubRRgqF4UWpdq9KyVHvivy9tngAAAIA5UiuRL0utm/GuemqaVg9KP0+tn3usXZDqnE3jmweMT61UXZha16q0pC1IH05bJgAAAGACXp5aN+VdNY3bcixu5fSydEVq/fxj7etpms8b4/Gd1LpGpVvq2vSxVPuLAwAAABO0SvpVat2gd9VhadpX1tYKu9p+pPXzj7UL098m6FPfb6RpfNWbgv+SbpsAAACAjjwktW7Uu2yat+W4QQ3aH5fOSq1jMNY+nzZI0IftUuu6lG5cvXH2+rRhAgAAAHpwSGrdtHdVbcuxaZoF66SD0nWpdSzG2NnpEQm6Ni+dn1rXpVSdmfZLayUAAACgR/Wx5L73Lf5qmqUH3t0v/Sy1jsVYq4d7rZ2gSwen1vWo2e7ItE+qvfkBAACAgXhVat3Id9lT0ixZKb06XZNax2OM/TbtkqAr+6bWtajZa376eLp3AgAAAAaoHlJ4cmrd2HdV7dm5eZo1d0vHptYxGWO11cg7Ul1TMGn14M/WdajZqfbaPyBtlAAAAICBe1hq3eB32XfTimnW1EfGa4gyTauif5q2TjBpv06ta1DT24L0lbRnqk+VAAAAACPyhdS64e+y2hpkVt09HZdax2WMXZqenGCSPpJa15+mr1PT/mmzBAAAAIzUFqnvhxRem7ZPs6pWRb8mTdOq6E+ktRJMwvNS67rTdHRV+lzaLc1LAAAAwBSoVWatQUCX/SatnWbZPdLPUuv4jLHac3y7BHNtp9S65jTeam/576RnpnUTAAAAMGVWTUPYY/WTadbVw/3emmog0zpGY2t+ekm6VYK5UkPK1vWm8XVienmaxYfUAgAAwMx5eGoNCLruSYkVVtg1/T61jtEY+1raMMFcOTu1rjUNv/rkS73ZVnviAwAAADPmi6k1MOiyS9LtEyussF46OLWO0xirofpfJ5gLR6XWdaZh9sv0pnTP5JMRAAAAMMPqIYVXptYAoct+lFZKXD+seWq6NLWO1diqhy++MBlCsbw+m1rXmIbT8akeunrXBAAAAPC/Xp1aw4Sue2Piz2p1+DSt/PxcWivBsnp7al1b6q/aA/4/U73RdIcEAAAA0DSUhxQuTDsn/qxWh9eqwgWpdczG1q/SNgmWxX6pdV2p285K/5YenbyxBAAAACyx3VNr2NB1v0u1LzL/147pjNQ6ZmPr8vTEBEvrGal1TWmy1ZY630/1hth2ydY6AAAAwDL7UmoNILrukGTI8ZfWT4em1jEbY+9NqyRYUo9NrWtJc9t16Weptj95eFozAQAAAMyJ26ahPAzvWYm/VMP5F6damdg6bmPrx2nzBEuiBqKt60jL30npQ2mftGECAAAAmJjnpdaAouuuSHdOtN03nZpax25snZN2SnBLHpRa15CWrtpj/pj0z2nv9FcJAAAAoDPz0g9Sa3DRdfVx8HpoIm3rptq6pHXsxlat7N43wc15YGpdP7r5Lk7fTq9LD0621wAAAAB6d6d0dWoNM7ruHYmbVttz1Or1oZyv5e2gtHKCll1T67rRn6vfBUenei09JdUnSurNRQAAAIDBeWVqDTj66KGJm3ev9OvUOn5j6ztpgwQ3Vr8LWtfMrFYD52PTR9Nz032Sh30CAAAAo7FSOi61Bh9dd3ayZ+ktWyd9KbWO4dg6Ld0tweIek1rXyyx0VvpGekt6Ytom1e9pAAAAgFGr1bX1AKvWQKTrvpZq6wluXn3s/tXputQ6jmPqslRDR7jB01LrWpmm6rqv7TQ+nF6cag9nb8IBAAAAU+2fUmtQ0kcvSSyZPdJFqXUcx9ZrkzcgKPU7oHWNjLF6o+h/0mfTq9Ke6XbJ/s0AAADAzFktnZRaQ5SuuzY9ILFktko/T61jObY+ljywkANT6/oYQ+enw9Jr0kPSugkAAACAP7l/Gsr2DrU/9KaJJbNm+lxqHcuxVfvh1s/D7PpEal0bQ6weGnho2jdtnazmBwAAALgF702tQUsfHZVWSSyZGn7tlxam1vEcU8ck++POru+m1nUxpE5Mf5fqQaEAAAAALIW10xmpNXTpo4MSS2e3VFsCtI7nmDol3SExe36XWtfEEKptix6VrHgGAAAAWA67p9bwpa+eklg6W6RjU+t4jqlz030Ss2OD1LoW+q4+YfCG5NMZAAAAAHPkk6k1iOmjK9M9E0tn9fTx1DqmY+qy9LDEbKhz3boO+uzCVJ8wAAAAAGAO1WrEWoXaGsj00alpvcTSqS0Dnp+uTa3jOpbq+39qYvrtn1rXQF+dk7ZNAAAAAEzA3qk1lOmrr6d5iaX3gFTDtNZxHVOvTPbinW5fTK1z30cXpbslAAAAACboo6k1nOmr1yeWzW3S0al1XMdUPaxyxcR0Oj21znvXLUi24AAAAADowNqptsJoDWn66pGJZbNq+mBqHdcx9YlkVfz0GdJDCV+eAAAAAOjIjmlhag1q+qg+Ir9VYtntm+an1vEdSx9JBtHTZSgPJTwyubYAAAAAOvbG1BrW9NWJaY3Ests+nZlax3csfSDZI3p6vC61znOXXZO2SQAAAAB0bOV0TGoNbfrqM8kAcvlsnI5IreM7lt6bXAfT4aepdY677E0JAAAAgJ7cKV2RWoObvnphYvmskmpri9bxHUvvSgbR41YPzmyd2y47Ja2eAAAAAOjR36fW8Kavrk0PSCyfGuC+IrWO8Vh6WzKIHq/nptZ57bIHJwAAAAB6VkO+w1JrgNNXZ6dNE8vvsenK1DrOY8hWCuP1jdQ6p131qQQAAADAQNQ+wuel1iCnr45Kta0Ey+++qQb7reM8hl6bGJe10/zUOp9ddFXaLAEAAAAwIHul1jCnzw5KzI3bphNT6ziPof0T4/G41DqPXVV7igMAAAAwQB9MrYFOnz0rMTdqderXU+s4j6H9EuNQW2G0zmEX1cNW69MdAAAAAAzQmunXqTXY6at6UOFuibmxUnpPah3rMfT4xLCtmi5MrfPXRfVASwAAAAAGbPu0ILWGO311cbprYu68IC1MreM95Gqv3x0Sw/Wk1Dp3XXRZ2jABAAAAMHD/mFoDnj47LW2UmDt7pEtT63gPuXPT7RPDdERqnbcu+qcEAAAAwAismL6dWkOePjs6rZ6YO3dPZ6TW8R5yv0y3TgxLfWKhdb666JK0fgIAAABgJGrV8R9Sa9jTZ59P8xJzZ5N0TGod7yF3eFo5MRzvTq1z1UWvTwAAAACMzM5paPtDVwcm5tYa6ZDUOt5D7iPpVon+1acULkqt8zTp6t9rZTwAAADASL0ytYY+ffesxNyqFeY14G8d7yH3qkT/npZa56eLDkgAAAAAjFQNJg9LrcFPn12bHpyYe89M16TWcR9q+yT69cPUOjeT7oK0dgIAAABgxOphX6en1gCozy5O2yTm3q7pwtQ67kPs6rRjoh/1gMvWeemi+rQGAAAAAFNg+zTE1bG/TRsn5t6d029S67gPsbNTPVCT7n0ytc7JpDsvrZkAAAAAmBIvTK1BUN/9ONVD0Zh7G6YfpNZxH2LfTLWFDN25Q+rrAab7JQAAAACmyK3Sf6TWMKjvDkmGj5Oxauprpeuy9LJEdz6cWudh0tXK9zUSAAAAAFNmnXRKag2F+u4ticmoNyBek1rHfWjVQyvvl5i8LVJf2/TUJzMAAAAAmFL3TPUguNZgqO+enZicJ6b5qXXsh9Spad3EZL0vtY7/pDszrZYAAAAAmGI17G0Nh/qu9qZ9SGJyHpD+mFrHf0gdnGoFN5OxWerrzajnJQAAAACmXA33hrpP8CVp28TkbJ1OTq3jP6T2TUzGu1LrmE+6M9IqCQAAAIAZsGb6RWoNivru9LRJYnLWT0ek1vEfSlembRJza6NUx7Z1zCedLXcAAAAAZszt01C3Zjgh3ToxOaumT6XW8R9K9UbJ6om589bUOtaTrvb6XjkBAAAAMGN2Tdem1tCo745MayQmp7ZmeW1qHf+hVFtHMDc2TVek1nGedE9LAAAAAMyo56bW0GgIHZasnpy8J6f5qXUO+m5hul9i+X0gtY7xpDsprZgAAAAAmGHvT63h0RD6dJqXmKwHpgtS6xz0XW3P4s2I5XOntCC1ju+k+5sEAAAAwIyrAd/3UmuANITenWrrCCbrjumU1DoHffeKxLL7j9Q6rpPu58mbSAAAAAAssmE6LbUGSUPogMTkbZBqP+7WOeizq9LtEktv+9Q6pl20dwIAAACA/3W3dFlqDZOGUO1fzeStmj6ZWuegzz6XWDr1CYK+PuVwXPIJBgAAAAD+wqNTa6A0hK5L9pftRg0P90v1YMDWueirHRJLbvfUOo5d9IgEAAAAAE219UVrqDSErk17JbpRQ8yLU+tc9NEPk9W1S6b2Yj4xtY7jpDs6OU8AAAAA3KQaHh2cWsOlITQ/PSzRjTunk1PrXPTR4xK37Cmpdfy66CEJAAAAAG7WGqn2dG0NmIZQPahu10Q3bp2+mVrnoutqda9VtjdvrfS71Dp+k+6I5PwAAAAAsERum85JrUHTELo83T/RjRXTO1LrXHTdnomb9s7UOm5dtHMCAAAAgCW2Y7o6tYZNQ+jStH2iO09LfV8T9hy+afdMC1LruE26byUAAAAAWGq1B+91qTV0GkIXpXslurND+kNqnY+u2iXxf62cjkmt49VFdV0AAAAAwDJ5YWoNnYbS+WnbRHduk/oceH4m8X+9NbWOVRd9LQEAAADAcnlbag2fhlLtX33nRHdWTx9NrfMx6erhlPXARK738NQ6Tl117wQAAAAAy2VeqtWnrQHUUDo73TXRraenK1PrnEyyv0+ssMKW6bzUOkZd9MUEAAAAAHNilXR4ag2ihtK5ydYc3atj/svUOieT6odp1q2Xuj7ui1f7xd8tAQAAAMCcWTedmFoDqaFUe0TfI9GtNdOnUuucTKIagG6YZtWq6fupdWy66nMJAAAAAObcZumM1BpKDaUL0naJbt0q7Ztqz+bWeZnr9kmzaOV0SGodk65amOzDDgAAAMDEbJMuSq3h1FC6MN0n0b1aiX5yap2XuexdadbUAPoLqXU8uuwTCQAAAAAm6oHp6tQaUA2li9P2ie6tnWq7htZ5mau+lWZJ7cv+pdQ6Fl1WK923SAAAAAAwcY9LtTdva1A1lC5JOya6V9tzPC1NatX8r9OsWC0dmlrHoesOTAAAAADQmRem1qBqSF2WHpTox6ZpEgPUc9MsqAeCfi+1jkHXnZfWSQAAAADQqbel1sBqSNXWIY9J9KNWRT8x/TG1zs+yNAtD6E3S8an18/fR8xIAAAAAdG5e+nBqDa2G1ML0jER/Nk5z9WC9E9M02yqdmlo/ex/9KtWDEQEAAACgFyumT6XW8Gpo/b9Evx6famuH1vlZ0up6m1b3Suek1s/dV3slAAAAAOjVSunzqTXAGlpvSrVFBP2pvY5fmy5OrXN0S+2dptGuqR6o2fqZ+6r2pPZ6AQAAAGAQ6uP6k3gI3SR6X6qtROjXrdPr09IMXn+eavX9tHlsqv3LWz9zX12X7pMAAAAAYDBWTd9IrYHW0Pr3ZJ/bYVg/1Qr1S1PrXN3QBWnbNG3+LtW+5a2fuc8+kAAAAABgcFZPh6fWUGto/WdaOzEMa6WnpNra5cx0w3m6LH023S5Nk9rm4oC0+DU5lGrf7vUSAAAAAAzSmukHqTXcGlrHp80Sw1NvaNQgdBq3TqktRd6bWtfkEHp6AgAAAIBBqxXGR6fWgGtonZGmcZsHhqnepPlKal2LQ+jI5GGEAAAAAIxCPXjuuNQadA2ti9ODEkzSxumY1LoGh9CCdPcEAAAAAKOxQToxtQZeQ+ua9KQEk3CX9NvUuvaG0jsTAAAAAIzORumXqTX0GmL7J9sRMJd2Them1vU2lE5PHtQJAAAAwGhtmk5OreHXEPtgWinB8vrbND+1rrMhtWsCAAAAgFGr/XB/nloDsCF2eFo/wbKo1fSvTK1ra2i9OwEAAADAVKih7k9SaxA2xE5Jd02wNGoVfa2mb11TQ+uktHoCAAAAgKlR+85+L7UGYkPskvSIBEuiru+vp9a1NLQWph0SAAAAAEydWnn5jdQajA2x69LLkgcWcnO2Sv+dWtfQEDswAQAAAMDUWiUdklrDsaH2ibRaght7cLogta6bIXZUWjkBAAAAwFSrvXM/nlpDsqF2dNokQanV8S9KC1Lrehli56bbJAAAAACYCfPSe1NrWDbU/pAekJhtq6aPptY1MtRqH+gHJQAAAACYKbWatPanbQ3NhlqtfH1psk/0bKrV8D9KrWtjyL0yAQAAAMDM2j+1BmdD7otp3cTsuG86M7WuhyH3leRNEwAAAABm3gtSa4A25E5J90hMv6ekq1LrOhhyx6d1EgAAAAAQT03XptYwbahdmZ6emE6rpHen1rkfemekzRIAAAAAsJjd0sWpNVQbcv+W1khMj9unY1LrfA+9i9I2CQAAAABoqOHZb1NruDbkfpnulRi/vdMY3wyp5qedEwAAAABwMzZOY1yFek16aZqXGJ8xb79RLUxPSAAAAADAEqjtLb6UWsO2offtZD/ecRnz9hvVdcn+5AAAAACwlFZM70ytodvQuyA9JjF8Y95+44b2TQAAAADAMnp+qq0GWsO3oVcPLVwrMTyrpTFvv3FDz00AAAAAwHJ6ZLo8tYZwQ68etPiQxHDcL9XDJFvna0y9IAEAAAAAc+Re6azUGsaNoQ+ndRP9qYcPviktSK1zNKYMoAEAAABgAjZPJ6bWUG4M1RB9r0T37pFOSK3zMqZqgP7kBAAAAABMyNrpK6k1oBtLn00bJiZvpXRAuia1zsWYuirtmQAAAACACZuX9k9jfWBhdV6qFa23SkzGXdMxqXX8x9YlaecEAAAAAHTooemPqTW0G0tHpNoqgrmzenptujq1jvnYOjdtlwAAAACAHmyRfppaw7uxVCu6D0rrJZZdrSp/VDottY7zGDs93TEBAAAAAD1aLX0otYZ4Y+r8tG+q7UZYOjWo/UZqHdexdmzaLAEAAAAAA/HMNA1bMNQ+xn+duGVrpbek+al1LMfaf6Q1EgAAAAAwMPdOv02twd7Y+lLaJvGXauuNv01nptaxG3OvT1bDAwAAAMCArZ++mVoDvrFV+0V/PG2Z+PO+z8en1vEac1elGqwDAAAAACNQK0lrRel1qTXwG1u13cS700ZpFtXw+ZGp9kluHZ+xd3baPgEAAAAAI7NHOje1Bn9j7LL0xrRBmgU1fN49/SS1jsc0dFzaPAEAAAAAI1Wrh7+aWgPAsXZFem/aKk2jFdOe6Uep9fNPS/+aVksAAAAAwMjVitpnp8tTaxg41mq7kS+kHdM02Di9Op2eWj/vtHRp2icBAAAAAFNm63R0ag0Gx94P02PTymlM6g2CXdLB6ZrU+tmmqZ+lug4BAAAAgCm1UvrHtCC1hoRj7/xU2zzU6uga8A7V7dL/S/+TWj/HNPa+ZPsNAAAAAJgR90snp9awcFo6NdWDDO+c+lYD8XunN6QTUuv7ndZq+40nJAAAAABgxqyRanVqa3A4bf0ivSftnTZIXVgv7Z7qIYq/S63va9r7bqpV3wAAAADcjCF/pB/mwh7pY2mTRV9NvxqO/jx9Px2VakX4aemKtKxWT9ulWmG+/Z/+ecc0q65Kr0z1Jkc9QBIAAACAm2EIzSzYMNXAcJa3TTgn/SbVNh6np6tT7Z29ePX7YOO02Y3aKPldcb0fp6enXy/6CgAAAABgMbUqulYF33hbBemWmp9q9fOKCQAAAADgJtXWEm9O16TWsFG6cT9Ld08AAAAAAEvsrul7qTV0lKpL04vTSgkAAAAAYKnVPsdPTeel1hBSs9vB6TYJAAAAAGC5rZ8+lFrDSM1Wp6SHJQAAAACAObdTOjG1hpOa7q5Or02rJQAAAACAian9f/dLtR9wa1ip6esLaesEAAAAANCZv0r/kuan1uBS4+/ItGMCAAAAAOjNlunjaWFqDTI1vk5Kj071YEoAAAAAgEHYNh2aWkNNjaOz03NSbbkCAAAAADBI9fDCH6TWkFPD7IJ0QForAQAAAAAMXm3jsEc6IbWGnhpG56VXpLUTAAAAAMDozEtPSqem1hBU/fSH9JK0RgIAAAAAGL2V0xPTsak1FFU3/T79Q1otAQAAAABMndqmY+f0lXRdag1KNfcdk56SVk0AAAAAADPhTukD6crUGpxq+bomfTbtkAAAAAAAZtaG6TXpnNQapmrpquP4+rRpAgAAAADgT2qriGemX6TWcFU3XW1t8q1UD4FcJQEAAAAAcBNq3+jd0qfTVak1dNX1/Sq9Km2eAAAAAABYSuumv08/Tq0h7Cx2YXp/qr2ea2APAAAAAMAc2DYdmE5NreHsNHdu+kjaK62WAAAAAACYkFr9e9/09nR6ag1tp6GT0tvSTmnFBAAAAMCU8nF3GK56fW6faoXwI9J2aawuT0em76bD0skJAAAAgBlgCA3jsWnaPdVA+mFpnTRUNwydv/+nfpYWJAAAAABmjCE0jFNtYXGvtMuf2jndOvXhqvTf6cQ/9dN0XDJ0BgAAAMAQGqZEDaXvnmo/6bsu1pZpLl7ntY/z2enM9PtU22ncMHT+TVqYAAAAAOBGVljh/wNVXMQd0Ke/SwAAAABJRU5ErkJggg==;" vertex="1" parent="1">
                    <mxGeometry x="414" y="240" width="202" height="138.63" as="geometry"/>
                </mxCell>
                <mxCell id="41" value="" style="shape=flexArrow;endArrow=classic;html=1;endWidth=6.19047619047619;endSize=4.4904761904761905;fillColor=#a20025;strokeColor=#6F0000;width=10;" edge="1" parent="1">
                    <mxGeometry width="50" height="50" relative="1" as="geometry">
                        <mxPoint x="604" y="320" as="sourcePoint"/>
                        <mxPoint x="517" y="328" as="targetPoint"/>
                        <Array as="points">
                            <mxPoint x="604" y="300"/>
                            <mxPoint x="517" y="260"/>
                        </Array>
                    </mxGeometry>
                </mxCell>
                <mxCell id="42" value="" style="shape=flexArrow;endArrow=classic;html=1;endWidth=6.19047619047619;endSize=4.4904761904761905;fillColor=#a20025;strokeColor=#6F0000;width=10;" edge="1" parent="1">
                    <mxGeometry width="50" height="50" relative="1" as="geometry">
                        <mxPoint x="586" y="320" as="sourcePoint"/>
                        <mxPoint x="537" y="328" as="targetPoint"/>
                        <Array as="points">
                            <mxPoint x="586" y="310"/>
                            <mxPoint x="537" y="290"/>
                        </Array>
                    </mxGeometry>
                </mxCell>
                <mxCell id="43" value="Émetteur" style="rounded=0;whiteSpace=wrap;html=1;" vertex="1" parent="1">
                    <mxGeometry x="563" y="340" width="65.5" height="30" as="geometry"/>
                </mxCell>
                <mxCell id="44" value="" style="ellipse;whiteSpace=wrap;html=1;" vertex="1" parent="1">
                    <mxGeometry x="505.5" y="331.37" width="43" height="30" as="geometry"/>
                </mxCell>
                <mxCell id="45" value="Récepteur" style="rounded=0;whiteSpace=wrap;html=1;" vertex="1" parent="1">
                    <mxGeometry x="494.25" y="340" width="65.5" height="30" as="geometry"/>
                </mxCell>
            </root>
        </mxGraphModel>
    </diagram>
</mxfile>